M48
;DRILL file {KiCad 4.0.6} date Sun Apr 23 23:51:46 2017
;FORMAT={-:-/ absolute / inch / decimal}
FMAT,2
INCH,TZ
T1C0.016
T2C0.028
T3C0.039
T4C0.130
%
G90
G05
M72
T1
X4.4456Y-4.3975
X4.5923Y-4.5241
X4.8637Y-3.3061
X5.118Y-2.4647
X5.219Y-2.6387
X5.5462Y-2.4143
X5.5672Y-2.814
X5.6371Y-2.3583
X5.6614Y-2.6102
X5.689Y-2.4055
X5.6929Y-2.6102
X5.7398Y-2.2539
X5.7402Y-2.3031
X5.8937Y-3.0197
X6.0039Y-2.8543
X6.1619Y-2.747
X6.176Y-2.5802
X6.2012Y-2.5114
X6.2281Y-2.4931
X6.2378Y-2.4367
X6.2842Y-2.5496
X6.2859Y-2.333
X6.3036Y-2.7825
X6.332Y-2.8002
X6.3359Y-2.3285
X6.3427Y-2.7503
X6.3995Y-2.5681
X6.4307Y-2.4455
X6.4417Y-2.5406
X6.4914Y-2.6984
X6.5733Y-2.7691
X6.633Y-2.5355
X6.7037Y-2.6201
X7.1335Y-4.0581
X7.2063Y-4.1675
X7.2899Y-3.1172
X7.3525Y-3.1693
X7.4609Y-3.3185
X7.64Y-3.6581
T2
X3.1693Y-3.2283
X3.563Y-3.2283
T3
X3.3465Y-3.8189
X3.5827Y-3.8189
T4
X4.5276Y-3.3858
X4.5276Y-4.4488
X7.2835Y-3.3858
X7.2835Y-4.4488
T0
M30
