G04 #@! TF.FileFunction,Legend,Top*
%FSLAX46Y46*%
G04 Gerber Fmt 4.6, Leading zero omitted, Abs format (unit mm)*
G04 Created by KiCad (PCBNEW 4.0.6) date Mon Apr 24 00:01:32 2017*
%MOMM*%
%LPD*%
G01*
G04 APERTURE LIST*
%ADD10C,0.100000*%
%ADD11C,0.200000*%
%ADD12C,0.150000*%
%ADD13C,0.120000*%
%ADD14C,0.254000*%
%ADD15C,0.010000*%
%ADD16R,5.900000X5.900000*%
%ADD17R,5.400000X5.400000*%
%ADD18C,3.700000*%
%ADD19R,1.300000X2.000000*%
%ADD20C,1.400000*%
%ADD21R,2.800000X3.350000*%
%ADD22R,2.800000X3.050000*%
%ADD23C,1.924000*%
%ADD24R,1.100000X1.700000*%
%ADD25R,1.700000X1.100000*%
%ADD26R,1.950000X1.700000*%
%ADD27R,1.050000X0.800000*%
%ADD28R,2.000000X1.400000*%
%ADD29R,1.400000X2.000000*%
G04 APERTURE END LIST*
D10*
D11*
X194911023Y-100000000D02*
G75*
G03X194911023Y-100000000I-44911023J0D01*
G01*
D12*
X221400000Y-86000000D02*
X221400000Y-91900000D01*
X221400000Y-91900000D02*
X221400000Y-80100000D01*
X221400000Y-86000000D02*
X223300000Y-86000000D01*
X223300000Y-86000000D02*
X222800000Y-85600000D01*
X222800000Y-85600000D02*
X222800000Y-86300000D01*
X222800000Y-86300000D02*
X222800000Y-86400000D01*
X222800000Y-86400000D02*
X223300000Y-86000000D01*
X223261579Y-86000000D02*
G75*
G03X223261579Y-86000000I-10261579J0D01*
G01*
D13*
X127025145Y-63545309D02*
X126744287Y-63095844D01*
X126744287Y-63095844D02*
X131154137Y-60340264D01*
X131154137Y-60340264D02*
X131434995Y-60789729D01*
X130565005Y-69210271D02*
X130845863Y-69659736D01*
X130845863Y-69659736D02*
X135255713Y-66904156D01*
X135255713Y-66904156D02*
X134974855Y-66454691D01*
X125608904Y-64430275D02*
X127025145Y-63545309D01*
D12*
X82000000Y-95000000D02*
X80500000Y-95000000D01*
X80500000Y-95000000D02*
X80500000Y-99000000D01*
X80500000Y-99000000D02*
X82000000Y-99000000D01*
X82000000Y-94500000D02*
X82000000Y-99500000D01*
X82000000Y-99500000D02*
X94000000Y-99500000D01*
X94000000Y-99500000D02*
X94000000Y-94500000D01*
X94000000Y-94500000D02*
X82000000Y-94500000D01*
X94000000Y-82000000D02*
G75*
G03X94000000Y-82000000I-8500000J0D01*
G01*
D13*
X185650000Y-109880000D02*
X184450000Y-109880000D01*
X184450000Y-108120000D02*
X185650000Y-108120000D01*
X115650000Y-90880000D02*
X114450000Y-90880000D01*
X114450000Y-89120000D02*
X115650000Y-89120000D01*
X141120000Y-59550000D02*
X141120000Y-58350000D01*
X142880000Y-58350000D02*
X142880000Y-59550000D01*
X139120000Y-59550000D02*
X139120000Y-58350000D01*
X140880000Y-58350000D02*
X140880000Y-59550000D01*
X137120000Y-59550000D02*
X137120000Y-58350000D01*
X138880000Y-58350000D02*
X138880000Y-59550000D01*
X185650000Y-83880000D02*
X184450000Y-83880000D01*
X184450000Y-82120000D02*
X185650000Y-82120000D01*
X115650000Y-116880000D02*
X114450000Y-116880000D01*
X114450000Y-115120000D02*
X115650000Y-115120000D01*
D12*
X103000000Y-75000000D02*
X103000000Y-81000000D01*
X103000000Y-81000000D02*
X109000000Y-81000000D01*
X109000000Y-81000000D02*
X109000000Y-75000000D01*
X109000000Y-75000000D02*
X103000000Y-75000000D01*
X107700000Y-78000000D02*
G75*
G03X107700000Y-78000000I-1700000J0D01*
G01*
X100000000Y-84000000D02*
X100000000Y-90000000D01*
X100000000Y-90000000D02*
X106000000Y-90000000D01*
X106000000Y-90000000D02*
X106000000Y-84000000D01*
X106000000Y-84000000D02*
X100000000Y-84000000D01*
X104700000Y-87000000D02*
G75*
G03X104700000Y-87000000I-1700000J0D01*
G01*
X99000000Y-93000000D02*
X99000000Y-99000000D01*
X99000000Y-99000000D02*
X105000000Y-99000000D01*
X105000000Y-99000000D02*
X105000000Y-93000000D01*
X105000000Y-93000000D02*
X99000000Y-93000000D01*
X103700000Y-96000000D02*
G75*
G03X103700000Y-96000000I-1700000J0D01*
G01*
X99000000Y-102000000D02*
X99000000Y-108000000D01*
X99000000Y-108000000D02*
X105000000Y-108000000D01*
X105000000Y-108000000D02*
X105000000Y-102000000D01*
X105000000Y-102000000D02*
X99000000Y-102000000D01*
X103700000Y-105000000D02*
G75*
G03X103700000Y-105000000I-1700000J0D01*
G01*
X164040559Y-62116100D02*
X163492551Y-62664108D01*
X157959441Y-62116100D02*
X158507449Y-61568092D01*
X161000000Y-65156659D02*
X161548008Y-64608651D01*
X161000000Y-59075541D02*
X161548008Y-59623549D01*
X157959441Y-62116100D02*
X158507449Y-62664108D01*
X161000000Y-65156659D02*
X160451992Y-64608651D01*
X164040559Y-62116100D02*
X163492551Y-61568092D01*
X165346953Y-65946447D02*
X165382309Y-65981802D01*
X168281447Y-63011953D02*
X168383977Y-63114484D01*
X171923047Y-66653553D02*
X171820516Y-66551023D01*
X168988553Y-69588047D02*
X168886023Y-69485516D01*
X165346953Y-65946447D02*
X168281447Y-63011953D01*
X168988553Y-69588047D02*
X171923047Y-66653553D01*
X165382309Y-65981802D02*
X164392359Y-66971751D01*
D13*
X185750000Y-78190000D02*
X183850000Y-78190000D01*
X184350000Y-80510000D02*
X185750000Y-80510000D01*
X115750000Y-118190000D02*
X113850000Y-118190000D01*
X114350000Y-120510000D02*
X115750000Y-120510000D01*
X94984000Y-83700000D02*
X97016000Y-83700000D01*
X94975000Y-80500000D02*
X94975000Y-83700000D01*
X97025000Y-83700000D02*
X97025000Y-80500000D01*
X183300000Y-88984000D02*
X183300000Y-91016000D01*
X186500000Y-88975000D02*
X183300000Y-88975000D01*
X183300000Y-91025000D02*
X186500000Y-91025000D01*
X183300000Y-91984000D02*
X183300000Y-94016000D01*
X186500000Y-91975000D02*
X183300000Y-91975000D01*
X183300000Y-94025000D02*
X186500000Y-94025000D01*
D12*
X191000000Y-75000000D02*
X191000000Y-81000000D01*
X191000000Y-81000000D02*
X197000000Y-81000000D01*
X197000000Y-81000000D02*
X197000000Y-75000000D01*
X197000000Y-75000000D02*
X191000000Y-75000000D01*
X195700000Y-78000000D02*
G75*
G03X195700000Y-78000000I-1700000J0D01*
G01*
X194000000Y-84000000D02*
X194000000Y-90000000D01*
X194000000Y-90000000D02*
X200000000Y-90000000D01*
X200000000Y-90000000D02*
X200000000Y-84000000D01*
X200000000Y-84000000D02*
X194000000Y-84000000D01*
X198700000Y-87000000D02*
G75*
G03X198700000Y-87000000I-1700000J0D01*
G01*
X195028000Y-93050000D02*
X195028000Y-99050000D01*
X195028000Y-99050000D02*
X201028000Y-99050000D01*
X201028000Y-99050000D02*
X201028000Y-93050000D01*
X201028000Y-93050000D02*
X195028000Y-93050000D01*
X199728000Y-96050000D02*
G75*
G03X199728000Y-96050000I-1700000J0D01*
G01*
X195000000Y-102000000D02*
X195000000Y-108000000D01*
X195000000Y-108000000D02*
X201000000Y-108000000D01*
X201000000Y-108000000D02*
X201000000Y-102000000D01*
X201000000Y-102000000D02*
X195000000Y-102000000D01*
X199700000Y-105000000D02*
G75*
G03X199700000Y-105000000I-1700000J0D01*
G01*
D14*
G36*
X226150742Y-73320542D02*
X227105012Y-73988532D01*
X227679190Y-74945495D01*
X227871566Y-76003564D01*
X227776313Y-76765595D01*
X227393524Y-77626870D01*
X226724768Y-78295626D01*
X225762661Y-78776679D01*
X224984248Y-78873981D01*
X224936460Y-78890038D01*
X224898685Y-78923422D01*
X224876874Y-78968872D01*
X224879517Y-79040161D01*
X225274857Y-80226180D01*
X225371574Y-81290070D01*
X225080731Y-82453442D01*
X224495448Y-83526461D01*
X223717209Y-84401979D01*
X222932690Y-84892304D01*
X222896094Y-84926976D01*
X222875870Y-84973155D01*
X222875205Y-85023564D01*
X222883269Y-85050028D01*
X223176651Y-85734586D01*
X223371497Y-87098507D01*
X223177867Y-88260285D01*
X222593694Y-89428631D01*
X221914560Y-90204785D01*
X220927170Y-90895958D01*
X220892430Y-90932489D01*
X220874640Y-90979659D01*
X220881086Y-91044593D01*
X221177480Y-91834977D01*
X221371319Y-92804174D01*
X221176528Y-94265111D01*
X220790239Y-95134261D01*
X220110194Y-96008604D01*
X218923800Y-96898400D01*
X218890275Y-96936051D01*
X218874040Y-96983778D01*
X218882083Y-97047167D01*
X219275681Y-98031162D01*
X219372296Y-98900699D01*
X219275330Y-99870360D01*
X218788531Y-101136037D01*
X218011496Y-102107332D01*
X216925302Y-102897291D01*
X216891228Y-102934444D01*
X216874292Y-102981928D01*
X216882083Y-103047167D01*
X217078884Y-103539169D01*
X217370758Y-104706666D01*
X217176140Y-106068990D01*
X216788028Y-107136297D01*
X215912807Y-108206012D01*
X214959967Y-108873000D01*
X194153750Y-108873000D01*
X194624715Y-106423984D01*
X194626223Y-106414025D01*
X194826223Y-104614025D01*
X194826370Y-104612637D01*
X194926370Y-103612637D01*
X194927000Y-103600000D01*
X194927000Y-102607904D01*
X195026019Y-101815752D01*
X195027000Y-101800000D01*
X195027000Y-98200000D01*
X195026223Y-98185975D01*
X194927000Y-97292968D01*
X194927000Y-96200000D01*
X194926223Y-96185975D01*
X194826223Y-95285975D01*
X194826019Y-95284248D01*
X194626019Y-93684248D01*
X194624534Y-93675093D01*
X194325226Y-92178553D01*
X194225724Y-91482039D01*
X194225272Y-91479121D01*
X194125272Y-90879121D01*
X194124534Y-90875093D01*
X193924534Y-89875093D01*
X193923208Y-89869198D01*
X193723208Y-89069198D01*
X193721644Y-89063507D01*
X193421896Y-88064347D01*
X193222114Y-87365110D01*
X193220483Y-87359839D01*
X192921089Y-86461657D01*
X192621896Y-85464347D01*
X192422114Y-84765110D01*
X192418914Y-84755407D01*
X191818914Y-83155407D01*
X191813592Y-83143204D01*
X191416576Y-82349171D01*
X191118914Y-81555407D01*
X191113592Y-81543204D01*
X190313592Y-79943204D01*
X190311018Y-79938323D01*
X189812353Y-79040726D01*
X189313592Y-78043204D01*
X189311018Y-78038323D01*
X188811018Y-77138323D01*
X188809700Y-77136008D01*
X188109700Y-75936008D01*
X188101600Y-75923800D01*
X187503712Y-75126616D01*
X186905670Y-74229553D01*
X186903344Y-74226183D01*
X186404534Y-73527849D01*
X186137301Y-73127000D01*
X224989489Y-73127000D01*
X226150742Y-73320542D01*
X226150742Y-73320542D01*
G37*
X226150742Y-73320542D02*
X227105012Y-73988532D01*
X227679190Y-74945495D01*
X227871566Y-76003564D01*
X227776313Y-76765595D01*
X227393524Y-77626870D01*
X226724768Y-78295626D01*
X225762661Y-78776679D01*
X224984248Y-78873981D01*
X224936460Y-78890038D01*
X224898685Y-78923422D01*
X224876874Y-78968872D01*
X224879517Y-79040161D01*
X225274857Y-80226180D01*
X225371574Y-81290070D01*
X225080731Y-82453442D01*
X224495448Y-83526461D01*
X223717209Y-84401979D01*
X222932690Y-84892304D01*
X222896094Y-84926976D01*
X222875870Y-84973155D01*
X222875205Y-85023564D01*
X222883269Y-85050028D01*
X223176651Y-85734586D01*
X223371497Y-87098507D01*
X223177867Y-88260285D01*
X222593694Y-89428631D01*
X221914560Y-90204785D01*
X220927170Y-90895958D01*
X220892430Y-90932489D01*
X220874640Y-90979659D01*
X220881086Y-91044593D01*
X221177480Y-91834977D01*
X221371319Y-92804174D01*
X221176528Y-94265111D01*
X220790239Y-95134261D01*
X220110194Y-96008604D01*
X218923800Y-96898400D01*
X218890275Y-96936051D01*
X218874040Y-96983778D01*
X218882083Y-97047167D01*
X219275681Y-98031162D01*
X219372296Y-98900699D01*
X219275330Y-99870360D01*
X218788531Y-101136037D01*
X218011496Y-102107332D01*
X216925302Y-102897291D01*
X216891228Y-102934444D01*
X216874292Y-102981928D01*
X216882083Y-103047167D01*
X217078884Y-103539169D01*
X217370758Y-104706666D01*
X217176140Y-106068990D01*
X216788028Y-107136297D01*
X215912807Y-108206012D01*
X214959967Y-108873000D01*
X194153750Y-108873000D01*
X194624715Y-106423984D01*
X194626223Y-106414025D01*
X194826223Y-104614025D01*
X194826370Y-104612637D01*
X194926370Y-103612637D01*
X194927000Y-103600000D01*
X194927000Y-102607904D01*
X195026019Y-101815752D01*
X195027000Y-101800000D01*
X195027000Y-98200000D01*
X195026223Y-98185975D01*
X194927000Y-97292968D01*
X194927000Y-96200000D01*
X194926223Y-96185975D01*
X194826223Y-95285975D01*
X194826019Y-95284248D01*
X194626019Y-93684248D01*
X194624534Y-93675093D01*
X194325226Y-92178553D01*
X194225724Y-91482039D01*
X194225272Y-91479121D01*
X194125272Y-90879121D01*
X194124534Y-90875093D01*
X193924534Y-89875093D01*
X193923208Y-89869198D01*
X193723208Y-89069198D01*
X193721644Y-89063507D01*
X193421896Y-88064347D01*
X193222114Y-87365110D01*
X193220483Y-87359839D01*
X192921089Y-86461657D01*
X192621896Y-85464347D01*
X192422114Y-84765110D01*
X192418914Y-84755407D01*
X191818914Y-83155407D01*
X191813592Y-83143204D01*
X191416576Y-82349171D01*
X191118914Y-81555407D01*
X191113592Y-81543204D01*
X190313592Y-79943204D01*
X190311018Y-79938323D01*
X189812353Y-79040726D01*
X189313592Y-78043204D01*
X189311018Y-78038323D01*
X188811018Y-77138323D01*
X188809700Y-77136008D01*
X188109700Y-75936008D01*
X188101600Y-75923800D01*
X187503712Y-75126616D01*
X186905670Y-74229553D01*
X186903344Y-74226183D01*
X186404534Y-73527849D01*
X186137301Y-73127000D01*
X224989489Y-73127000D01*
X226150742Y-73320542D01*
G36*
X113600830Y-73420664D02*
X113593518Y-73430786D01*
X112293518Y-75430786D01*
X112293032Y-75431540D01*
X110693032Y-77931540D01*
X110686408Y-77943204D01*
X109286408Y-80743204D01*
X109283269Y-80749972D01*
X108083269Y-83549972D01*
X108080240Y-83557732D01*
X106880240Y-86957732D01*
X106876632Y-86969843D01*
X105776632Y-91469843D01*
X105774276Y-91482039D01*
X105174276Y-95682039D01*
X105173404Y-95689872D01*
X104973404Y-98189872D01*
X104973000Y-98200000D01*
X104973000Y-101100000D01*
X104973219Y-101107458D01*
X105073000Y-102803735D01*
X105073000Y-104200000D01*
X105074276Y-104217961D01*
X105274276Y-105617961D01*
X105274728Y-105620879D01*
X105574728Y-107420879D01*
X105575175Y-107423405D01*
X105846974Y-108873000D01*
X85036424Y-108873000D01*
X84279577Y-108399971D01*
X83696182Y-107816576D01*
X83113966Y-107040288D01*
X82823335Y-106168396D01*
X82628147Y-105094862D01*
X82724788Y-104128458D01*
X83119354Y-103043401D01*
X83126836Y-102993547D01*
X83114332Y-102944709D01*
X83068183Y-102892855D01*
X81986742Y-102204665D01*
X81310288Y-101334939D01*
X81018815Y-100654834D01*
X80724737Y-99772601D01*
X80627781Y-98900000D01*
X80724319Y-98031162D01*
X81117917Y-97047167D01*
X81126977Y-96997574D01*
X81116029Y-96948364D01*
X81067310Y-96892304D01*
X80279577Y-96399971D01*
X79697232Y-95817626D01*
X79212237Y-95138633D01*
X78822247Y-94163658D01*
X78628146Y-93193152D01*
X78724986Y-92127914D01*
X79119354Y-91043401D01*
X79126836Y-90993547D01*
X79114332Y-90944709D01*
X79068183Y-90892855D01*
X77986742Y-90204665D01*
X77311258Y-89336186D01*
X76921116Y-88360831D01*
X76628569Y-87190643D01*
X76724961Y-86226727D01*
X77120483Y-85040161D01*
X77126615Y-84990122D01*
X77112797Y-84941640D01*
X77070447Y-84894330D01*
X76180914Y-84301308D01*
X75597231Y-83717625D01*
X75115590Y-83043328D01*
X74823681Y-82070297D01*
X74629288Y-81001136D01*
X74823362Y-80030765D01*
X75121644Y-79036493D01*
X75126258Y-78986292D01*
X75110977Y-78938250D01*
X75078210Y-78899939D01*
X75024907Y-78875466D01*
X74037871Y-78678059D01*
X73367064Y-78390570D01*
X72798903Y-77917102D01*
X72416506Y-77247909D01*
X72127000Y-76379390D01*
X72127000Y-75526067D01*
X72415261Y-74853458D01*
X72798509Y-74086962D01*
X73660745Y-73512138D01*
X74335966Y-73222757D01*
X74910511Y-73127000D01*
X113835761Y-73127000D01*
X113600830Y-73420664D01*
X113600830Y-73420664D01*
G37*
X113600830Y-73420664D02*
X113593518Y-73430786D01*
X112293518Y-75430786D01*
X112293032Y-75431540D01*
X110693032Y-77931540D01*
X110686408Y-77943204D01*
X109286408Y-80743204D01*
X109283269Y-80749972D01*
X108083269Y-83549972D01*
X108080240Y-83557732D01*
X106880240Y-86957732D01*
X106876632Y-86969843D01*
X105776632Y-91469843D01*
X105774276Y-91482039D01*
X105174276Y-95682039D01*
X105173404Y-95689872D01*
X104973404Y-98189872D01*
X104973000Y-98200000D01*
X104973000Y-101100000D01*
X104973219Y-101107458D01*
X105073000Y-102803735D01*
X105073000Y-104200000D01*
X105074276Y-104217961D01*
X105274276Y-105617961D01*
X105274728Y-105620879D01*
X105574728Y-107420879D01*
X105575175Y-107423405D01*
X105846974Y-108873000D01*
X85036424Y-108873000D01*
X84279577Y-108399971D01*
X83696182Y-107816576D01*
X83113966Y-107040288D01*
X82823335Y-106168396D01*
X82628147Y-105094862D01*
X82724788Y-104128458D01*
X83119354Y-103043401D01*
X83126836Y-102993547D01*
X83114332Y-102944709D01*
X83068183Y-102892855D01*
X81986742Y-102204665D01*
X81310288Y-101334939D01*
X81018815Y-100654834D01*
X80724737Y-99772601D01*
X80627781Y-98900000D01*
X80724319Y-98031162D01*
X81117917Y-97047167D01*
X81126977Y-96997574D01*
X81116029Y-96948364D01*
X81067310Y-96892304D01*
X80279577Y-96399971D01*
X79697232Y-95817626D01*
X79212237Y-95138633D01*
X78822247Y-94163658D01*
X78628146Y-93193152D01*
X78724986Y-92127914D01*
X79119354Y-91043401D01*
X79126836Y-90993547D01*
X79114332Y-90944709D01*
X79068183Y-90892855D01*
X77986742Y-90204665D01*
X77311258Y-89336186D01*
X76921116Y-88360831D01*
X76628569Y-87190643D01*
X76724961Y-86226727D01*
X77120483Y-85040161D01*
X77126615Y-84990122D01*
X77112797Y-84941640D01*
X77070447Y-84894330D01*
X76180914Y-84301308D01*
X75597231Y-83717625D01*
X75115590Y-83043328D01*
X74823681Y-82070297D01*
X74629288Y-81001136D01*
X74823362Y-80030765D01*
X75121644Y-79036493D01*
X75126258Y-78986292D01*
X75110977Y-78938250D01*
X75078210Y-78899939D01*
X75024907Y-78875466D01*
X74037871Y-78678059D01*
X73367064Y-78390570D01*
X72798903Y-77917102D01*
X72416506Y-77247909D01*
X72127000Y-76379390D01*
X72127000Y-75526067D01*
X72415261Y-74853458D01*
X72798509Y-74086962D01*
X73660745Y-73512138D01*
X74335966Y-73222757D01*
X74910511Y-73127000D01*
X113835761Y-73127000D01*
X113600830Y-73420664D01*
%LPC*%
D11*
X178535066Y-100000000D02*
G75*
G03X178535066Y-100000000I-28535066J0D01*
G01*
D15*
G36*
X180192442Y-69806612D02*
X180187925Y-69820818D01*
X180180371Y-69843981D01*
X180169894Y-69875768D01*
X180156605Y-69915845D01*
X180140616Y-69963881D01*
X180122039Y-70019543D01*
X180100985Y-70082496D01*
X180077567Y-70152407D01*
X180051896Y-70228946D01*
X180024084Y-70311778D01*
X179994244Y-70400569D01*
X179962486Y-70494988D01*
X179928924Y-70594701D01*
X179893669Y-70699375D01*
X179856832Y-70808677D01*
X179818525Y-70922275D01*
X179778861Y-71039835D01*
X179737952Y-71161024D01*
X179695909Y-71285510D01*
X179652843Y-71412959D01*
X179608868Y-71543039D01*
X179586100Y-71610360D01*
X179541688Y-71741705D01*
X179498122Y-71870614D01*
X179455515Y-71996752D01*
X179413979Y-72119786D01*
X179373628Y-72239381D01*
X179334572Y-72355202D01*
X179296924Y-72466917D01*
X179260797Y-72574189D01*
X179226302Y-72676686D01*
X179193552Y-72774073D01*
X179162659Y-72866016D01*
X179133735Y-72952181D01*
X179106891Y-73032233D01*
X179082242Y-73105838D01*
X179059899Y-73172662D01*
X179039972Y-73232372D01*
X179022577Y-73284632D01*
X179007824Y-73329108D01*
X178995826Y-73365468D01*
X178986694Y-73393375D01*
X178980541Y-73412496D01*
X178977480Y-73422497D01*
X178977144Y-73423975D01*
X178980304Y-73428522D01*
X178989341Y-73440918D01*
X179004039Y-73460876D01*
X179024188Y-73488111D01*
X179049575Y-73522339D01*
X179079986Y-73563275D01*
X179115208Y-73610633D01*
X179155031Y-73664126D01*
X179199238Y-73723472D01*
X179247620Y-73788383D01*
X179299961Y-73858574D01*
X179356051Y-73933762D01*
X179415676Y-74013659D01*
X179478622Y-74097981D01*
X179544677Y-74186442D01*
X179613630Y-74278758D01*
X179685267Y-74374642D01*
X179759375Y-74473810D01*
X179835740Y-74575977D01*
X179914151Y-74680855D01*
X179994395Y-74788163D01*
X180076257Y-74897613D01*
X180101362Y-74931173D01*
X180201413Y-75064915D01*
X180295556Y-75190761D01*
X180383973Y-75308951D01*
X180466840Y-75419725D01*
X180544336Y-75523323D01*
X180616641Y-75619986D01*
X180683932Y-75709953D01*
X180746388Y-75793465D01*
X180804187Y-75870761D01*
X180857510Y-75942082D01*
X180906533Y-76007667D01*
X180951437Y-76067758D01*
X180992398Y-76122594D01*
X181029596Y-76172415D01*
X181063210Y-76217461D01*
X181093417Y-76257973D01*
X181120398Y-76294190D01*
X181144330Y-76326352D01*
X181165392Y-76354700D01*
X181183762Y-76379474D01*
X181199619Y-76400915D01*
X181213143Y-76419261D01*
X181224510Y-76434752D01*
X181233900Y-76447630D01*
X181241493Y-76458134D01*
X181247465Y-76466504D01*
X181251997Y-76472982D01*
X181255266Y-76477805D01*
X181257450Y-76481216D01*
X181258729Y-76483452D01*
X181259282Y-76484756D01*
X181259287Y-76485368D01*
X181258921Y-76485526D01*
X181258366Y-76485470D01*
X181257798Y-76485443D01*
X181257622Y-76485487D01*
X181252334Y-76485534D01*
X181237246Y-76485459D01*
X181212720Y-76485266D01*
X181179114Y-76484960D01*
X181136790Y-76484544D01*
X181086108Y-76484023D01*
X181027427Y-76483400D01*
X180961109Y-76482680D01*
X180887514Y-76481867D01*
X180806999Y-76480965D01*
X180719928Y-76479978D01*
X180626659Y-76478910D01*
X180527553Y-76477765D01*
X180422969Y-76476547D01*
X180313270Y-76475262D01*
X180198813Y-76473911D01*
X180079960Y-76472501D01*
X179957071Y-76471034D01*
X179830506Y-76469515D01*
X179700624Y-76467948D01*
X179567786Y-76466338D01*
X179433531Y-76464701D01*
X179297189Y-76463037D01*
X179163019Y-76461403D01*
X179031402Y-76459804D01*
X178902719Y-76458243D01*
X178777355Y-76456727D01*
X178655692Y-76455259D01*
X178538112Y-76453844D01*
X178424998Y-76452486D01*
X178316733Y-76451189D01*
X178213699Y-76449960D01*
X178116279Y-76448801D01*
X178024855Y-76447718D01*
X177939812Y-76446715D01*
X177861530Y-76445797D01*
X177790392Y-76444967D01*
X177726782Y-76444231D01*
X177671083Y-76443594D01*
X177623675Y-76443059D01*
X177584942Y-76442632D01*
X177555268Y-76442316D01*
X177535035Y-76442117D01*
X177525354Y-76442042D01*
X177437682Y-76441627D01*
X176342100Y-77993308D01*
X176262252Y-78106400D01*
X176183879Y-78217411D01*
X176107185Y-78326051D01*
X176032374Y-78432031D01*
X175959652Y-78535059D01*
X175889222Y-78634847D01*
X175821289Y-78731104D01*
X175756058Y-78823542D01*
X175693732Y-78911868D01*
X175634516Y-78995796D01*
X175578617Y-79075033D01*
X175526235Y-79149289D01*
X175477578Y-79218277D01*
X175432849Y-79281704D01*
X175392254Y-79339283D01*
X175355995Y-79390723D01*
X175324277Y-79435734D01*
X175297306Y-79474024D01*
X175275286Y-79505307D01*
X175258422Y-79529291D01*
X175246916Y-79545686D01*
X175240975Y-79554202D01*
X175240171Y-79555388D01*
X175234292Y-79561997D01*
X175230050Y-79559636D01*
X175228280Y-79554391D01*
X175223594Y-79539781D01*
X175216098Y-79516146D01*
X175205896Y-79483820D01*
X175193094Y-79443142D01*
X175177798Y-79394446D01*
X175160113Y-79338071D01*
X175140143Y-79274354D01*
X175117996Y-79203630D01*
X175093775Y-79126239D01*
X175067586Y-79042514D01*
X175039533Y-78952793D01*
X175009725Y-78857414D01*
X174978264Y-78756714D01*
X174945255Y-78651029D01*
X174910806Y-78540694D01*
X174875021Y-78426049D01*
X174838005Y-78307429D01*
X174799864Y-78185172D01*
X174760701Y-78059614D01*
X174720625Y-77931091D01*
X174679740Y-77799941D01*
X174659317Y-77734422D01*
X174092360Y-75915360D01*
X174063787Y-75905948D01*
X174056878Y-75903766D01*
X174040611Y-75898683D01*
X174015327Y-75890807D01*
X173981375Y-75880244D01*
X173939098Y-75867102D01*
X173888841Y-75851488D01*
X173830951Y-75833507D01*
X173765770Y-75813270D01*
X173693645Y-75790880D01*
X173614920Y-75766447D01*
X173529940Y-75740076D01*
X173439050Y-75711876D01*
X173342597Y-75681953D01*
X173240923Y-75650413D01*
X173134375Y-75617364D01*
X173023297Y-75582914D01*
X172908035Y-75547169D01*
X172788933Y-75510236D01*
X172666337Y-75472222D01*
X172540591Y-75433234D01*
X172412040Y-75393382D01*
X172281030Y-75352767D01*
X172240572Y-75340226D01*
X172109165Y-75299489D01*
X171980244Y-75259515D01*
X171854147Y-75220410D01*
X171731213Y-75182280D01*
X171611777Y-75145229D01*
X171496181Y-75109361D01*
X171384761Y-75074784D01*
X171277856Y-75041601D01*
X171175805Y-75009917D01*
X171078945Y-74979838D01*
X170987616Y-74951468D01*
X170902155Y-74924914D01*
X170822899Y-74900278D01*
X170750190Y-74877669D01*
X170684362Y-74857189D01*
X170625756Y-74838945D01*
X170574708Y-74823041D01*
X170531559Y-74809581D01*
X170496647Y-74798673D01*
X170470308Y-74790420D01*
X170452882Y-74784929D01*
X170444707Y-74782302D01*
X170444094Y-74782081D01*
X170445407Y-74777520D01*
X170447747Y-74774757D01*
X170452247Y-74771452D01*
X170464751Y-74762480D01*
X170484970Y-74748045D01*
X170512615Y-74728353D01*
X170547400Y-74703606D01*
X170589034Y-74674009D01*
X170637231Y-74639768D01*
X170691703Y-74601086D01*
X170752160Y-74558168D01*
X170818314Y-74511218D01*
X170889878Y-74460443D01*
X170966564Y-74406043D01*
X171048082Y-74348226D01*
X171134144Y-74287195D01*
X171224464Y-74223154D01*
X171318752Y-74156310D01*
X171416719Y-74086864D01*
X171518079Y-74015023D01*
X171622542Y-73940989D01*
X171729822Y-73864970D01*
X171839628Y-73787167D01*
X171951674Y-73707787D01*
X172005337Y-73669772D01*
X172118287Y-73589757D01*
X172229114Y-73511246D01*
X172337530Y-73434441D01*
X172443247Y-73359547D01*
X172545980Y-73286765D01*
X172645439Y-73216301D01*
X172741339Y-73148357D01*
X172833392Y-73083137D01*
X172921311Y-73020844D01*
X173004810Y-72961682D01*
X173083600Y-72905853D01*
X173157396Y-72853561D01*
X173225911Y-72805011D01*
X173288856Y-72760404D01*
X173345944Y-72719946D01*
X173396890Y-72683838D01*
X173441405Y-72652286D01*
X173479203Y-72625490D01*
X173509996Y-72603656D01*
X173533498Y-72586986D01*
X173549422Y-72575685D01*
X173557479Y-72569956D01*
X173558469Y-72569244D01*
X173558476Y-72564147D01*
X173558347Y-72549242D01*
X173558088Y-72524881D01*
X173557703Y-72491412D01*
X173557198Y-72449189D01*
X173556576Y-72398561D01*
X173555842Y-72339879D01*
X173555000Y-72273494D01*
X173554055Y-72199757D01*
X173553013Y-72119020D01*
X173551877Y-72031632D01*
X173550651Y-71937945D01*
X173549341Y-71838310D01*
X173547951Y-71733077D01*
X173546486Y-71622599D01*
X173544950Y-71507223D01*
X173543348Y-71387304D01*
X173541685Y-71263191D01*
X173539964Y-71135235D01*
X173538191Y-71003786D01*
X173536369Y-70869197D01*
X173534505Y-70731818D01*
X173533496Y-70657589D01*
X173531180Y-70486799D01*
X173529014Y-70325904D01*
X173526998Y-70174644D01*
X173525129Y-70032755D01*
X173523404Y-69899974D01*
X173521821Y-69776040D01*
X173520377Y-69660691D01*
X173519071Y-69553663D01*
X173517900Y-69454694D01*
X173516862Y-69363522D01*
X173515953Y-69279883D01*
X173515174Y-69203517D01*
X173514519Y-69134160D01*
X173513988Y-69071549D01*
X173513578Y-69015423D01*
X173513287Y-68965519D01*
X173513112Y-68921573D01*
X173513052Y-68883325D01*
X173513103Y-68850511D01*
X173513264Y-68822870D01*
X173513532Y-68800137D01*
X173513904Y-68782052D01*
X173514379Y-68768351D01*
X173514954Y-68758772D01*
X173515627Y-68753053D01*
X173516396Y-68750931D01*
X173516589Y-68750926D01*
X173521282Y-68754218D01*
X173533836Y-68763373D01*
X173553966Y-68778180D01*
X173581389Y-68798426D01*
X173615820Y-68823903D01*
X173656977Y-68854396D01*
X173704574Y-68889696D01*
X173758327Y-68929593D01*
X173817953Y-68973873D01*
X173883168Y-69022327D01*
X173953686Y-69074743D01*
X174029226Y-69130910D01*
X174109502Y-69190617D01*
X174194231Y-69253653D01*
X174283128Y-69319806D01*
X174375909Y-69388865D01*
X174472292Y-69460621D01*
X174571990Y-69534859D01*
X174674721Y-69611371D01*
X174780201Y-69689944D01*
X174888145Y-69770368D01*
X174998269Y-69852431D01*
X175050409Y-69891290D01*
X175161383Y-69973997D01*
X175270274Y-70055145D01*
X175376798Y-70134523D01*
X175480676Y-70211921D01*
X175581624Y-70287129D01*
X175679359Y-70359937D01*
X175773599Y-70430134D01*
X175864064Y-70497511D01*
X175950469Y-70561857D01*
X176032533Y-70622964D01*
X176109973Y-70680619D01*
X176182507Y-70734613D01*
X176249854Y-70784737D01*
X176311730Y-70830779D01*
X176367854Y-70872530D01*
X176417943Y-70909780D01*
X176461715Y-70942319D01*
X176498888Y-70969936D01*
X176529180Y-70992421D01*
X176552307Y-71009565D01*
X176567988Y-71021156D01*
X176575942Y-71026986D01*
X176576931Y-71027676D01*
X176581817Y-71026057D01*
X176595988Y-71021281D01*
X176619114Y-71013459D01*
X176650861Y-71002704D01*
X176690895Y-70989130D01*
X176738883Y-70972850D01*
X176794495Y-70953976D01*
X176857397Y-70932622D01*
X176927255Y-70908902D01*
X177003739Y-70882927D01*
X177086513Y-70854810D01*
X177175247Y-70824666D01*
X177269606Y-70792606D01*
X177369259Y-70758745D01*
X177473874Y-70723194D01*
X177583115Y-70686067D01*
X177696651Y-70647477D01*
X177814151Y-70607537D01*
X177935280Y-70566361D01*
X178059706Y-70524061D01*
X178187097Y-70480749D01*
X178317118Y-70436540D01*
X178384624Y-70413586D01*
X178515875Y-70368964D01*
X178644671Y-70325194D01*
X178770681Y-70282389D01*
X178893571Y-70240659D01*
X179013008Y-70200119D01*
X179128660Y-70160880D01*
X179240192Y-70123057D01*
X179347272Y-70086761D01*
X179449568Y-70052104D01*
X179546746Y-70019200D01*
X179638472Y-69988160D01*
X179724414Y-69959099D01*
X179804239Y-69932128D01*
X179877614Y-69907359D01*
X179944206Y-69884908D01*
X180003681Y-69864883D01*
X180055706Y-69847400D01*
X180099950Y-69832571D01*
X180136078Y-69820507D01*
X180163758Y-69811322D01*
X180182655Y-69805129D01*
X180192439Y-69802040D01*
X180193812Y-69801696D01*
X180192442Y-69806612D01*
X180192442Y-69806612D01*
G37*
X180192442Y-69806612D02*
X180187925Y-69820818D01*
X180180371Y-69843981D01*
X180169894Y-69875768D01*
X180156605Y-69915845D01*
X180140616Y-69963881D01*
X180122039Y-70019543D01*
X180100985Y-70082496D01*
X180077567Y-70152407D01*
X180051896Y-70228946D01*
X180024084Y-70311778D01*
X179994244Y-70400569D01*
X179962486Y-70494988D01*
X179928924Y-70594701D01*
X179893669Y-70699375D01*
X179856832Y-70808677D01*
X179818525Y-70922275D01*
X179778861Y-71039835D01*
X179737952Y-71161024D01*
X179695909Y-71285510D01*
X179652843Y-71412959D01*
X179608868Y-71543039D01*
X179586100Y-71610360D01*
X179541688Y-71741705D01*
X179498122Y-71870614D01*
X179455515Y-71996752D01*
X179413979Y-72119786D01*
X179373628Y-72239381D01*
X179334572Y-72355202D01*
X179296924Y-72466917D01*
X179260797Y-72574189D01*
X179226302Y-72676686D01*
X179193552Y-72774073D01*
X179162659Y-72866016D01*
X179133735Y-72952181D01*
X179106891Y-73032233D01*
X179082242Y-73105838D01*
X179059899Y-73172662D01*
X179039972Y-73232372D01*
X179022577Y-73284632D01*
X179007824Y-73329108D01*
X178995826Y-73365468D01*
X178986694Y-73393375D01*
X178980541Y-73412496D01*
X178977480Y-73422497D01*
X178977144Y-73423975D01*
X178980304Y-73428522D01*
X178989341Y-73440918D01*
X179004039Y-73460876D01*
X179024188Y-73488111D01*
X179049575Y-73522339D01*
X179079986Y-73563275D01*
X179115208Y-73610633D01*
X179155031Y-73664126D01*
X179199238Y-73723472D01*
X179247620Y-73788383D01*
X179299961Y-73858574D01*
X179356051Y-73933762D01*
X179415676Y-74013659D01*
X179478622Y-74097981D01*
X179544677Y-74186442D01*
X179613630Y-74278758D01*
X179685267Y-74374642D01*
X179759375Y-74473810D01*
X179835740Y-74575977D01*
X179914151Y-74680855D01*
X179994395Y-74788163D01*
X180076257Y-74897613D01*
X180101362Y-74931173D01*
X180201413Y-75064915D01*
X180295556Y-75190761D01*
X180383973Y-75308951D01*
X180466840Y-75419725D01*
X180544336Y-75523323D01*
X180616641Y-75619986D01*
X180683932Y-75709953D01*
X180746388Y-75793465D01*
X180804187Y-75870761D01*
X180857510Y-75942082D01*
X180906533Y-76007667D01*
X180951437Y-76067758D01*
X180992398Y-76122594D01*
X181029596Y-76172415D01*
X181063210Y-76217461D01*
X181093417Y-76257973D01*
X181120398Y-76294190D01*
X181144330Y-76326352D01*
X181165392Y-76354700D01*
X181183762Y-76379474D01*
X181199619Y-76400915D01*
X181213143Y-76419261D01*
X181224510Y-76434752D01*
X181233900Y-76447630D01*
X181241493Y-76458134D01*
X181247465Y-76466504D01*
X181251997Y-76472982D01*
X181255266Y-76477805D01*
X181257450Y-76481216D01*
X181258729Y-76483452D01*
X181259282Y-76484756D01*
X181259287Y-76485368D01*
X181258921Y-76485526D01*
X181258366Y-76485470D01*
X181257798Y-76485443D01*
X181257622Y-76485487D01*
X181252334Y-76485534D01*
X181237246Y-76485459D01*
X181212720Y-76485266D01*
X181179114Y-76484960D01*
X181136790Y-76484544D01*
X181086108Y-76484023D01*
X181027427Y-76483400D01*
X180961109Y-76482680D01*
X180887514Y-76481867D01*
X180806999Y-76480965D01*
X180719928Y-76479978D01*
X180626659Y-76478910D01*
X180527553Y-76477765D01*
X180422969Y-76476547D01*
X180313270Y-76475262D01*
X180198813Y-76473911D01*
X180079960Y-76472501D01*
X179957071Y-76471034D01*
X179830506Y-76469515D01*
X179700624Y-76467948D01*
X179567786Y-76466338D01*
X179433531Y-76464701D01*
X179297189Y-76463037D01*
X179163019Y-76461403D01*
X179031402Y-76459804D01*
X178902719Y-76458243D01*
X178777355Y-76456727D01*
X178655692Y-76455259D01*
X178538112Y-76453844D01*
X178424998Y-76452486D01*
X178316733Y-76451189D01*
X178213699Y-76449960D01*
X178116279Y-76448801D01*
X178024855Y-76447718D01*
X177939812Y-76446715D01*
X177861530Y-76445797D01*
X177790392Y-76444967D01*
X177726782Y-76444231D01*
X177671083Y-76443594D01*
X177623675Y-76443059D01*
X177584942Y-76442632D01*
X177555268Y-76442316D01*
X177535035Y-76442117D01*
X177525354Y-76442042D01*
X177437682Y-76441627D01*
X176342100Y-77993308D01*
X176262252Y-78106400D01*
X176183879Y-78217411D01*
X176107185Y-78326051D01*
X176032374Y-78432031D01*
X175959652Y-78535059D01*
X175889222Y-78634847D01*
X175821289Y-78731104D01*
X175756058Y-78823542D01*
X175693732Y-78911868D01*
X175634516Y-78995796D01*
X175578617Y-79075033D01*
X175526235Y-79149289D01*
X175477578Y-79218277D01*
X175432849Y-79281704D01*
X175392254Y-79339283D01*
X175355995Y-79390723D01*
X175324277Y-79435734D01*
X175297306Y-79474024D01*
X175275286Y-79505307D01*
X175258422Y-79529291D01*
X175246916Y-79545686D01*
X175240975Y-79554202D01*
X175240171Y-79555388D01*
X175234292Y-79561997D01*
X175230050Y-79559636D01*
X175228280Y-79554391D01*
X175223594Y-79539781D01*
X175216098Y-79516146D01*
X175205896Y-79483820D01*
X175193094Y-79443142D01*
X175177798Y-79394446D01*
X175160113Y-79338071D01*
X175140143Y-79274354D01*
X175117996Y-79203630D01*
X175093775Y-79126239D01*
X175067586Y-79042514D01*
X175039533Y-78952793D01*
X175009725Y-78857414D01*
X174978264Y-78756714D01*
X174945255Y-78651029D01*
X174910806Y-78540694D01*
X174875021Y-78426049D01*
X174838005Y-78307429D01*
X174799864Y-78185172D01*
X174760701Y-78059614D01*
X174720625Y-77931091D01*
X174679740Y-77799941D01*
X174659317Y-77734422D01*
X174092360Y-75915360D01*
X174063787Y-75905948D01*
X174056878Y-75903766D01*
X174040611Y-75898683D01*
X174015327Y-75890807D01*
X173981375Y-75880244D01*
X173939098Y-75867102D01*
X173888841Y-75851488D01*
X173830951Y-75833507D01*
X173765770Y-75813270D01*
X173693645Y-75790880D01*
X173614920Y-75766447D01*
X173529940Y-75740076D01*
X173439050Y-75711876D01*
X173342597Y-75681953D01*
X173240923Y-75650413D01*
X173134375Y-75617364D01*
X173023297Y-75582914D01*
X172908035Y-75547169D01*
X172788933Y-75510236D01*
X172666337Y-75472222D01*
X172540591Y-75433234D01*
X172412040Y-75393382D01*
X172281030Y-75352767D01*
X172240572Y-75340226D01*
X172109165Y-75299489D01*
X171980244Y-75259515D01*
X171854147Y-75220410D01*
X171731213Y-75182280D01*
X171611777Y-75145229D01*
X171496181Y-75109361D01*
X171384761Y-75074784D01*
X171277856Y-75041601D01*
X171175805Y-75009917D01*
X171078945Y-74979838D01*
X170987616Y-74951468D01*
X170902155Y-74924914D01*
X170822899Y-74900278D01*
X170750190Y-74877669D01*
X170684362Y-74857189D01*
X170625756Y-74838945D01*
X170574708Y-74823041D01*
X170531559Y-74809581D01*
X170496647Y-74798673D01*
X170470308Y-74790420D01*
X170452882Y-74784929D01*
X170444707Y-74782302D01*
X170444094Y-74782081D01*
X170445407Y-74777520D01*
X170447747Y-74774757D01*
X170452247Y-74771452D01*
X170464751Y-74762480D01*
X170484970Y-74748045D01*
X170512615Y-74728353D01*
X170547400Y-74703606D01*
X170589034Y-74674009D01*
X170637231Y-74639768D01*
X170691703Y-74601086D01*
X170752160Y-74558168D01*
X170818314Y-74511218D01*
X170889878Y-74460443D01*
X170966564Y-74406043D01*
X171048082Y-74348226D01*
X171134144Y-74287195D01*
X171224464Y-74223154D01*
X171318752Y-74156310D01*
X171416719Y-74086864D01*
X171518079Y-74015023D01*
X171622542Y-73940989D01*
X171729822Y-73864970D01*
X171839628Y-73787167D01*
X171951674Y-73707787D01*
X172005337Y-73669772D01*
X172118287Y-73589757D01*
X172229114Y-73511246D01*
X172337530Y-73434441D01*
X172443247Y-73359547D01*
X172545980Y-73286765D01*
X172645439Y-73216301D01*
X172741339Y-73148357D01*
X172833392Y-73083137D01*
X172921311Y-73020844D01*
X173004810Y-72961682D01*
X173083600Y-72905853D01*
X173157396Y-72853561D01*
X173225911Y-72805011D01*
X173288856Y-72760404D01*
X173345944Y-72719946D01*
X173396890Y-72683838D01*
X173441405Y-72652286D01*
X173479203Y-72625490D01*
X173509996Y-72603656D01*
X173533498Y-72586986D01*
X173549422Y-72575685D01*
X173557479Y-72569956D01*
X173558469Y-72569244D01*
X173558476Y-72564147D01*
X173558347Y-72549242D01*
X173558088Y-72524881D01*
X173557703Y-72491412D01*
X173557198Y-72449189D01*
X173556576Y-72398561D01*
X173555842Y-72339879D01*
X173555000Y-72273494D01*
X173554055Y-72199757D01*
X173553013Y-72119020D01*
X173551877Y-72031632D01*
X173550651Y-71937945D01*
X173549341Y-71838310D01*
X173547951Y-71733077D01*
X173546486Y-71622599D01*
X173544950Y-71507223D01*
X173543348Y-71387304D01*
X173541685Y-71263191D01*
X173539964Y-71135235D01*
X173538191Y-71003786D01*
X173536369Y-70869197D01*
X173534505Y-70731818D01*
X173533496Y-70657589D01*
X173531180Y-70486799D01*
X173529014Y-70325904D01*
X173526998Y-70174644D01*
X173525129Y-70032755D01*
X173523404Y-69899974D01*
X173521821Y-69776040D01*
X173520377Y-69660691D01*
X173519071Y-69553663D01*
X173517900Y-69454694D01*
X173516862Y-69363522D01*
X173515953Y-69279883D01*
X173515174Y-69203517D01*
X173514519Y-69134160D01*
X173513988Y-69071549D01*
X173513578Y-69015423D01*
X173513287Y-68965519D01*
X173513112Y-68921573D01*
X173513052Y-68883325D01*
X173513103Y-68850511D01*
X173513264Y-68822870D01*
X173513532Y-68800137D01*
X173513904Y-68782052D01*
X173514379Y-68768351D01*
X173514954Y-68758772D01*
X173515627Y-68753053D01*
X173516396Y-68750931D01*
X173516589Y-68750926D01*
X173521282Y-68754218D01*
X173533836Y-68763373D01*
X173553966Y-68778180D01*
X173581389Y-68798426D01*
X173615820Y-68823903D01*
X173656977Y-68854396D01*
X173704574Y-68889696D01*
X173758327Y-68929593D01*
X173817953Y-68973873D01*
X173883168Y-69022327D01*
X173953686Y-69074743D01*
X174029226Y-69130910D01*
X174109502Y-69190617D01*
X174194231Y-69253653D01*
X174283128Y-69319806D01*
X174375909Y-69388865D01*
X174472292Y-69460621D01*
X174571990Y-69534859D01*
X174674721Y-69611371D01*
X174780201Y-69689944D01*
X174888145Y-69770368D01*
X174998269Y-69852431D01*
X175050409Y-69891290D01*
X175161383Y-69973997D01*
X175270274Y-70055145D01*
X175376798Y-70134523D01*
X175480676Y-70211921D01*
X175581624Y-70287129D01*
X175679359Y-70359937D01*
X175773599Y-70430134D01*
X175864064Y-70497511D01*
X175950469Y-70561857D01*
X176032533Y-70622964D01*
X176109973Y-70680619D01*
X176182507Y-70734613D01*
X176249854Y-70784737D01*
X176311730Y-70830779D01*
X176367854Y-70872530D01*
X176417943Y-70909780D01*
X176461715Y-70942319D01*
X176498888Y-70969936D01*
X176529180Y-70992421D01*
X176552307Y-71009565D01*
X176567988Y-71021156D01*
X176575942Y-71026986D01*
X176576931Y-71027676D01*
X176581817Y-71026057D01*
X176595988Y-71021281D01*
X176619114Y-71013459D01*
X176650861Y-71002704D01*
X176690895Y-70989130D01*
X176738883Y-70972850D01*
X176794495Y-70953976D01*
X176857397Y-70932622D01*
X176927255Y-70908902D01*
X177003739Y-70882927D01*
X177086513Y-70854810D01*
X177175247Y-70824666D01*
X177269606Y-70792606D01*
X177369259Y-70758745D01*
X177473874Y-70723194D01*
X177583115Y-70686067D01*
X177696651Y-70647477D01*
X177814151Y-70607537D01*
X177935280Y-70566361D01*
X178059706Y-70524061D01*
X178187097Y-70480749D01*
X178317118Y-70436540D01*
X178384624Y-70413586D01*
X178515875Y-70368964D01*
X178644671Y-70325194D01*
X178770681Y-70282389D01*
X178893571Y-70240659D01*
X179013008Y-70200119D01*
X179128660Y-70160880D01*
X179240192Y-70123057D01*
X179347272Y-70086761D01*
X179449568Y-70052104D01*
X179546746Y-70019200D01*
X179638472Y-69988160D01*
X179724414Y-69959099D01*
X179804239Y-69932128D01*
X179877614Y-69907359D01*
X179944206Y-69884908D01*
X180003681Y-69864883D01*
X180055706Y-69847400D01*
X180099950Y-69832571D01*
X180136078Y-69820507D01*
X180163758Y-69811322D01*
X180182655Y-69805129D01*
X180192439Y-69802040D01*
X180193812Y-69801696D01*
X180192442Y-69806612D01*
G36*
X192699230Y-99999331D02*
X192685991Y-100006182D01*
X192664271Y-100017220D01*
X192634386Y-100032288D01*
X192596650Y-100051230D01*
X192551378Y-100073891D01*
X192498883Y-100100113D01*
X192439481Y-100129740D01*
X192373487Y-100162616D01*
X192301214Y-100198585D01*
X192222977Y-100237490D01*
X192139092Y-100279175D01*
X192049872Y-100323483D01*
X191955632Y-100370259D01*
X191856687Y-100419345D01*
X191753351Y-100470586D01*
X191645938Y-100523825D01*
X191534764Y-100578906D01*
X191420143Y-100635672D01*
X191302389Y-100693968D01*
X191181817Y-100753636D01*
X191058742Y-100814521D01*
X190995040Y-100846025D01*
X190870760Y-100907496D01*
X190748802Y-100967842D01*
X190629481Y-101026908D01*
X190513113Y-101084536D01*
X190400014Y-101140570D01*
X190290499Y-101194851D01*
X190184884Y-101247224D01*
X190083485Y-101297531D01*
X189986617Y-101345616D01*
X189894596Y-101391321D01*
X189807738Y-101434490D01*
X189726358Y-101474965D01*
X189650771Y-101512589D01*
X189581295Y-101547206D01*
X189518244Y-101578659D01*
X189461933Y-101606790D01*
X189412679Y-101631443D01*
X189370798Y-101652461D01*
X189336604Y-101669687D01*
X189310413Y-101682963D01*
X189292542Y-101692133D01*
X189283306Y-101697040D01*
X189282023Y-101697848D01*
X189281042Y-101703297D01*
X189278667Y-101718452D01*
X189274948Y-101742958D01*
X189269937Y-101776464D01*
X189263685Y-101818618D01*
X189256243Y-101869068D01*
X189247662Y-101927461D01*
X189237995Y-101993445D01*
X189227291Y-102066668D01*
X189215603Y-102146778D01*
X189202981Y-102233422D01*
X189189477Y-102326249D01*
X189175142Y-102424906D01*
X189160027Y-102529040D01*
X189144184Y-102638300D01*
X189127664Y-102752334D01*
X189110518Y-102870789D01*
X189092798Y-102993314D01*
X189074554Y-103119555D01*
X189055838Y-103249160D01*
X189036701Y-103381779D01*
X189017194Y-103517057D01*
X189011215Y-103558540D01*
X188987392Y-103723856D01*
X188964975Y-103879412D01*
X188943922Y-104025505D01*
X188924189Y-104162430D01*
X188905732Y-104290483D01*
X188888508Y-104409961D01*
X188872474Y-104521159D01*
X188857585Y-104624374D01*
X188843799Y-104719901D01*
X188831072Y-104808037D01*
X188819361Y-104889078D01*
X188808622Y-104963320D01*
X188798811Y-105031059D01*
X188789885Y-105092591D01*
X188781801Y-105148212D01*
X188774515Y-105198218D01*
X188767984Y-105242905D01*
X188762164Y-105282570D01*
X188757012Y-105317508D01*
X188752484Y-105348016D01*
X188748536Y-105374389D01*
X188745126Y-105396924D01*
X188742210Y-105415916D01*
X188739744Y-105431662D01*
X188737685Y-105444458D01*
X188735989Y-105454600D01*
X188734613Y-105462385D01*
X188733514Y-105468107D01*
X188732647Y-105472063D01*
X188731970Y-105474549D01*
X188731439Y-105475862D01*
X188731010Y-105476298D01*
X188730640Y-105476151D01*
X188730286Y-105475719D01*
X188729904Y-105475298D01*
X188729749Y-105475205D01*
X188725976Y-105471499D01*
X188715360Y-105460777D01*
X188698154Y-105443298D01*
X188674608Y-105419319D01*
X188644974Y-105389097D01*
X188609505Y-105352891D01*
X188568452Y-105310957D01*
X188522067Y-105263554D01*
X188470602Y-105210939D01*
X188414307Y-105153369D01*
X188353437Y-105091102D01*
X188288241Y-105024396D01*
X188218972Y-104953508D01*
X188145881Y-104878695D01*
X188069221Y-104800217D01*
X187989243Y-104718329D01*
X187906198Y-104633290D01*
X187820340Y-104545357D01*
X187731919Y-104454787D01*
X187641187Y-104361839D01*
X187548395Y-104266770D01*
X187454619Y-104170680D01*
X187359388Y-104073095D01*
X187265671Y-103977067D01*
X187173734Y-103882869D01*
X187083845Y-103790773D01*
X186996271Y-103701055D01*
X186911280Y-103613988D01*
X186829140Y-103529846D01*
X186750116Y-103448902D01*
X186674478Y-103371430D01*
X186602491Y-103297705D01*
X186534424Y-103227999D01*
X186470544Y-103162587D01*
X186411118Y-103101743D01*
X186356414Y-103045740D01*
X186306699Y-102994851D01*
X186262240Y-102949352D01*
X186223305Y-102909516D01*
X186190161Y-102875615D01*
X186163075Y-102847925D01*
X186142315Y-102826719D01*
X186128149Y-102812271D01*
X186121357Y-102805373D01*
X186059657Y-102743086D01*
X184187759Y-103065596D01*
X184051330Y-103089103D01*
X183917415Y-103112182D01*
X183786364Y-103134771D01*
X183658526Y-103156811D01*
X183534252Y-103178241D01*
X183413889Y-103199000D01*
X183297789Y-103219028D01*
X183186301Y-103238266D01*
X183079773Y-103256651D01*
X182978556Y-103274125D01*
X182883000Y-103290627D01*
X182793453Y-103306095D01*
X182710266Y-103320471D01*
X182633788Y-103333693D01*
X182564368Y-103345702D01*
X182502356Y-103356436D01*
X182448101Y-103365836D01*
X182401954Y-103373840D01*
X182364263Y-103380390D01*
X182335379Y-103385424D01*
X182315650Y-103388881D01*
X182305427Y-103390702D01*
X182304020Y-103390972D01*
X182295190Y-103391489D01*
X182293860Y-103386819D01*
X182296317Y-103381859D01*
X182303334Y-103368215D01*
X182314746Y-103346202D01*
X182330390Y-103316130D01*
X182350102Y-103278314D01*
X182373719Y-103233065D01*
X182401077Y-103180697D01*
X182432011Y-103121521D01*
X182466360Y-103055851D01*
X182503957Y-102984000D01*
X182544641Y-102906279D01*
X182588247Y-102823001D01*
X182634612Y-102734480D01*
X182683572Y-102641028D01*
X182734962Y-102542957D01*
X182788621Y-102440579D01*
X182844383Y-102334209D01*
X182902086Y-102224158D01*
X182961565Y-102110739D01*
X183022656Y-101994264D01*
X183085197Y-101875046D01*
X183149024Y-101753399D01*
X183180912Y-101692629D01*
X184066284Y-100005459D01*
X184052735Y-99978599D01*
X184049393Y-99972171D01*
X184041484Y-99957074D01*
X184029175Y-99933627D01*
X184012636Y-99902150D01*
X183992035Y-99862963D01*
X183967539Y-99816385D01*
X183939318Y-99762736D01*
X183907538Y-99702336D01*
X183872370Y-99635504D01*
X183833980Y-99562560D01*
X183792537Y-99483823D01*
X183748209Y-99399614D01*
X183701165Y-99310252D01*
X183651573Y-99216056D01*
X183599601Y-99117346D01*
X183545417Y-99014442D01*
X183489190Y-98907664D01*
X183431088Y-98797331D01*
X183371279Y-98683762D01*
X183309932Y-98567278D01*
X183247213Y-98448199D01*
X183183293Y-98326842D01*
X183163553Y-98289366D01*
X183099440Y-98167642D01*
X183036545Y-98048215D01*
X182975032Y-97931400D01*
X182915066Y-97817510D01*
X182856812Y-97706857D01*
X182800435Y-97599756D01*
X182746099Y-97496520D01*
X182693970Y-97397463D01*
X182644213Y-97302898D01*
X182596992Y-97213139D01*
X182552473Y-97128499D01*
X182510819Y-97049292D01*
X182472197Y-96975830D01*
X182436771Y-96908429D01*
X182404705Y-96847400D01*
X182376165Y-96793059D01*
X182351315Y-96745717D01*
X182330321Y-96705689D01*
X182313348Y-96673289D01*
X182300559Y-96648829D01*
X182292120Y-96632624D01*
X182288197Y-96624986D01*
X182287920Y-96624396D01*
X182292073Y-96622099D01*
X182295681Y-96621800D01*
X182301200Y-96622645D01*
X182316386Y-96625143D01*
X182340890Y-96629233D01*
X182374363Y-96634856D01*
X182416458Y-96641954D01*
X182466826Y-96650466D01*
X182525119Y-96660334D01*
X182590988Y-96671499D01*
X182664085Y-96683901D01*
X182744062Y-96697481D01*
X182830569Y-96712180D01*
X182923260Y-96727939D01*
X183021785Y-96744698D01*
X183125796Y-96762398D01*
X183234945Y-96780980D01*
X183348883Y-96800385D01*
X183467262Y-96820553D01*
X183589734Y-96841426D01*
X183715950Y-96862943D01*
X183845562Y-96885047D01*
X183978222Y-96907677D01*
X184113580Y-96930775D01*
X184178406Y-96941840D01*
X184314853Y-96965129D01*
X184448735Y-96987980D01*
X184579706Y-97010332D01*
X184707418Y-97032127D01*
X184831525Y-97053306D01*
X184951679Y-97073808D01*
X185067534Y-97093576D01*
X185178743Y-97112550D01*
X185284959Y-97130670D01*
X185385836Y-97147879D01*
X185481026Y-97164115D01*
X185570183Y-97179321D01*
X185652961Y-97193438D01*
X185729011Y-97206405D01*
X185797987Y-97218164D01*
X185859543Y-97228656D01*
X185913331Y-97237822D01*
X185959006Y-97245602D01*
X185996219Y-97251937D01*
X186024624Y-97256768D01*
X186043875Y-97260037D01*
X186053624Y-97261683D01*
X186054827Y-97261880D01*
X186058436Y-97258280D01*
X186068884Y-97247650D01*
X186085927Y-97230241D01*
X186109321Y-97206303D01*
X186138820Y-97176089D01*
X186174180Y-97139850D01*
X186215155Y-97097836D01*
X186261501Y-97050300D01*
X186312973Y-96997492D01*
X186369326Y-96939665D01*
X186430315Y-96877069D01*
X186495695Y-96809956D01*
X186565221Y-96738577D01*
X186638649Y-96663183D01*
X186715733Y-96584027D01*
X186796230Y-96501358D01*
X186879893Y-96415430D01*
X186966478Y-96326492D01*
X187055740Y-96234797D01*
X187147434Y-96140595D01*
X187241315Y-96044138D01*
X187337139Y-95945678D01*
X187388913Y-95892477D01*
X187508042Y-95770072D01*
X187620280Y-95654771D01*
X187725812Y-95546388D01*
X187824821Y-95444736D01*
X187917491Y-95349626D01*
X188004006Y-95260872D01*
X188084549Y-95178287D01*
X188159306Y-95101683D01*
X188228460Y-95030873D01*
X188292194Y-94965671D01*
X188350693Y-94905887D01*
X188404141Y-94851337D01*
X188452721Y-94801831D01*
X188496618Y-94757183D01*
X188536016Y-94717206D01*
X188571097Y-94681713D01*
X188602048Y-94650515D01*
X188629051Y-94623427D01*
X188652290Y-94600260D01*
X188671949Y-94580828D01*
X188688213Y-94564943D01*
X188701264Y-94552418D01*
X188711288Y-94543066D01*
X188718468Y-94536699D01*
X188722988Y-94533131D01*
X188725032Y-94532174D01*
X188725172Y-94532307D01*
X188726163Y-94537954D01*
X188728566Y-94553304D01*
X188732330Y-94578008D01*
X188737405Y-94611716D01*
X188743737Y-94654077D01*
X188751277Y-94704741D01*
X188759972Y-94763358D01*
X188769770Y-94829578D01*
X188780621Y-94903051D01*
X188792473Y-94983427D01*
X188805273Y-95070355D01*
X188818972Y-95163486D01*
X188833516Y-95262469D01*
X188848856Y-95366954D01*
X188864938Y-95476591D01*
X188881712Y-95591030D01*
X188899126Y-95709921D01*
X188917129Y-95832913D01*
X188935669Y-95959657D01*
X188954695Y-96089802D01*
X188974154Y-96222998D01*
X188993996Y-96358895D01*
X189003387Y-96423241D01*
X189023375Y-96560194D01*
X189042992Y-96694572D01*
X189062188Y-96826025D01*
X189080912Y-96954206D01*
X189099113Y-97078767D01*
X189116739Y-97199359D01*
X189133740Y-97315634D01*
X189150065Y-97427245D01*
X189165663Y-97533842D01*
X189180482Y-97635079D01*
X189194472Y-97730606D01*
X189207582Y-97820075D01*
X189219761Y-97903139D01*
X189230957Y-97979449D01*
X189241120Y-98048657D01*
X189250199Y-98110415D01*
X189258142Y-98164375D01*
X189264899Y-98210188D01*
X189270419Y-98247507D01*
X189274650Y-98275983D01*
X189277542Y-98295268D01*
X189279044Y-98305014D01*
X189279255Y-98306201D01*
X189283855Y-98308512D01*
X189297253Y-98315155D01*
X189319136Y-98325976D01*
X189349189Y-98340820D01*
X189387096Y-98359530D01*
X189432541Y-98381951D01*
X189485210Y-98407929D01*
X189544788Y-98437308D01*
X189610958Y-98469932D01*
X189683407Y-98505647D01*
X189761819Y-98544296D01*
X189845878Y-98585725D01*
X189935270Y-98629777D01*
X190029679Y-98676299D01*
X190128791Y-98725134D01*
X190232289Y-98776127D01*
X190339858Y-98829122D01*
X190451185Y-98883965D01*
X190565952Y-98940500D01*
X190683845Y-98998572D01*
X190804550Y-99058025D01*
X190927750Y-99118703D01*
X190991715Y-99150206D01*
X191116075Y-99211462D01*
X191238098Y-99271585D01*
X191357468Y-99330419D01*
X191473872Y-99387808D01*
X191586993Y-99443597D01*
X191696517Y-99497629D01*
X191802127Y-99549749D01*
X191903510Y-99599801D01*
X192000350Y-99647629D01*
X192092332Y-99693077D01*
X192179140Y-99735989D01*
X192260460Y-99776210D01*
X192335976Y-99813583D01*
X192405374Y-99847953D01*
X192468337Y-99879165D01*
X192524552Y-99907061D01*
X192573702Y-99931486D01*
X192615473Y-99952285D01*
X192649550Y-99969301D01*
X192675617Y-99982379D01*
X192693359Y-99991362D01*
X192702461Y-99996096D01*
X192703675Y-99996824D01*
X192699230Y-99999331D01*
X192699230Y-99999331D01*
G37*
X192699230Y-99999331D02*
X192685991Y-100006182D01*
X192664271Y-100017220D01*
X192634386Y-100032288D01*
X192596650Y-100051230D01*
X192551378Y-100073891D01*
X192498883Y-100100113D01*
X192439481Y-100129740D01*
X192373487Y-100162616D01*
X192301214Y-100198585D01*
X192222977Y-100237490D01*
X192139092Y-100279175D01*
X192049872Y-100323483D01*
X191955632Y-100370259D01*
X191856687Y-100419345D01*
X191753351Y-100470586D01*
X191645938Y-100523825D01*
X191534764Y-100578906D01*
X191420143Y-100635672D01*
X191302389Y-100693968D01*
X191181817Y-100753636D01*
X191058742Y-100814521D01*
X190995040Y-100846025D01*
X190870760Y-100907496D01*
X190748802Y-100967842D01*
X190629481Y-101026908D01*
X190513113Y-101084536D01*
X190400014Y-101140570D01*
X190290499Y-101194851D01*
X190184884Y-101247224D01*
X190083485Y-101297531D01*
X189986617Y-101345616D01*
X189894596Y-101391321D01*
X189807738Y-101434490D01*
X189726358Y-101474965D01*
X189650771Y-101512589D01*
X189581295Y-101547206D01*
X189518244Y-101578659D01*
X189461933Y-101606790D01*
X189412679Y-101631443D01*
X189370798Y-101652461D01*
X189336604Y-101669687D01*
X189310413Y-101682963D01*
X189292542Y-101692133D01*
X189283306Y-101697040D01*
X189282023Y-101697848D01*
X189281042Y-101703297D01*
X189278667Y-101718452D01*
X189274948Y-101742958D01*
X189269937Y-101776464D01*
X189263685Y-101818618D01*
X189256243Y-101869068D01*
X189247662Y-101927461D01*
X189237995Y-101993445D01*
X189227291Y-102066668D01*
X189215603Y-102146778D01*
X189202981Y-102233422D01*
X189189477Y-102326249D01*
X189175142Y-102424906D01*
X189160027Y-102529040D01*
X189144184Y-102638300D01*
X189127664Y-102752334D01*
X189110518Y-102870789D01*
X189092798Y-102993314D01*
X189074554Y-103119555D01*
X189055838Y-103249160D01*
X189036701Y-103381779D01*
X189017194Y-103517057D01*
X189011215Y-103558540D01*
X188987392Y-103723856D01*
X188964975Y-103879412D01*
X188943922Y-104025505D01*
X188924189Y-104162430D01*
X188905732Y-104290483D01*
X188888508Y-104409961D01*
X188872474Y-104521159D01*
X188857585Y-104624374D01*
X188843799Y-104719901D01*
X188831072Y-104808037D01*
X188819361Y-104889078D01*
X188808622Y-104963320D01*
X188798811Y-105031059D01*
X188789885Y-105092591D01*
X188781801Y-105148212D01*
X188774515Y-105198218D01*
X188767984Y-105242905D01*
X188762164Y-105282570D01*
X188757012Y-105317508D01*
X188752484Y-105348016D01*
X188748536Y-105374389D01*
X188745126Y-105396924D01*
X188742210Y-105415916D01*
X188739744Y-105431662D01*
X188737685Y-105444458D01*
X188735989Y-105454600D01*
X188734613Y-105462385D01*
X188733514Y-105468107D01*
X188732647Y-105472063D01*
X188731970Y-105474549D01*
X188731439Y-105475862D01*
X188731010Y-105476298D01*
X188730640Y-105476151D01*
X188730286Y-105475719D01*
X188729904Y-105475298D01*
X188729749Y-105475205D01*
X188725976Y-105471499D01*
X188715360Y-105460777D01*
X188698154Y-105443298D01*
X188674608Y-105419319D01*
X188644974Y-105389097D01*
X188609505Y-105352891D01*
X188568452Y-105310957D01*
X188522067Y-105263554D01*
X188470602Y-105210939D01*
X188414307Y-105153369D01*
X188353437Y-105091102D01*
X188288241Y-105024396D01*
X188218972Y-104953508D01*
X188145881Y-104878695D01*
X188069221Y-104800217D01*
X187989243Y-104718329D01*
X187906198Y-104633290D01*
X187820340Y-104545357D01*
X187731919Y-104454787D01*
X187641187Y-104361839D01*
X187548395Y-104266770D01*
X187454619Y-104170680D01*
X187359388Y-104073095D01*
X187265671Y-103977067D01*
X187173734Y-103882869D01*
X187083845Y-103790773D01*
X186996271Y-103701055D01*
X186911280Y-103613988D01*
X186829140Y-103529846D01*
X186750116Y-103448902D01*
X186674478Y-103371430D01*
X186602491Y-103297705D01*
X186534424Y-103227999D01*
X186470544Y-103162587D01*
X186411118Y-103101743D01*
X186356414Y-103045740D01*
X186306699Y-102994851D01*
X186262240Y-102949352D01*
X186223305Y-102909516D01*
X186190161Y-102875615D01*
X186163075Y-102847925D01*
X186142315Y-102826719D01*
X186128149Y-102812271D01*
X186121357Y-102805373D01*
X186059657Y-102743086D01*
X184187759Y-103065596D01*
X184051330Y-103089103D01*
X183917415Y-103112182D01*
X183786364Y-103134771D01*
X183658526Y-103156811D01*
X183534252Y-103178241D01*
X183413889Y-103199000D01*
X183297789Y-103219028D01*
X183186301Y-103238266D01*
X183079773Y-103256651D01*
X182978556Y-103274125D01*
X182883000Y-103290627D01*
X182793453Y-103306095D01*
X182710266Y-103320471D01*
X182633788Y-103333693D01*
X182564368Y-103345702D01*
X182502356Y-103356436D01*
X182448101Y-103365836D01*
X182401954Y-103373840D01*
X182364263Y-103380390D01*
X182335379Y-103385424D01*
X182315650Y-103388881D01*
X182305427Y-103390702D01*
X182304020Y-103390972D01*
X182295190Y-103391489D01*
X182293860Y-103386819D01*
X182296317Y-103381859D01*
X182303334Y-103368215D01*
X182314746Y-103346202D01*
X182330390Y-103316130D01*
X182350102Y-103278314D01*
X182373719Y-103233065D01*
X182401077Y-103180697D01*
X182432011Y-103121521D01*
X182466360Y-103055851D01*
X182503957Y-102984000D01*
X182544641Y-102906279D01*
X182588247Y-102823001D01*
X182634612Y-102734480D01*
X182683572Y-102641028D01*
X182734962Y-102542957D01*
X182788621Y-102440579D01*
X182844383Y-102334209D01*
X182902086Y-102224158D01*
X182961565Y-102110739D01*
X183022656Y-101994264D01*
X183085197Y-101875046D01*
X183149024Y-101753399D01*
X183180912Y-101692629D01*
X184066284Y-100005459D01*
X184052735Y-99978599D01*
X184049393Y-99972171D01*
X184041484Y-99957074D01*
X184029175Y-99933627D01*
X184012636Y-99902150D01*
X183992035Y-99862963D01*
X183967539Y-99816385D01*
X183939318Y-99762736D01*
X183907538Y-99702336D01*
X183872370Y-99635504D01*
X183833980Y-99562560D01*
X183792537Y-99483823D01*
X183748209Y-99399614D01*
X183701165Y-99310252D01*
X183651573Y-99216056D01*
X183599601Y-99117346D01*
X183545417Y-99014442D01*
X183489190Y-98907664D01*
X183431088Y-98797331D01*
X183371279Y-98683762D01*
X183309932Y-98567278D01*
X183247213Y-98448199D01*
X183183293Y-98326842D01*
X183163553Y-98289366D01*
X183099440Y-98167642D01*
X183036545Y-98048215D01*
X182975032Y-97931400D01*
X182915066Y-97817510D01*
X182856812Y-97706857D01*
X182800435Y-97599756D01*
X182746099Y-97496520D01*
X182693970Y-97397463D01*
X182644213Y-97302898D01*
X182596992Y-97213139D01*
X182552473Y-97128499D01*
X182510819Y-97049292D01*
X182472197Y-96975830D01*
X182436771Y-96908429D01*
X182404705Y-96847400D01*
X182376165Y-96793059D01*
X182351315Y-96745717D01*
X182330321Y-96705689D01*
X182313348Y-96673289D01*
X182300559Y-96648829D01*
X182292120Y-96632624D01*
X182288197Y-96624986D01*
X182287920Y-96624396D01*
X182292073Y-96622099D01*
X182295681Y-96621800D01*
X182301200Y-96622645D01*
X182316386Y-96625143D01*
X182340890Y-96629233D01*
X182374363Y-96634856D01*
X182416458Y-96641954D01*
X182466826Y-96650466D01*
X182525119Y-96660334D01*
X182590988Y-96671499D01*
X182664085Y-96683901D01*
X182744062Y-96697481D01*
X182830569Y-96712180D01*
X182923260Y-96727939D01*
X183021785Y-96744698D01*
X183125796Y-96762398D01*
X183234945Y-96780980D01*
X183348883Y-96800385D01*
X183467262Y-96820553D01*
X183589734Y-96841426D01*
X183715950Y-96862943D01*
X183845562Y-96885047D01*
X183978222Y-96907677D01*
X184113580Y-96930775D01*
X184178406Y-96941840D01*
X184314853Y-96965129D01*
X184448735Y-96987980D01*
X184579706Y-97010332D01*
X184707418Y-97032127D01*
X184831525Y-97053306D01*
X184951679Y-97073808D01*
X185067534Y-97093576D01*
X185178743Y-97112550D01*
X185284959Y-97130670D01*
X185385836Y-97147879D01*
X185481026Y-97164115D01*
X185570183Y-97179321D01*
X185652961Y-97193438D01*
X185729011Y-97206405D01*
X185797987Y-97218164D01*
X185859543Y-97228656D01*
X185913331Y-97237822D01*
X185959006Y-97245602D01*
X185996219Y-97251937D01*
X186024624Y-97256768D01*
X186043875Y-97260037D01*
X186053624Y-97261683D01*
X186054827Y-97261880D01*
X186058436Y-97258280D01*
X186068884Y-97247650D01*
X186085927Y-97230241D01*
X186109321Y-97206303D01*
X186138820Y-97176089D01*
X186174180Y-97139850D01*
X186215155Y-97097836D01*
X186261501Y-97050300D01*
X186312973Y-96997492D01*
X186369326Y-96939665D01*
X186430315Y-96877069D01*
X186495695Y-96809956D01*
X186565221Y-96738577D01*
X186638649Y-96663183D01*
X186715733Y-96584027D01*
X186796230Y-96501358D01*
X186879893Y-96415430D01*
X186966478Y-96326492D01*
X187055740Y-96234797D01*
X187147434Y-96140595D01*
X187241315Y-96044138D01*
X187337139Y-95945678D01*
X187388913Y-95892477D01*
X187508042Y-95770072D01*
X187620280Y-95654771D01*
X187725812Y-95546388D01*
X187824821Y-95444736D01*
X187917491Y-95349626D01*
X188004006Y-95260872D01*
X188084549Y-95178287D01*
X188159306Y-95101683D01*
X188228460Y-95030873D01*
X188292194Y-94965671D01*
X188350693Y-94905887D01*
X188404141Y-94851337D01*
X188452721Y-94801831D01*
X188496618Y-94757183D01*
X188536016Y-94717206D01*
X188571097Y-94681713D01*
X188602048Y-94650515D01*
X188629051Y-94623427D01*
X188652290Y-94600260D01*
X188671949Y-94580828D01*
X188688213Y-94564943D01*
X188701264Y-94552418D01*
X188711288Y-94543066D01*
X188718468Y-94536699D01*
X188722988Y-94533131D01*
X188725032Y-94532174D01*
X188725172Y-94532307D01*
X188726163Y-94537954D01*
X188728566Y-94553304D01*
X188732330Y-94578008D01*
X188737405Y-94611716D01*
X188743737Y-94654077D01*
X188751277Y-94704741D01*
X188759972Y-94763358D01*
X188769770Y-94829578D01*
X188780621Y-94903051D01*
X188792473Y-94983427D01*
X188805273Y-95070355D01*
X188818972Y-95163486D01*
X188833516Y-95262469D01*
X188848856Y-95366954D01*
X188864938Y-95476591D01*
X188881712Y-95591030D01*
X188899126Y-95709921D01*
X188917129Y-95832913D01*
X188935669Y-95959657D01*
X188954695Y-96089802D01*
X188974154Y-96222998D01*
X188993996Y-96358895D01*
X189003387Y-96423241D01*
X189023375Y-96560194D01*
X189042992Y-96694572D01*
X189062188Y-96826025D01*
X189080912Y-96954206D01*
X189099113Y-97078767D01*
X189116739Y-97199359D01*
X189133740Y-97315634D01*
X189150065Y-97427245D01*
X189165663Y-97533842D01*
X189180482Y-97635079D01*
X189194472Y-97730606D01*
X189207582Y-97820075D01*
X189219761Y-97903139D01*
X189230957Y-97979449D01*
X189241120Y-98048657D01*
X189250199Y-98110415D01*
X189258142Y-98164375D01*
X189264899Y-98210188D01*
X189270419Y-98247507D01*
X189274650Y-98275983D01*
X189277542Y-98295268D01*
X189279044Y-98305014D01*
X189279255Y-98306201D01*
X189283855Y-98308512D01*
X189297253Y-98315155D01*
X189319136Y-98325976D01*
X189349189Y-98340820D01*
X189387096Y-98359530D01*
X189432541Y-98381951D01*
X189485210Y-98407929D01*
X189544788Y-98437308D01*
X189610958Y-98469932D01*
X189683407Y-98505647D01*
X189761819Y-98544296D01*
X189845878Y-98585725D01*
X189935270Y-98629777D01*
X190029679Y-98676299D01*
X190128791Y-98725134D01*
X190232289Y-98776127D01*
X190339858Y-98829122D01*
X190451185Y-98883965D01*
X190565952Y-98940500D01*
X190683845Y-98998572D01*
X190804550Y-99058025D01*
X190927750Y-99118703D01*
X190991715Y-99150206D01*
X191116075Y-99211462D01*
X191238098Y-99271585D01*
X191357468Y-99330419D01*
X191473872Y-99387808D01*
X191586993Y-99443597D01*
X191696517Y-99497629D01*
X191802127Y-99549749D01*
X191903510Y-99599801D01*
X192000350Y-99647629D01*
X192092332Y-99693077D01*
X192179140Y-99735989D01*
X192260460Y-99776210D01*
X192335976Y-99813583D01*
X192405374Y-99847953D01*
X192468337Y-99879165D01*
X192524552Y-99907061D01*
X192573702Y-99931486D01*
X192615473Y-99952285D01*
X192649550Y-99969301D01*
X192675617Y-99982379D01*
X192693359Y-99991362D01*
X192702461Y-99996096D01*
X192703675Y-99996824D01*
X192699230Y-99999331D01*
G36*
X180193388Y-130192442D02*
X180179182Y-130187925D01*
X180156019Y-130180371D01*
X180124232Y-130169894D01*
X180084155Y-130156605D01*
X180036119Y-130140616D01*
X179980457Y-130122039D01*
X179917504Y-130100985D01*
X179847593Y-130077567D01*
X179771054Y-130051896D01*
X179688222Y-130024084D01*
X179599431Y-129994244D01*
X179505012Y-129962486D01*
X179405299Y-129928924D01*
X179300625Y-129893669D01*
X179191323Y-129856832D01*
X179077725Y-129818525D01*
X178960165Y-129778861D01*
X178838976Y-129737952D01*
X178714490Y-129695909D01*
X178587041Y-129652843D01*
X178456961Y-129608868D01*
X178389640Y-129586100D01*
X178258295Y-129541688D01*
X178129386Y-129498122D01*
X178003248Y-129455515D01*
X177880214Y-129413979D01*
X177760619Y-129373628D01*
X177644798Y-129334572D01*
X177533083Y-129296924D01*
X177425811Y-129260797D01*
X177323314Y-129226302D01*
X177225927Y-129193552D01*
X177133984Y-129162659D01*
X177047819Y-129133735D01*
X176967767Y-129106891D01*
X176894162Y-129082242D01*
X176827338Y-129059899D01*
X176767628Y-129039972D01*
X176715368Y-129022577D01*
X176670892Y-129007824D01*
X176634532Y-128995826D01*
X176606625Y-128986694D01*
X176587504Y-128980541D01*
X176577503Y-128977480D01*
X176576025Y-128977144D01*
X176571478Y-128980304D01*
X176559082Y-128989341D01*
X176539124Y-129004039D01*
X176511889Y-129024188D01*
X176477661Y-129049575D01*
X176436725Y-129079986D01*
X176389367Y-129115208D01*
X176335874Y-129155031D01*
X176276528Y-129199238D01*
X176211617Y-129247620D01*
X176141426Y-129299961D01*
X176066238Y-129356051D01*
X175986341Y-129415676D01*
X175902019Y-129478622D01*
X175813558Y-129544677D01*
X175721242Y-129613630D01*
X175625358Y-129685267D01*
X175526190Y-129759375D01*
X175424023Y-129835740D01*
X175319145Y-129914151D01*
X175211837Y-129994395D01*
X175102387Y-130076257D01*
X175068827Y-130101362D01*
X174935085Y-130201413D01*
X174809239Y-130295556D01*
X174691049Y-130383973D01*
X174580275Y-130466840D01*
X174476677Y-130544336D01*
X174380014Y-130616641D01*
X174290047Y-130683932D01*
X174206535Y-130746388D01*
X174129239Y-130804187D01*
X174057918Y-130857510D01*
X173992333Y-130906533D01*
X173932242Y-130951437D01*
X173877406Y-130992398D01*
X173827585Y-131029596D01*
X173782539Y-131063210D01*
X173742027Y-131093417D01*
X173705810Y-131120398D01*
X173673648Y-131144330D01*
X173645300Y-131165392D01*
X173620526Y-131183762D01*
X173599085Y-131199619D01*
X173580739Y-131213143D01*
X173565248Y-131224510D01*
X173552370Y-131233900D01*
X173541866Y-131241493D01*
X173533496Y-131247465D01*
X173527018Y-131251997D01*
X173522195Y-131255266D01*
X173518784Y-131257450D01*
X173516548Y-131258729D01*
X173515244Y-131259282D01*
X173514632Y-131259287D01*
X173514474Y-131258921D01*
X173514530Y-131258366D01*
X173514557Y-131257798D01*
X173514513Y-131257622D01*
X173514466Y-131252334D01*
X173514541Y-131237246D01*
X173514734Y-131212720D01*
X173515040Y-131179114D01*
X173515456Y-131136790D01*
X173515977Y-131086108D01*
X173516600Y-131027427D01*
X173517320Y-130961109D01*
X173518133Y-130887514D01*
X173519035Y-130806999D01*
X173520022Y-130719928D01*
X173521090Y-130626659D01*
X173522235Y-130527553D01*
X173523453Y-130422969D01*
X173524738Y-130313270D01*
X173526089Y-130198813D01*
X173527499Y-130079960D01*
X173528966Y-129957071D01*
X173530485Y-129830506D01*
X173532052Y-129700624D01*
X173533662Y-129567786D01*
X173535299Y-129433531D01*
X173536963Y-129297189D01*
X173538597Y-129163019D01*
X173540196Y-129031402D01*
X173541757Y-128902719D01*
X173543273Y-128777355D01*
X173544741Y-128655692D01*
X173546156Y-128538112D01*
X173547514Y-128424998D01*
X173548811Y-128316733D01*
X173550040Y-128213699D01*
X173551199Y-128116279D01*
X173552282Y-128024855D01*
X173553285Y-127939812D01*
X173554203Y-127861530D01*
X173555033Y-127790392D01*
X173555769Y-127726782D01*
X173556406Y-127671083D01*
X173556941Y-127623675D01*
X173557368Y-127584942D01*
X173557684Y-127555268D01*
X173557883Y-127535035D01*
X173557958Y-127525354D01*
X173558373Y-127437682D01*
X172006692Y-126342100D01*
X171893600Y-126262252D01*
X171782589Y-126183879D01*
X171673949Y-126107185D01*
X171567969Y-126032374D01*
X171464941Y-125959652D01*
X171365153Y-125889222D01*
X171268896Y-125821289D01*
X171176458Y-125756058D01*
X171088132Y-125693732D01*
X171004204Y-125634516D01*
X170924967Y-125578617D01*
X170850711Y-125526235D01*
X170781723Y-125477578D01*
X170718296Y-125432849D01*
X170660717Y-125392254D01*
X170609277Y-125355995D01*
X170564266Y-125324277D01*
X170525976Y-125297306D01*
X170494693Y-125275286D01*
X170470709Y-125258422D01*
X170454314Y-125246916D01*
X170445798Y-125240975D01*
X170444612Y-125240171D01*
X170438003Y-125234292D01*
X170440364Y-125230050D01*
X170445609Y-125228280D01*
X170460219Y-125223594D01*
X170483854Y-125216098D01*
X170516180Y-125205896D01*
X170556858Y-125193094D01*
X170605554Y-125177798D01*
X170661929Y-125160113D01*
X170725646Y-125140143D01*
X170796370Y-125117996D01*
X170873761Y-125093775D01*
X170957486Y-125067586D01*
X171047207Y-125039533D01*
X171142586Y-125009725D01*
X171243286Y-124978264D01*
X171348971Y-124945255D01*
X171459306Y-124910806D01*
X171573951Y-124875021D01*
X171692571Y-124838005D01*
X171814828Y-124799864D01*
X171940386Y-124760701D01*
X172068909Y-124720625D01*
X172200059Y-124679740D01*
X172265578Y-124659317D01*
X174084640Y-124092360D01*
X174094052Y-124063787D01*
X174096234Y-124056878D01*
X174101317Y-124040611D01*
X174109193Y-124015327D01*
X174119756Y-123981375D01*
X174132898Y-123939098D01*
X174148512Y-123888841D01*
X174166493Y-123830951D01*
X174186730Y-123765770D01*
X174209120Y-123693645D01*
X174233553Y-123614920D01*
X174259924Y-123529940D01*
X174288124Y-123439050D01*
X174318047Y-123342597D01*
X174349587Y-123240923D01*
X174382636Y-123134375D01*
X174417086Y-123023297D01*
X174452831Y-122908035D01*
X174489764Y-122788933D01*
X174527778Y-122666337D01*
X174566766Y-122540591D01*
X174606618Y-122412040D01*
X174647233Y-122281030D01*
X174659774Y-122240572D01*
X174700511Y-122109165D01*
X174740485Y-121980244D01*
X174779590Y-121854147D01*
X174817720Y-121731213D01*
X174854771Y-121611777D01*
X174890639Y-121496181D01*
X174925216Y-121384761D01*
X174958399Y-121277856D01*
X174990083Y-121175805D01*
X175020162Y-121078945D01*
X175048532Y-120987616D01*
X175075086Y-120902155D01*
X175099722Y-120822899D01*
X175122331Y-120750190D01*
X175142811Y-120684362D01*
X175161055Y-120625756D01*
X175176959Y-120574708D01*
X175190419Y-120531559D01*
X175201327Y-120496647D01*
X175209580Y-120470308D01*
X175215071Y-120452882D01*
X175217698Y-120444707D01*
X175217919Y-120444094D01*
X175222480Y-120445407D01*
X175225243Y-120447747D01*
X175228548Y-120452247D01*
X175237520Y-120464751D01*
X175251955Y-120484970D01*
X175271647Y-120512615D01*
X175296394Y-120547400D01*
X175325991Y-120589034D01*
X175360232Y-120637231D01*
X175398914Y-120691703D01*
X175441832Y-120752160D01*
X175488782Y-120818314D01*
X175539557Y-120889878D01*
X175593957Y-120966564D01*
X175651774Y-121048082D01*
X175712805Y-121134144D01*
X175776846Y-121224464D01*
X175843690Y-121318752D01*
X175913136Y-121416719D01*
X175984977Y-121518079D01*
X176059011Y-121622542D01*
X176135030Y-121729822D01*
X176212833Y-121839628D01*
X176292213Y-121951674D01*
X176330228Y-122005337D01*
X176410243Y-122118287D01*
X176488754Y-122229114D01*
X176565559Y-122337530D01*
X176640453Y-122443247D01*
X176713235Y-122545980D01*
X176783699Y-122645439D01*
X176851643Y-122741339D01*
X176916863Y-122833392D01*
X176979156Y-122921311D01*
X177038318Y-123004810D01*
X177094147Y-123083600D01*
X177146439Y-123157396D01*
X177194989Y-123225911D01*
X177239596Y-123288856D01*
X177280054Y-123345944D01*
X177316162Y-123396890D01*
X177347714Y-123441405D01*
X177374510Y-123479203D01*
X177396344Y-123509996D01*
X177413014Y-123533498D01*
X177424315Y-123549422D01*
X177430044Y-123557479D01*
X177430756Y-123558469D01*
X177435853Y-123558476D01*
X177450758Y-123558347D01*
X177475119Y-123558088D01*
X177508588Y-123557703D01*
X177550811Y-123557198D01*
X177601439Y-123556576D01*
X177660121Y-123555842D01*
X177726506Y-123555000D01*
X177800243Y-123554055D01*
X177880980Y-123553013D01*
X177968368Y-123551877D01*
X178062055Y-123550651D01*
X178161690Y-123549341D01*
X178266923Y-123547951D01*
X178377401Y-123546486D01*
X178492777Y-123544950D01*
X178612696Y-123543348D01*
X178736809Y-123541685D01*
X178864765Y-123539964D01*
X178996214Y-123538191D01*
X179130803Y-123536369D01*
X179268182Y-123534505D01*
X179342411Y-123533496D01*
X179513201Y-123531180D01*
X179674096Y-123529014D01*
X179825356Y-123526998D01*
X179967245Y-123525129D01*
X180100026Y-123523404D01*
X180223960Y-123521821D01*
X180339309Y-123520377D01*
X180446337Y-123519071D01*
X180545306Y-123517900D01*
X180636478Y-123516862D01*
X180720117Y-123515953D01*
X180796483Y-123515174D01*
X180865840Y-123514519D01*
X180928451Y-123513988D01*
X180984577Y-123513578D01*
X181034481Y-123513287D01*
X181078427Y-123513112D01*
X181116675Y-123513052D01*
X181149489Y-123513103D01*
X181177130Y-123513264D01*
X181199863Y-123513532D01*
X181217948Y-123513904D01*
X181231649Y-123514379D01*
X181241228Y-123514954D01*
X181246947Y-123515627D01*
X181249069Y-123516396D01*
X181249074Y-123516589D01*
X181245782Y-123521282D01*
X181236627Y-123533836D01*
X181221820Y-123553966D01*
X181201574Y-123581389D01*
X181176097Y-123615820D01*
X181145604Y-123656977D01*
X181110304Y-123704574D01*
X181070407Y-123758327D01*
X181026127Y-123817953D01*
X180977673Y-123883168D01*
X180925257Y-123953686D01*
X180869090Y-124029226D01*
X180809383Y-124109502D01*
X180746347Y-124194231D01*
X180680194Y-124283128D01*
X180611135Y-124375909D01*
X180539379Y-124472292D01*
X180465141Y-124571990D01*
X180388629Y-124674721D01*
X180310056Y-124780201D01*
X180229632Y-124888145D01*
X180147569Y-124998269D01*
X180108710Y-125050409D01*
X180026003Y-125161383D01*
X179944855Y-125270274D01*
X179865477Y-125376798D01*
X179788079Y-125480676D01*
X179712871Y-125581624D01*
X179640063Y-125679359D01*
X179569866Y-125773599D01*
X179502489Y-125864064D01*
X179438143Y-125950469D01*
X179377036Y-126032533D01*
X179319381Y-126109973D01*
X179265387Y-126182507D01*
X179215263Y-126249854D01*
X179169221Y-126311730D01*
X179127470Y-126367854D01*
X179090220Y-126417943D01*
X179057681Y-126461715D01*
X179030064Y-126498888D01*
X179007579Y-126529180D01*
X178990435Y-126552307D01*
X178978844Y-126567988D01*
X178973014Y-126575942D01*
X178972324Y-126576931D01*
X178973943Y-126581817D01*
X178978719Y-126595988D01*
X178986541Y-126619114D01*
X178997296Y-126650861D01*
X179010870Y-126690895D01*
X179027150Y-126738883D01*
X179046024Y-126794495D01*
X179067378Y-126857397D01*
X179091098Y-126927255D01*
X179117073Y-127003739D01*
X179145190Y-127086513D01*
X179175334Y-127175247D01*
X179207394Y-127269606D01*
X179241255Y-127369259D01*
X179276806Y-127473874D01*
X179313933Y-127583115D01*
X179352523Y-127696651D01*
X179392463Y-127814151D01*
X179433639Y-127935280D01*
X179475939Y-128059706D01*
X179519251Y-128187097D01*
X179563460Y-128317118D01*
X179586414Y-128384624D01*
X179631036Y-128515875D01*
X179674806Y-128644671D01*
X179717611Y-128770681D01*
X179759341Y-128893571D01*
X179799881Y-129013008D01*
X179839120Y-129128660D01*
X179876943Y-129240192D01*
X179913239Y-129347272D01*
X179947896Y-129449568D01*
X179980800Y-129546746D01*
X180011840Y-129638472D01*
X180040901Y-129724414D01*
X180067872Y-129804239D01*
X180092641Y-129877614D01*
X180115092Y-129944206D01*
X180135117Y-130003681D01*
X180152600Y-130055706D01*
X180167429Y-130099950D01*
X180179493Y-130136078D01*
X180188678Y-130163758D01*
X180194871Y-130182655D01*
X180197960Y-130192439D01*
X180198304Y-130193812D01*
X180193388Y-130192442D01*
X180193388Y-130192442D01*
G37*
X180193388Y-130192442D02*
X180179182Y-130187925D01*
X180156019Y-130180371D01*
X180124232Y-130169894D01*
X180084155Y-130156605D01*
X180036119Y-130140616D01*
X179980457Y-130122039D01*
X179917504Y-130100985D01*
X179847593Y-130077567D01*
X179771054Y-130051896D01*
X179688222Y-130024084D01*
X179599431Y-129994244D01*
X179505012Y-129962486D01*
X179405299Y-129928924D01*
X179300625Y-129893669D01*
X179191323Y-129856832D01*
X179077725Y-129818525D01*
X178960165Y-129778861D01*
X178838976Y-129737952D01*
X178714490Y-129695909D01*
X178587041Y-129652843D01*
X178456961Y-129608868D01*
X178389640Y-129586100D01*
X178258295Y-129541688D01*
X178129386Y-129498122D01*
X178003248Y-129455515D01*
X177880214Y-129413979D01*
X177760619Y-129373628D01*
X177644798Y-129334572D01*
X177533083Y-129296924D01*
X177425811Y-129260797D01*
X177323314Y-129226302D01*
X177225927Y-129193552D01*
X177133984Y-129162659D01*
X177047819Y-129133735D01*
X176967767Y-129106891D01*
X176894162Y-129082242D01*
X176827338Y-129059899D01*
X176767628Y-129039972D01*
X176715368Y-129022577D01*
X176670892Y-129007824D01*
X176634532Y-128995826D01*
X176606625Y-128986694D01*
X176587504Y-128980541D01*
X176577503Y-128977480D01*
X176576025Y-128977144D01*
X176571478Y-128980304D01*
X176559082Y-128989341D01*
X176539124Y-129004039D01*
X176511889Y-129024188D01*
X176477661Y-129049575D01*
X176436725Y-129079986D01*
X176389367Y-129115208D01*
X176335874Y-129155031D01*
X176276528Y-129199238D01*
X176211617Y-129247620D01*
X176141426Y-129299961D01*
X176066238Y-129356051D01*
X175986341Y-129415676D01*
X175902019Y-129478622D01*
X175813558Y-129544677D01*
X175721242Y-129613630D01*
X175625358Y-129685267D01*
X175526190Y-129759375D01*
X175424023Y-129835740D01*
X175319145Y-129914151D01*
X175211837Y-129994395D01*
X175102387Y-130076257D01*
X175068827Y-130101362D01*
X174935085Y-130201413D01*
X174809239Y-130295556D01*
X174691049Y-130383973D01*
X174580275Y-130466840D01*
X174476677Y-130544336D01*
X174380014Y-130616641D01*
X174290047Y-130683932D01*
X174206535Y-130746388D01*
X174129239Y-130804187D01*
X174057918Y-130857510D01*
X173992333Y-130906533D01*
X173932242Y-130951437D01*
X173877406Y-130992398D01*
X173827585Y-131029596D01*
X173782539Y-131063210D01*
X173742027Y-131093417D01*
X173705810Y-131120398D01*
X173673648Y-131144330D01*
X173645300Y-131165392D01*
X173620526Y-131183762D01*
X173599085Y-131199619D01*
X173580739Y-131213143D01*
X173565248Y-131224510D01*
X173552370Y-131233900D01*
X173541866Y-131241493D01*
X173533496Y-131247465D01*
X173527018Y-131251997D01*
X173522195Y-131255266D01*
X173518784Y-131257450D01*
X173516548Y-131258729D01*
X173515244Y-131259282D01*
X173514632Y-131259287D01*
X173514474Y-131258921D01*
X173514530Y-131258366D01*
X173514557Y-131257798D01*
X173514513Y-131257622D01*
X173514466Y-131252334D01*
X173514541Y-131237246D01*
X173514734Y-131212720D01*
X173515040Y-131179114D01*
X173515456Y-131136790D01*
X173515977Y-131086108D01*
X173516600Y-131027427D01*
X173517320Y-130961109D01*
X173518133Y-130887514D01*
X173519035Y-130806999D01*
X173520022Y-130719928D01*
X173521090Y-130626659D01*
X173522235Y-130527553D01*
X173523453Y-130422969D01*
X173524738Y-130313270D01*
X173526089Y-130198813D01*
X173527499Y-130079960D01*
X173528966Y-129957071D01*
X173530485Y-129830506D01*
X173532052Y-129700624D01*
X173533662Y-129567786D01*
X173535299Y-129433531D01*
X173536963Y-129297189D01*
X173538597Y-129163019D01*
X173540196Y-129031402D01*
X173541757Y-128902719D01*
X173543273Y-128777355D01*
X173544741Y-128655692D01*
X173546156Y-128538112D01*
X173547514Y-128424998D01*
X173548811Y-128316733D01*
X173550040Y-128213699D01*
X173551199Y-128116279D01*
X173552282Y-128024855D01*
X173553285Y-127939812D01*
X173554203Y-127861530D01*
X173555033Y-127790392D01*
X173555769Y-127726782D01*
X173556406Y-127671083D01*
X173556941Y-127623675D01*
X173557368Y-127584942D01*
X173557684Y-127555268D01*
X173557883Y-127535035D01*
X173557958Y-127525354D01*
X173558373Y-127437682D01*
X172006692Y-126342100D01*
X171893600Y-126262252D01*
X171782589Y-126183879D01*
X171673949Y-126107185D01*
X171567969Y-126032374D01*
X171464941Y-125959652D01*
X171365153Y-125889222D01*
X171268896Y-125821289D01*
X171176458Y-125756058D01*
X171088132Y-125693732D01*
X171004204Y-125634516D01*
X170924967Y-125578617D01*
X170850711Y-125526235D01*
X170781723Y-125477578D01*
X170718296Y-125432849D01*
X170660717Y-125392254D01*
X170609277Y-125355995D01*
X170564266Y-125324277D01*
X170525976Y-125297306D01*
X170494693Y-125275286D01*
X170470709Y-125258422D01*
X170454314Y-125246916D01*
X170445798Y-125240975D01*
X170444612Y-125240171D01*
X170438003Y-125234292D01*
X170440364Y-125230050D01*
X170445609Y-125228280D01*
X170460219Y-125223594D01*
X170483854Y-125216098D01*
X170516180Y-125205896D01*
X170556858Y-125193094D01*
X170605554Y-125177798D01*
X170661929Y-125160113D01*
X170725646Y-125140143D01*
X170796370Y-125117996D01*
X170873761Y-125093775D01*
X170957486Y-125067586D01*
X171047207Y-125039533D01*
X171142586Y-125009725D01*
X171243286Y-124978264D01*
X171348971Y-124945255D01*
X171459306Y-124910806D01*
X171573951Y-124875021D01*
X171692571Y-124838005D01*
X171814828Y-124799864D01*
X171940386Y-124760701D01*
X172068909Y-124720625D01*
X172200059Y-124679740D01*
X172265578Y-124659317D01*
X174084640Y-124092360D01*
X174094052Y-124063787D01*
X174096234Y-124056878D01*
X174101317Y-124040611D01*
X174109193Y-124015327D01*
X174119756Y-123981375D01*
X174132898Y-123939098D01*
X174148512Y-123888841D01*
X174166493Y-123830951D01*
X174186730Y-123765770D01*
X174209120Y-123693645D01*
X174233553Y-123614920D01*
X174259924Y-123529940D01*
X174288124Y-123439050D01*
X174318047Y-123342597D01*
X174349587Y-123240923D01*
X174382636Y-123134375D01*
X174417086Y-123023297D01*
X174452831Y-122908035D01*
X174489764Y-122788933D01*
X174527778Y-122666337D01*
X174566766Y-122540591D01*
X174606618Y-122412040D01*
X174647233Y-122281030D01*
X174659774Y-122240572D01*
X174700511Y-122109165D01*
X174740485Y-121980244D01*
X174779590Y-121854147D01*
X174817720Y-121731213D01*
X174854771Y-121611777D01*
X174890639Y-121496181D01*
X174925216Y-121384761D01*
X174958399Y-121277856D01*
X174990083Y-121175805D01*
X175020162Y-121078945D01*
X175048532Y-120987616D01*
X175075086Y-120902155D01*
X175099722Y-120822899D01*
X175122331Y-120750190D01*
X175142811Y-120684362D01*
X175161055Y-120625756D01*
X175176959Y-120574708D01*
X175190419Y-120531559D01*
X175201327Y-120496647D01*
X175209580Y-120470308D01*
X175215071Y-120452882D01*
X175217698Y-120444707D01*
X175217919Y-120444094D01*
X175222480Y-120445407D01*
X175225243Y-120447747D01*
X175228548Y-120452247D01*
X175237520Y-120464751D01*
X175251955Y-120484970D01*
X175271647Y-120512615D01*
X175296394Y-120547400D01*
X175325991Y-120589034D01*
X175360232Y-120637231D01*
X175398914Y-120691703D01*
X175441832Y-120752160D01*
X175488782Y-120818314D01*
X175539557Y-120889878D01*
X175593957Y-120966564D01*
X175651774Y-121048082D01*
X175712805Y-121134144D01*
X175776846Y-121224464D01*
X175843690Y-121318752D01*
X175913136Y-121416719D01*
X175984977Y-121518079D01*
X176059011Y-121622542D01*
X176135030Y-121729822D01*
X176212833Y-121839628D01*
X176292213Y-121951674D01*
X176330228Y-122005337D01*
X176410243Y-122118287D01*
X176488754Y-122229114D01*
X176565559Y-122337530D01*
X176640453Y-122443247D01*
X176713235Y-122545980D01*
X176783699Y-122645439D01*
X176851643Y-122741339D01*
X176916863Y-122833392D01*
X176979156Y-122921311D01*
X177038318Y-123004810D01*
X177094147Y-123083600D01*
X177146439Y-123157396D01*
X177194989Y-123225911D01*
X177239596Y-123288856D01*
X177280054Y-123345944D01*
X177316162Y-123396890D01*
X177347714Y-123441405D01*
X177374510Y-123479203D01*
X177396344Y-123509996D01*
X177413014Y-123533498D01*
X177424315Y-123549422D01*
X177430044Y-123557479D01*
X177430756Y-123558469D01*
X177435853Y-123558476D01*
X177450758Y-123558347D01*
X177475119Y-123558088D01*
X177508588Y-123557703D01*
X177550811Y-123557198D01*
X177601439Y-123556576D01*
X177660121Y-123555842D01*
X177726506Y-123555000D01*
X177800243Y-123554055D01*
X177880980Y-123553013D01*
X177968368Y-123551877D01*
X178062055Y-123550651D01*
X178161690Y-123549341D01*
X178266923Y-123547951D01*
X178377401Y-123546486D01*
X178492777Y-123544950D01*
X178612696Y-123543348D01*
X178736809Y-123541685D01*
X178864765Y-123539964D01*
X178996214Y-123538191D01*
X179130803Y-123536369D01*
X179268182Y-123534505D01*
X179342411Y-123533496D01*
X179513201Y-123531180D01*
X179674096Y-123529014D01*
X179825356Y-123526998D01*
X179967245Y-123525129D01*
X180100026Y-123523404D01*
X180223960Y-123521821D01*
X180339309Y-123520377D01*
X180446337Y-123519071D01*
X180545306Y-123517900D01*
X180636478Y-123516862D01*
X180720117Y-123515953D01*
X180796483Y-123515174D01*
X180865840Y-123514519D01*
X180928451Y-123513988D01*
X180984577Y-123513578D01*
X181034481Y-123513287D01*
X181078427Y-123513112D01*
X181116675Y-123513052D01*
X181149489Y-123513103D01*
X181177130Y-123513264D01*
X181199863Y-123513532D01*
X181217948Y-123513904D01*
X181231649Y-123514379D01*
X181241228Y-123514954D01*
X181246947Y-123515627D01*
X181249069Y-123516396D01*
X181249074Y-123516589D01*
X181245782Y-123521282D01*
X181236627Y-123533836D01*
X181221820Y-123553966D01*
X181201574Y-123581389D01*
X181176097Y-123615820D01*
X181145604Y-123656977D01*
X181110304Y-123704574D01*
X181070407Y-123758327D01*
X181026127Y-123817953D01*
X180977673Y-123883168D01*
X180925257Y-123953686D01*
X180869090Y-124029226D01*
X180809383Y-124109502D01*
X180746347Y-124194231D01*
X180680194Y-124283128D01*
X180611135Y-124375909D01*
X180539379Y-124472292D01*
X180465141Y-124571990D01*
X180388629Y-124674721D01*
X180310056Y-124780201D01*
X180229632Y-124888145D01*
X180147569Y-124998269D01*
X180108710Y-125050409D01*
X180026003Y-125161383D01*
X179944855Y-125270274D01*
X179865477Y-125376798D01*
X179788079Y-125480676D01*
X179712871Y-125581624D01*
X179640063Y-125679359D01*
X179569866Y-125773599D01*
X179502489Y-125864064D01*
X179438143Y-125950469D01*
X179377036Y-126032533D01*
X179319381Y-126109973D01*
X179265387Y-126182507D01*
X179215263Y-126249854D01*
X179169221Y-126311730D01*
X179127470Y-126367854D01*
X179090220Y-126417943D01*
X179057681Y-126461715D01*
X179030064Y-126498888D01*
X179007579Y-126529180D01*
X178990435Y-126552307D01*
X178978844Y-126567988D01*
X178973014Y-126575942D01*
X178972324Y-126576931D01*
X178973943Y-126581817D01*
X178978719Y-126595988D01*
X178986541Y-126619114D01*
X178997296Y-126650861D01*
X179010870Y-126690895D01*
X179027150Y-126738883D01*
X179046024Y-126794495D01*
X179067378Y-126857397D01*
X179091098Y-126927255D01*
X179117073Y-127003739D01*
X179145190Y-127086513D01*
X179175334Y-127175247D01*
X179207394Y-127269606D01*
X179241255Y-127369259D01*
X179276806Y-127473874D01*
X179313933Y-127583115D01*
X179352523Y-127696651D01*
X179392463Y-127814151D01*
X179433639Y-127935280D01*
X179475939Y-128059706D01*
X179519251Y-128187097D01*
X179563460Y-128317118D01*
X179586414Y-128384624D01*
X179631036Y-128515875D01*
X179674806Y-128644671D01*
X179717611Y-128770681D01*
X179759341Y-128893571D01*
X179799881Y-129013008D01*
X179839120Y-129128660D01*
X179876943Y-129240192D01*
X179913239Y-129347272D01*
X179947896Y-129449568D01*
X179980800Y-129546746D01*
X180011840Y-129638472D01*
X180040901Y-129724414D01*
X180067872Y-129804239D01*
X180092641Y-129877614D01*
X180115092Y-129944206D01*
X180135117Y-130003681D01*
X180152600Y-130055706D01*
X180167429Y-130099950D01*
X180179493Y-130136078D01*
X180188678Y-130163758D01*
X180194871Y-130182655D01*
X180197960Y-130192439D01*
X180198304Y-130193812D01*
X180193388Y-130192442D01*
G36*
X150000669Y-142699230D02*
X149993818Y-142685991D01*
X149982780Y-142664271D01*
X149967712Y-142634386D01*
X149948770Y-142596650D01*
X149926109Y-142551378D01*
X149899887Y-142498883D01*
X149870260Y-142439481D01*
X149837384Y-142373487D01*
X149801415Y-142301214D01*
X149762510Y-142222977D01*
X149720825Y-142139092D01*
X149676517Y-142049872D01*
X149629741Y-141955632D01*
X149580655Y-141856687D01*
X149529414Y-141753351D01*
X149476175Y-141645938D01*
X149421094Y-141534764D01*
X149364328Y-141420143D01*
X149306032Y-141302389D01*
X149246364Y-141181817D01*
X149185479Y-141058742D01*
X149153975Y-140995040D01*
X149092504Y-140870760D01*
X149032158Y-140748802D01*
X148973092Y-140629481D01*
X148915464Y-140513113D01*
X148859430Y-140400014D01*
X148805149Y-140290499D01*
X148752776Y-140184884D01*
X148702469Y-140083485D01*
X148654384Y-139986617D01*
X148608679Y-139894596D01*
X148565510Y-139807738D01*
X148525035Y-139726358D01*
X148487411Y-139650771D01*
X148452794Y-139581295D01*
X148421341Y-139518244D01*
X148393210Y-139461933D01*
X148368557Y-139412679D01*
X148347539Y-139370798D01*
X148330313Y-139336604D01*
X148317037Y-139310413D01*
X148307867Y-139292542D01*
X148302960Y-139283306D01*
X148302152Y-139282023D01*
X148296703Y-139281042D01*
X148281548Y-139278667D01*
X148257042Y-139274948D01*
X148223536Y-139269937D01*
X148181382Y-139263685D01*
X148130932Y-139256243D01*
X148072539Y-139247662D01*
X148006555Y-139237995D01*
X147933332Y-139227291D01*
X147853222Y-139215603D01*
X147766578Y-139202981D01*
X147673751Y-139189477D01*
X147575094Y-139175142D01*
X147470960Y-139160027D01*
X147361700Y-139144184D01*
X147247666Y-139127664D01*
X147129211Y-139110518D01*
X147006686Y-139092798D01*
X146880445Y-139074554D01*
X146750840Y-139055838D01*
X146618221Y-139036701D01*
X146482943Y-139017194D01*
X146441460Y-139011215D01*
X146276144Y-138987392D01*
X146120588Y-138964975D01*
X145974495Y-138943922D01*
X145837570Y-138924189D01*
X145709517Y-138905732D01*
X145590039Y-138888508D01*
X145478841Y-138872474D01*
X145375626Y-138857585D01*
X145280099Y-138843799D01*
X145191963Y-138831072D01*
X145110922Y-138819361D01*
X145036680Y-138808622D01*
X144968941Y-138798811D01*
X144907409Y-138789885D01*
X144851788Y-138781801D01*
X144801782Y-138774515D01*
X144757095Y-138767984D01*
X144717430Y-138762164D01*
X144682492Y-138757012D01*
X144651984Y-138752484D01*
X144625611Y-138748536D01*
X144603076Y-138745126D01*
X144584084Y-138742210D01*
X144568338Y-138739744D01*
X144555542Y-138737685D01*
X144545400Y-138735989D01*
X144537615Y-138734613D01*
X144531893Y-138733514D01*
X144527937Y-138732647D01*
X144525451Y-138731970D01*
X144524138Y-138731439D01*
X144523702Y-138731010D01*
X144523849Y-138730640D01*
X144524281Y-138730286D01*
X144524702Y-138729904D01*
X144524795Y-138729749D01*
X144528501Y-138725976D01*
X144539223Y-138715360D01*
X144556702Y-138698154D01*
X144580681Y-138674608D01*
X144610903Y-138644974D01*
X144647109Y-138609505D01*
X144689043Y-138568452D01*
X144736446Y-138522067D01*
X144789061Y-138470602D01*
X144846631Y-138414307D01*
X144908898Y-138353437D01*
X144975604Y-138288241D01*
X145046492Y-138218972D01*
X145121305Y-138145881D01*
X145199783Y-138069221D01*
X145281671Y-137989243D01*
X145366710Y-137906198D01*
X145454643Y-137820340D01*
X145545213Y-137731919D01*
X145638161Y-137641187D01*
X145733230Y-137548395D01*
X145829320Y-137454619D01*
X145926905Y-137359388D01*
X146022933Y-137265671D01*
X146117131Y-137173734D01*
X146209227Y-137083845D01*
X146298945Y-136996271D01*
X146386012Y-136911280D01*
X146470154Y-136829140D01*
X146551098Y-136750116D01*
X146628570Y-136674478D01*
X146702295Y-136602491D01*
X146772001Y-136534424D01*
X146837413Y-136470544D01*
X146898257Y-136411118D01*
X146954260Y-136356414D01*
X147005149Y-136306699D01*
X147050648Y-136262240D01*
X147090484Y-136223305D01*
X147124385Y-136190161D01*
X147152075Y-136163075D01*
X147173281Y-136142315D01*
X147187729Y-136128149D01*
X147194627Y-136121357D01*
X147256914Y-136059657D01*
X146934404Y-134187759D01*
X146910897Y-134051330D01*
X146887818Y-133917415D01*
X146865229Y-133786364D01*
X146843189Y-133658526D01*
X146821759Y-133534252D01*
X146801000Y-133413889D01*
X146780972Y-133297789D01*
X146761734Y-133186301D01*
X146743349Y-133079773D01*
X146725875Y-132978556D01*
X146709373Y-132883000D01*
X146693905Y-132793453D01*
X146679529Y-132710266D01*
X146666307Y-132633788D01*
X146654298Y-132564368D01*
X146643564Y-132502356D01*
X146634164Y-132448101D01*
X146626160Y-132401954D01*
X146619610Y-132364263D01*
X146614576Y-132335379D01*
X146611119Y-132315650D01*
X146609298Y-132305427D01*
X146609028Y-132304020D01*
X146608511Y-132295190D01*
X146613181Y-132293860D01*
X146618141Y-132296317D01*
X146631785Y-132303334D01*
X146653798Y-132314746D01*
X146683870Y-132330390D01*
X146721686Y-132350102D01*
X146766935Y-132373719D01*
X146819303Y-132401077D01*
X146878479Y-132432011D01*
X146944149Y-132466360D01*
X147016000Y-132503957D01*
X147093721Y-132544641D01*
X147176999Y-132588247D01*
X147265520Y-132634612D01*
X147358972Y-132683572D01*
X147457043Y-132734962D01*
X147559421Y-132788621D01*
X147665791Y-132844383D01*
X147775842Y-132902086D01*
X147889261Y-132961565D01*
X148005736Y-133022656D01*
X148124954Y-133085197D01*
X148246601Y-133149024D01*
X148307371Y-133180912D01*
X149994541Y-134066284D01*
X150021401Y-134052735D01*
X150027829Y-134049393D01*
X150042926Y-134041484D01*
X150066373Y-134029175D01*
X150097850Y-134012636D01*
X150137037Y-133992035D01*
X150183615Y-133967539D01*
X150237264Y-133939318D01*
X150297664Y-133907538D01*
X150364496Y-133872370D01*
X150437440Y-133833980D01*
X150516177Y-133792537D01*
X150600386Y-133748209D01*
X150689748Y-133701165D01*
X150783944Y-133651573D01*
X150882654Y-133599601D01*
X150985558Y-133545417D01*
X151092336Y-133489190D01*
X151202669Y-133431088D01*
X151316238Y-133371279D01*
X151432722Y-133309932D01*
X151551801Y-133247213D01*
X151673158Y-133183293D01*
X151710634Y-133163553D01*
X151832358Y-133099440D01*
X151951785Y-133036545D01*
X152068600Y-132975032D01*
X152182490Y-132915066D01*
X152293143Y-132856812D01*
X152400244Y-132800435D01*
X152503480Y-132746099D01*
X152602537Y-132693970D01*
X152697102Y-132644213D01*
X152786861Y-132596992D01*
X152871501Y-132552473D01*
X152950708Y-132510819D01*
X153024170Y-132472197D01*
X153091571Y-132436771D01*
X153152600Y-132404705D01*
X153206941Y-132376165D01*
X153254283Y-132351315D01*
X153294311Y-132330321D01*
X153326711Y-132313348D01*
X153351171Y-132300559D01*
X153367376Y-132292120D01*
X153375014Y-132288197D01*
X153375604Y-132287920D01*
X153377901Y-132292073D01*
X153378200Y-132295681D01*
X153377355Y-132301200D01*
X153374857Y-132316386D01*
X153370767Y-132340890D01*
X153365144Y-132374363D01*
X153358046Y-132416458D01*
X153349534Y-132466826D01*
X153339666Y-132525119D01*
X153328501Y-132590988D01*
X153316099Y-132664085D01*
X153302519Y-132744062D01*
X153287820Y-132830569D01*
X153272061Y-132923260D01*
X153255302Y-133021785D01*
X153237602Y-133125796D01*
X153219020Y-133234945D01*
X153199615Y-133348883D01*
X153179447Y-133467262D01*
X153158574Y-133589734D01*
X153137057Y-133715950D01*
X153114953Y-133845562D01*
X153092323Y-133978222D01*
X153069225Y-134113580D01*
X153058160Y-134178406D01*
X153034871Y-134314853D01*
X153012020Y-134448735D01*
X152989668Y-134579706D01*
X152967873Y-134707418D01*
X152946694Y-134831525D01*
X152926192Y-134951679D01*
X152906424Y-135067534D01*
X152887450Y-135178743D01*
X152869330Y-135284959D01*
X152852121Y-135385836D01*
X152835885Y-135481026D01*
X152820679Y-135570183D01*
X152806562Y-135652961D01*
X152793595Y-135729011D01*
X152781836Y-135797987D01*
X152771344Y-135859543D01*
X152762178Y-135913331D01*
X152754398Y-135959006D01*
X152748063Y-135996219D01*
X152743232Y-136024624D01*
X152739963Y-136043875D01*
X152738317Y-136053624D01*
X152738120Y-136054827D01*
X152741720Y-136058436D01*
X152752350Y-136068884D01*
X152769759Y-136085927D01*
X152793697Y-136109321D01*
X152823911Y-136138820D01*
X152860150Y-136174180D01*
X152902164Y-136215155D01*
X152949700Y-136261501D01*
X153002508Y-136312973D01*
X153060335Y-136369326D01*
X153122931Y-136430315D01*
X153190044Y-136495695D01*
X153261423Y-136565221D01*
X153336817Y-136638649D01*
X153415973Y-136715733D01*
X153498642Y-136796230D01*
X153584570Y-136879893D01*
X153673508Y-136966478D01*
X153765203Y-137055740D01*
X153859405Y-137147434D01*
X153955862Y-137241315D01*
X154054322Y-137337139D01*
X154107523Y-137388913D01*
X154229928Y-137508042D01*
X154345229Y-137620280D01*
X154453612Y-137725812D01*
X154555264Y-137824821D01*
X154650374Y-137917491D01*
X154739128Y-138004006D01*
X154821713Y-138084549D01*
X154898317Y-138159306D01*
X154969127Y-138228460D01*
X155034329Y-138292194D01*
X155094113Y-138350693D01*
X155148663Y-138404141D01*
X155198169Y-138452721D01*
X155242817Y-138496618D01*
X155282794Y-138536016D01*
X155318287Y-138571097D01*
X155349485Y-138602048D01*
X155376573Y-138629051D01*
X155399740Y-138652290D01*
X155419172Y-138671949D01*
X155435057Y-138688213D01*
X155447582Y-138701264D01*
X155456934Y-138711288D01*
X155463301Y-138718468D01*
X155466869Y-138722988D01*
X155467826Y-138725032D01*
X155467693Y-138725172D01*
X155462046Y-138726163D01*
X155446696Y-138728566D01*
X155421992Y-138732330D01*
X155388284Y-138737405D01*
X155345923Y-138743737D01*
X155295259Y-138751277D01*
X155236642Y-138759972D01*
X155170422Y-138769770D01*
X155096949Y-138780621D01*
X155016573Y-138792473D01*
X154929645Y-138805273D01*
X154836514Y-138818972D01*
X154737531Y-138833516D01*
X154633046Y-138848856D01*
X154523409Y-138864938D01*
X154408970Y-138881712D01*
X154290079Y-138899126D01*
X154167087Y-138917129D01*
X154040343Y-138935669D01*
X153910198Y-138954695D01*
X153777002Y-138974154D01*
X153641105Y-138993996D01*
X153576759Y-139003387D01*
X153439806Y-139023375D01*
X153305428Y-139042992D01*
X153173975Y-139062188D01*
X153045794Y-139080912D01*
X152921233Y-139099113D01*
X152800641Y-139116739D01*
X152684366Y-139133740D01*
X152572755Y-139150065D01*
X152466158Y-139165663D01*
X152364921Y-139180482D01*
X152269394Y-139194472D01*
X152179925Y-139207582D01*
X152096861Y-139219761D01*
X152020551Y-139230957D01*
X151951343Y-139241120D01*
X151889585Y-139250199D01*
X151835625Y-139258142D01*
X151789812Y-139264899D01*
X151752493Y-139270419D01*
X151724017Y-139274650D01*
X151704732Y-139277542D01*
X151694986Y-139279044D01*
X151693799Y-139279255D01*
X151691488Y-139283855D01*
X151684845Y-139297253D01*
X151674024Y-139319136D01*
X151659180Y-139349189D01*
X151640470Y-139387096D01*
X151618049Y-139432541D01*
X151592071Y-139485210D01*
X151562692Y-139544788D01*
X151530068Y-139610958D01*
X151494353Y-139683407D01*
X151455704Y-139761819D01*
X151414275Y-139845878D01*
X151370223Y-139935270D01*
X151323701Y-140029679D01*
X151274866Y-140128791D01*
X151223873Y-140232289D01*
X151170878Y-140339858D01*
X151116035Y-140451185D01*
X151059500Y-140565952D01*
X151001428Y-140683845D01*
X150941975Y-140804550D01*
X150881297Y-140927750D01*
X150849794Y-140991715D01*
X150788538Y-141116075D01*
X150728415Y-141238098D01*
X150669581Y-141357468D01*
X150612192Y-141473872D01*
X150556403Y-141586993D01*
X150502371Y-141696517D01*
X150450251Y-141802127D01*
X150400199Y-141903510D01*
X150352371Y-142000350D01*
X150306923Y-142092332D01*
X150264011Y-142179140D01*
X150223790Y-142260460D01*
X150186417Y-142335976D01*
X150152047Y-142405374D01*
X150120835Y-142468337D01*
X150092939Y-142524552D01*
X150068514Y-142573702D01*
X150047715Y-142615473D01*
X150030699Y-142649550D01*
X150017621Y-142675617D01*
X150008638Y-142693359D01*
X150003904Y-142702461D01*
X150003176Y-142703675D01*
X150000669Y-142699230D01*
X150000669Y-142699230D01*
G37*
X150000669Y-142699230D02*
X149993818Y-142685991D01*
X149982780Y-142664271D01*
X149967712Y-142634386D01*
X149948770Y-142596650D01*
X149926109Y-142551378D01*
X149899887Y-142498883D01*
X149870260Y-142439481D01*
X149837384Y-142373487D01*
X149801415Y-142301214D01*
X149762510Y-142222977D01*
X149720825Y-142139092D01*
X149676517Y-142049872D01*
X149629741Y-141955632D01*
X149580655Y-141856687D01*
X149529414Y-141753351D01*
X149476175Y-141645938D01*
X149421094Y-141534764D01*
X149364328Y-141420143D01*
X149306032Y-141302389D01*
X149246364Y-141181817D01*
X149185479Y-141058742D01*
X149153975Y-140995040D01*
X149092504Y-140870760D01*
X149032158Y-140748802D01*
X148973092Y-140629481D01*
X148915464Y-140513113D01*
X148859430Y-140400014D01*
X148805149Y-140290499D01*
X148752776Y-140184884D01*
X148702469Y-140083485D01*
X148654384Y-139986617D01*
X148608679Y-139894596D01*
X148565510Y-139807738D01*
X148525035Y-139726358D01*
X148487411Y-139650771D01*
X148452794Y-139581295D01*
X148421341Y-139518244D01*
X148393210Y-139461933D01*
X148368557Y-139412679D01*
X148347539Y-139370798D01*
X148330313Y-139336604D01*
X148317037Y-139310413D01*
X148307867Y-139292542D01*
X148302960Y-139283306D01*
X148302152Y-139282023D01*
X148296703Y-139281042D01*
X148281548Y-139278667D01*
X148257042Y-139274948D01*
X148223536Y-139269937D01*
X148181382Y-139263685D01*
X148130932Y-139256243D01*
X148072539Y-139247662D01*
X148006555Y-139237995D01*
X147933332Y-139227291D01*
X147853222Y-139215603D01*
X147766578Y-139202981D01*
X147673751Y-139189477D01*
X147575094Y-139175142D01*
X147470960Y-139160027D01*
X147361700Y-139144184D01*
X147247666Y-139127664D01*
X147129211Y-139110518D01*
X147006686Y-139092798D01*
X146880445Y-139074554D01*
X146750840Y-139055838D01*
X146618221Y-139036701D01*
X146482943Y-139017194D01*
X146441460Y-139011215D01*
X146276144Y-138987392D01*
X146120588Y-138964975D01*
X145974495Y-138943922D01*
X145837570Y-138924189D01*
X145709517Y-138905732D01*
X145590039Y-138888508D01*
X145478841Y-138872474D01*
X145375626Y-138857585D01*
X145280099Y-138843799D01*
X145191963Y-138831072D01*
X145110922Y-138819361D01*
X145036680Y-138808622D01*
X144968941Y-138798811D01*
X144907409Y-138789885D01*
X144851788Y-138781801D01*
X144801782Y-138774515D01*
X144757095Y-138767984D01*
X144717430Y-138762164D01*
X144682492Y-138757012D01*
X144651984Y-138752484D01*
X144625611Y-138748536D01*
X144603076Y-138745126D01*
X144584084Y-138742210D01*
X144568338Y-138739744D01*
X144555542Y-138737685D01*
X144545400Y-138735989D01*
X144537615Y-138734613D01*
X144531893Y-138733514D01*
X144527937Y-138732647D01*
X144525451Y-138731970D01*
X144524138Y-138731439D01*
X144523702Y-138731010D01*
X144523849Y-138730640D01*
X144524281Y-138730286D01*
X144524702Y-138729904D01*
X144524795Y-138729749D01*
X144528501Y-138725976D01*
X144539223Y-138715360D01*
X144556702Y-138698154D01*
X144580681Y-138674608D01*
X144610903Y-138644974D01*
X144647109Y-138609505D01*
X144689043Y-138568452D01*
X144736446Y-138522067D01*
X144789061Y-138470602D01*
X144846631Y-138414307D01*
X144908898Y-138353437D01*
X144975604Y-138288241D01*
X145046492Y-138218972D01*
X145121305Y-138145881D01*
X145199783Y-138069221D01*
X145281671Y-137989243D01*
X145366710Y-137906198D01*
X145454643Y-137820340D01*
X145545213Y-137731919D01*
X145638161Y-137641187D01*
X145733230Y-137548395D01*
X145829320Y-137454619D01*
X145926905Y-137359388D01*
X146022933Y-137265671D01*
X146117131Y-137173734D01*
X146209227Y-137083845D01*
X146298945Y-136996271D01*
X146386012Y-136911280D01*
X146470154Y-136829140D01*
X146551098Y-136750116D01*
X146628570Y-136674478D01*
X146702295Y-136602491D01*
X146772001Y-136534424D01*
X146837413Y-136470544D01*
X146898257Y-136411118D01*
X146954260Y-136356414D01*
X147005149Y-136306699D01*
X147050648Y-136262240D01*
X147090484Y-136223305D01*
X147124385Y-136190161D01*
X147152075Y-136163075D01*
X147173281Y-136142315D01*
X147187729Y-136128149D01*
X147194627Y-136121357D01*
X147256914Y-136059657D01*
X146934404Y-134187759D01*
X146910897Y-134051330D01*
X146887818Y-133917415D01*
X146865229Y-133786364D01*
X146843189Y-133658526D01*
X146821759Y-133534252D01*
X146801000Y-133413889D01*
X146780972Y-133297789D01*
X146761734Y-133186301D01*
X146743349Y-133079773D01*
X146725875Y-132978556D01*
X146709373Y-132883000D01*
X146693905Y-132793453D01*
X146679529Y-132710266D01*
X146666307Y-132633788D01*
X146654298Y-132564368D01*
X146643564Y-132502356D01*
X146634164Y-132448101D01*
X146626160Y-132401954D01*
X146619610Y-132364263D01*
X146614576Y-132335379D01*
X146611119Y-132315650D01*
X146609298Y-132305427D01*
X146609028Y-132304020D01*
X146608511Y-132295190D01*
X146613181Y-132293860D01*
X146618141Y-132296317D01*
X146631785Y-132303334D01*
X146653798Y-132314746D01*
X146683870Y-132330390D01*
X146721686Y-132350102D01*
X146766935Y-132373719D01*
X146819303Y-132401077D01*
X146878479Y-132432011D01*
X146944149Y-132466360D01*
X147016000Y-132503957D01*
X147093721Y-132544641D01*
X147176999Y-132588247D01*
X147265520Y-132634612D01*
X147358972Y-132683572D01*
X147457043Y-132734962D01*
X147559421Y-132788621D01*
X147665791Y-132844383D01*
X147775842Y-132902086D01*
X147889261Y-132961565D01*
X148005736Y-133022656D01*
X148124954Y-133085197D01*
X148246601Y-133149024D01*
X148307371Y-133180912D01*
X149994541Y-134066284D01*
X150021401Y-134052735D01*
X150027829Y-134049393D01*
X150042926Y-134041484D01*
X150066373Y-134029175D01*
X150097850Y-134012636D01*
X150137037Y-133992035D01*
X150183615Y-133967539D01*
X150237264Y-133939318D01*
X150297664Y-133907538D01*
X150364496Y-133872370D01*
X150437440Y-133833980D01*
X150516177Y-133792537D01*
X150600386Y-133748209D01*
X150689748Y-133701165D01*
X150783944Y-133651573D01*
X150882654Y-133599601D01*
X150985558Y-133545417D01*
X151092336Y-133489190D01*
X151202669Y-133431088D01*
X151316238Y-133371279D01*
X151432722Y-133309932D01*
X151551801Y-133247213D01*
X151673158Y-133183293D01*
X151710634Y-133163553D01*
X151832358Y-133099440D01*
X151951785Y-133036545D01*
X152068600Y-132975032D01*
X152182490Y-132915066D01*
X152293143Y-132856812D01*
X152400244Y-132800435D01*
X152503480Y-132746099D01*
X152602537Y-132693970D01*
X152697102Y-132644213D01*
X152786861Y-132596992D01*
X152871501Y-132552473D01*
X152950708Y-132510819D01*
X153024170Y-132472197D01*
X153091571Y-132436771D01*
X153152600Y-132404705D01*
X153206941Y-132376165D01*
X153254283Y-132351315D01*
X153294311Y-132330321D01*
X153326711Y-132313348D01*
X153351171Y-132300559D01*
X153367376Y-132292120D01*
X153375014Y-132288197D01*
X153375604Y-132287920D01*
X153377901Y-132292073D01*
X153378200Y-132295681D01*
X153377355Y-132301200D01*
X153374857Y-132316386D01*
X153370767Y-132340890D01*
X153365144Y-132374363D01*
X153358046Y-132416458D01*
X153349534Y-132466826D01*
X153339666Y-132525119D01*
X153328501Y-132590988D01*
X153316099Y-132664085D01*
X153302519Y-132744062D01*
X153287820Y-132830569D01*
X153272061Y-132923260D01*
X153255302Y-133021785D01*
X153237602Y-133125796D01*
X153219020Y-133234945D01*
X153199615Y-133348883D01*
X153179447Y-133467262D01*
X153158574Y-133589734D01*
X153137057Y-133715950D01*
X153114953Y-133845562D01*
X153092323Y-133978222D01*
X153069225Y-134113580D01*
X153058160Y-134178406D01*
X153034871Y-134314853D01*
X153012020Y-134448735D01*
X152989668Y-134579706D01*
X152967873Y-134707418D01*
X152946694Y-134831525D01*
X152926192Y-134951679D01*
X152906424Y-135067534D01*
X152887450Y-135178743D01*
X152869330Y-135284959D01*
X152852121Y-135385836D01*
X152835885Y-135481026D01*
X152820679Y-135570183D01*
X152806562Y-135652961D01*
X152793595Y-135729011D01*
X152781836Y-135797987D01*
X152771344Y-135859543D01*
X152762178Y-135913331D01*
X152754398Y-135959006D01*
X152748063Y-135996219D01*
X152743232Y-136024624D01*
X152739963Y-136043875D01*
X152738317Y-136053624D01*
X152738120Y-136054827D01*
X152741720Y-136058436D01*
X152752350Y-136068884D01*
X152769759Y-136085927D01*
X152793697Y-136109321D01*
X152823911Y-136138820D01*
X152860150Y-136174180D01*
X152902164Y-136215155D01*
X152949700Y-136261501D01*
X153002508Y-136312973D01*
X153060335Y-136369326D01*
X153122931Y-136430315D01*
X153190044Y-136495695D01*
X153261423Y-136565221D01*
X153336817Y-136638649D01*
X153415973Y-136715733D01*
X153498642Y-136796230D01*
X153584570Y-136879893D01*
X153673508Y-136966478D01*
X153765203Y-137055740D01*
X153859405Y-137147434D01*
X153955862Y-137241315D01*
X154054322Y-137337139D01*
X154107523Y-137388913D01*
X154229928Y-137508042D01*
X154345229Y-137620280D01*
X154453612Y-137725812D01*
X154555264Y-137824821D01*
X154650374Y-137917491D01*
X154739128Y-138004006D01*
X154821713Y-138084549D01*
X154898317Y-138159306D01*
X154969127Y-138228460D01*
X155034329Y-138292194D01*
X155094113Y-138350693D01*
X155148663Y-138404141D01*
X155198169Y-138452721D01*
X155242817Y-138496618D01*
X155282794Y-138536016D01*
X155318287Y-138571097D01*
X155349485Y-138602048D01*
X155376573Y-138629051D01*
X155399740Y-138652290D01*
X155419172Y-138671949D01*
X155435057Y-138688213D01*
X155447582Y-138701264D01*
X155456934Y-138711288D01*
X155463301Y-138718468D01*
X155466869Y-138722988D01*
X155467826Y-138725032D01*
X155467693Y-138725172D01*
X155462046Y-138726163D01*
X155446696Y-138728566D01*
X155421992Y-138732330D01*
X155388284Y-138737405D01*
X155345923Y-138743737D01*
X155295259Y-138751277D01*
X155236642Y-138759972D01*
X155170422Y-138769770D01*
X155096949Y-138780621D01*
X155016573Y-138792473D01*
X154929645Y-138805273D01*
X154836514Y-138818972D01*
X154737531Y-138833516D01*
X154633046Y-138848856D01*
X154523409Y-138864938D01*
X154408970Y-138881712D01*
X154290079Y-138899126D01*
X154167087Y-138917129D01*
X154040343Y-138935669D01*
X153910198Y-138954695D01*
X153777002Y-138974154D01*
X153641105Y-138993996D01*
X153576759Y-139003387D01*
X153439806Y-139023375D01*
X153305428Y-139042992D01*
X153173975Y-139062188D01*
X153045794Y-139080912D01*
X152921233Y-139099113D01*
X152800641Y-139116739D01*
X152684366Y-139133740D01*
X152572755Y-139150065D01*
X152466158Y-139165663D01*
X152364921Y-139180482D01*
X152269394Y-139194472D01*
X152179925Y-139207582D01*
X152096861Y-139219761D01*
X152020551Y-139230957D01*
X151951343Y-139241120D01*
X151889585Y-139250199D01*
X151835625Y-139258142D01*
X151789812Y-139264899D01*
X151752493Y-139270419D01*
X151724017Y-139274650D01*
X151704732Y-139277542D01*
X151694986Y-139279044D01*
X151693799Y-139279255D01*
X151691488Y-139283855D01*
X151684845Y-139297253D01*
X151674024Y-139319136D01*
X151659180Y-139349189D01*
X151640470Y-139387096D01*
X151618049Y-139432541D01*
X151592071Y-139485210D01*
X151562692Y-139544788D01*
X151530068Y-139610958D01*
X151494353Y-139683407D01*
X151455704Y-139761819D01*
X151414275Y-139845878D01*
X151370223Y-139935270D01*
X151323701Y-140029679D01*
X151274866Y-140128791D01*
X151223873Y-140232289D01*
X151170878Y-140339858D01*
X151116035Y-140451185D01*
X151059500Y-140565952D01*
X151001428Y-140683845D01*
X150941975Y-140804550D01*
X150881297Y-140927750D01*
X150849794Y-140991715D01*
X150788538Y-141116075D01*
X150728415Y-141238098D01*
X150669581Y-141357468D01*
X150612192Y-141473872D01*
X150556403Y-141586993D01*
X150502371Y-141696517D01*
X150450251Y-141802127D01*
X150400199Y-141903510D01*
X150352371Y-142000350D01*
X150306923Y-142092332D01*
X150264011Y-142179140D01*
X150223790Y-142260460D01*
X150186417Y-142335976D01*
X150152047Y-142405374D01*
X150120835Y-142468337D01*
X150092939Y-142524552D01*
X150068514Y-142573702D01*
X150047715Y-142615473D01*
X150030699Y-142649550D01*
X150017621Y-142675617D01*
X150008638Y-142693359D01*
X150003904Y-142702461D01*
X150003176Y-142703675D01*
X150000669Y-142699230D01*
G36*
X119807558Y-130193388D02*
X119812075Y-130179182D01*
X119819629Y-130156019D01*
X119830106Y-130124232D01*
X119843395Y-130084155D01*
X119859384Y-130036119D01*
X119877961Y-129980457D01*
X119899015Y-129917504D01*
X119922433Y-129847593D01*
X119948104Y-129771054D01*
X119975916Y-129688222D01*
X120005756Y-129599431D01*
X120037514Y-129505012D01*
X120071076Y-129405299D01*
X120106331Y-129300625D01*
X120143168Y-129191323D01*
X120181475Y-129077725D01*
X120221139Y-128960165D01*
X120262048Y-128838976D01*
X120304091Y-128714490D01*
X120347157Y-128587041D01*
X120391132Y-128456961D01*
X120413900Y-128389640D01*
X120458312Y-128258295D01*
X120501878Y-128129386D01*
X120544485Y-128003248D01*
X120586021Y-127880214D01*
X120626372Y-127760619D01*
X120665428Y-127644798D01*
X120703076Y-127533083D01*
X120739203Y-127425811D01*
X120773698Y-127323314D01*
X120806448Y-127225927D01*
X120837341Y-127133984D01*
X120866265Y-127047819D01*
X120893109Y-126967767D01*
X120917758Y-126894162D01*
X120940101Y-126827338D01*
X120960028Y-126767628D01*
X120977423Y-126715368D01*
X120992176Y-126670892D01*
X121004174Y-126634532D01*
X121013306Y-126606625D01*
X121019459Y-126587504D01*
X121022520Y-126577503D01*
X121022856Y-126576025D01*
X121019696Y-126571478D01*
X121010659Y-126559082D01*
X120995961Y-126539124D01*
X120975812Y-126511889D01*
X120950425Y-126477661D01*
X120920014Y-126436725D01*
X120884792Y-126389367D01*
X120844969Y-126335874D01*
X120800762Y-126276528D01*
X120752380Y-126211617D01*
X120700039Y-126141426D01*
X120643949Y-126066238D01*
X120584324Y-125986341D01*
X120521378Y-125902019D01*
X120455323Y-125813558D01*
X120386370Y-125721242D01*
X120314733Y-125625358D01*
X120240625Y-125526190D01*
X120164260Y-125424023D01*
X120085849Y-125319145D01*
X120005605Y-125211837D01*
X119923743Y-125102387D01*
X119898638Y-125068827D01*
X119798587Y-124935085D01*
X119704444Y-124809239D01*
X119616027Y-124691049D01*
X119533160Y-124580275D01*
X119455664Y-124476677D01*
X119383359Y-124380014D01*
X119316068Y-124290047D01*
X119253612Y-124206535D01*
X119195813Y-124129239D01*
X119142490Y-124057918D01*
X119093467Y-123992333D01*
X119048563Y-123932242D01*
X119007602Y-123877406D01*
X118970404Y-123827585D01*
X118936790Y-123782539D01*
X118906583Y-123742027D01*
X118879602Y-123705810D01*
X118855670Y-123673648D01*
X118834608Y-123645300D01*
X118816238Y-123620526D01*
X118800381Y-123599085D01*
X118786857Y-123580739D01*
X118775490Y-123565248D01*
X118766100Y-123552370D01*
X118758507Y-123541866D01*
X118752535Y-123533496D01*
X118748003Y-123527018D01*
X118744734Y-123522195D01*
X118742550Y-123518784D01*
X118741271Y-123516548D01*
X118740718Y-123515244D01*
X118740713Y-123514632D01*
X118741079Y-123514474D01*
X118741634Y-123514530D01*
X118742202Y-123514557D01*
X118742378Y-123514513D01*
X118747666Y-123514466D01*
X118762754Y-123514541D01*
X118787280Y-123514734D01*
X118820886Y-123515040D01*
X118863210Y-123515456D01*
X118913892Y-123515977D01*
X118972573Y-123516600D01*
X119038891Y-123517320D01*
X119112486Y-123518133D01*
X119193001Y-123519035D01*
X119280072Y-123520022D01*
X119373341Y-123521090D01*
X119472447Y-123522235D01*
X119577031Y-123523453D01*
X119686730Y-123524738D01*
X119801187Y-123526089D01*
X119920040Y-123527499D01*
X120042929Y-123528966D01*
X120169494Y-123530485D01*
X120299376Y-123532052D01*
X120432214Y-123533662D01*
X120566469Y-123535299D01*
X120702811Y-123536963D01*
X120836981Y-123538597D01*
X120968598Y-123540196D01*
X121097281Y-123541757D01*
X121222645Y-123543273D01*
X121344308Y-123544741D01*
X121461888Y-123546156D01*
X121575002Y-123547514D01*
X121683267Y-123548811D01*
X121786301Y-123550040D01*
X121883721Y-123551199D01*
X121975145Y-123552282D01*
X122060188Y-123553285D01*
X122138470Y-123554203D01*
X122209608Y-123555033D01*
X122273218Y-123555769D01*
X122328917Y-123556406D01*
X122376325Y-123556941D01*
X122415058Y-123557368D01*
X122444732Y-123557684D01*
X122464965Y-123557883D01*
X122474646Y-123557958D01*
X122562318Y-123558373D01*
X123657900Y-122006692D01*
X123737748Y-121893600D01*
X123816121Y-121782589D01*
X123892815Y-121673949D01*
X123967626Y-121567969D01*
X124040348Y-121464941D01*
X124110778Y-121365153D01*
X124178711Y-121268896D01*
X124243942Y-121176458D01*
X124306268Y-121088132D01*
X124365484Y-121004204D01*
X124421383Y-120924967D01*
X124473765Y-120850711D01*
X124522422Y-120781723D01*
X124567151Y-120718296D01*
X124607746Y-120660717D01*
X124644005Y-120609277D01*
X124675723Y-120564266D01*
X124702694Y-120525976D01*
X124724714Y-120494693D01*
X124741578Y-120470709D01*
X124753084Y-120454314D01*
X124759025Y-120445798D01*
X124759829Y-120444612D01*
X124765708Y-120438003D01*
X124769950Y-120440364D01*
X124771720Y-120445609D01*
X124776406Y-120460219D01*
X124783902Y-120483854D01*
X124794104Y-120516180D01*
X124806906Y-120556858D01*
X124822202Y-120605554D01*
X124839887Y-120661929D01*
X124859857Y-120725646D01*
X124882004Y-120796370D01*
X124906225Y-120873761D01*
X124932414Y-120957486D01*
X124960467Y-121047207D01*
X124990275Y-121142586D01*
X125021736Y-121243286D01*
X125054745Y-121348971D01*
X125089194Y-121459306D01*
X125124979Y-121573951D01*
X125161995Y-121692571D01*
X125200136Y-121814828D01*
X125239299Y-121940386D01*
X125279375Y-122068909D01*
X125320260Y-122200059D01*
X125340683Y-122265578D01*
X125907640Y-124084640D01*
X125936213Y-124094052D01*
X125943122Y-124096234D01*
X125959389Y-124101317D01*
X125984673Y-124109193D01*
X126018625Y-124119756D01*
X126060902Y-124132898D01*
X126111159Y-124148512D01*
X126169049Y-124166493D01*
X126234230Y-124186730D01*
X126306355Y-124209120D01*
X126385080Y-124233553D01*
X126470060Y-124259924D01*
X126560950Y-124288124D01*
X126657403Y-124318047D01*
X126759077Y-124349587D01*
X126865625Y-124382636D01*
X126976703Y-124417086D01*
X127091965Y-124452831D01*
X127211067Y-124489764D01*
X127333663Y-124527778D01*
X127459409Y-124566766D01*
X127587960Y-124606618D01*
X127718970Y-124647233D01*
X127759428Y-124659774D01*
X127890835Y-124700511D01*
X128019756Y-124740485D01*
X128145853Y-124779590D01*
X128268787Y-124817720D01*
X128388223Y-124854771D01*
X128503819Y-124890639D01*
X128615239Y-124925216D01*
X128722144Y-124958399D01*
X128824195Y-124990083D01*
X128921055Y-125020162D01*
X129012384Y-125048532D01*
X129097845Y-125075086D01*
X129177101Y-125099722D01*
X129249810Y-125122331D01*
X129315638Y-125142811D01*
X129374244Y-125161055D01*
X129425292Y-125176959D01*
X129468441Y-125190419D01*
X129503353Y-125201327D01*
X129529692Y-125209580D01*
X129547118Y-125215071D01*
X129555293Y-125217698D01*
X129555906Y-125217919D01*
X129554593Y-125222480D01*
X129552253Y-125225243D01*
X129547753Y-125228548D01*
X129535249Y-125237520D01*
X129515030Y-125251955D01*
X129487385Y-125271647D01*
X129452600Y-125296394D01*
X129410966Y-125325991D01*
X129362769Y-125360232D01*
X129308297Y-125398914D01*
X129247840Y-125441832D01*
X129181686Y-125488782D01*
X129110122Y-125539557D01*
X129033436Y-125593957D01*
X128951918Y-125651774D01*
X128865856Y-125712805D01*
X128775536Y-125776846D01*
X128681248Y-125843690D01*
X128583281Y-125913136D01*
X128481921Y-125984977D01*
X128377458Y-126059011D01*
X128270178Y-126135030D01*
X128160372Y-126212833D01*
X128048326Y-126292213D01*
X127994663Y-126330228D01*
X127881713Y-126410243D01*
X127770886Y-126488754D01*
X127662470Y-126565559D01*
X127556753Y-126640453D01*
X127454020Y-126713235D01*
X127354561Y-126783699D01*
X127258661Y-126851643D01*
X127166608Y-126916863D01*
X127078689Y-126979156D01*
X126995190Y-127038318D01*
X126916400Y-127094147D01*
X126842604Y-127146439D01*
X126774089Y-127194989D01*
X126711144Y-127239596D01*
X126654056Y-127280054D01*
X126603110Y-127316162D01*
X126558595Y-127347714D01*
X126520797Y-127374510D01*
X126490004Y-127396344D01*
X126466502Y-127413014D01*
X126450578Y-127424315D01*
X126442521Y-127430044D01*
X126441531Y-127430756D01*
X126441524Y-127435853D01*
X126441653Y-127450758D01*
X126441912Y-127475119D01*
X126442297Y-127508588D01*
X126442802Y-127550811D01*
X126443424Y-127601439D01*
X126444158Y-127660121D01*
X126445000Y-127726506D01*
X126445945Y-127800243D01*
X126446987Y-127880980D01*
X126448123Y-127968368D01*
X126449349Y-128062055D01*
X126450659Y-128161690D01*
X126452049Y-128266923D01*
X126453514Y-128377401D01*
X126455050Y-128492777D01*
X126456652Y-128612696D01*
X126458315Y-128736809D01*
X126460036Y-128864765D01*
X126461809Y-128996214D01*
X126463631Y-129130803D01*
X126465495Y-129268182D01*
X126466504Y-129342411D01*
X126468820Y-129513201D01*
X126470986Y-129674096D01*
X126473002Y-129825356D01*
X126474871Y-129967245D01*
X126476596Y-130100026D01*
X126478179Y-130223960D01*
X126479623Y-130339309D01*
X126480929Y-130446337D01*
X126482100Y-130545306D01*
X126483138Y-130636478D01*
X126484047Y-130720117D01*
X126484826Y-130796483D01*
X126485481Y-130865840D01*
X126486012Y-130928451D01*
X126486422Y-130984577D01*
X126486713Y-131034481D01*
X126486888Y-131078427D01*
X126486948Y-131116675D01*
X126486897Y-131149489D01*
X126486736Y-131177130D01*
X126486468Y-131199863D01*
X126486096Y-131217948D01*
X126485621Y-131231649D01*
X126485046Y-131241228D01*
X126484373Y-131246947D01*
X126483604Y-131249069D01*
X126483411Y-131249074D01*
X126478718Y-131245782D01*
X126466164Y-131236627D01*
X126446034Y-131221820D01*
X126418611Y-131201574D01*
X126384180Y-131176097D01*
X126343023Y-131145604D01*
X126295426Y-131110304D01*
X126241673Y-131070407D01*
X126182047Y-131026127D01*
X126116832Y-130977673D01*
X126046314Y-130925257D01*
X125970774Y-130869090D01*
X125890498Y-130809383D01*
X125805769Y-130746347D01*
X125716872Y-130680194D01*
X125624091Y-130611135D01*
X125527708Y-130539379D01*
X125428010Y-130465141D01*
X125325279Y-130388629D01*
X125219799Y-130310056D01*
X125111855Y-130229632D01*
X125001731Y-130147569D01*
X124949591Y-130108710D01*
X124838617Y-130026003D01*
X124729726Y-129944855D01*
X124623202Y-129865477D01*
X124519324Y-129788079D01*
X124418376Y-129712871D01*
X124320641Y-129640063D01*
X124226401Y-129569866D01*
X124135936Y-129502489D01*
X124049531Y-129438143D01*
X123967467Y-129377036D01*
X123890027Y-129319381D01*
X123817493Y-129265387D01*
X123750146Y-129215263D01*
X123688270Y-129169221D01*
X123632146Y-129127470D01*
X123582057Y-129090220D01*
X123538285Y-129057681D01*
X123501112Y-129030064D01*
X123470820Y-129007579D01*
X123447693Y-128990435D01*
X123432012Y-128978844D01*
X123424058Y-128973014D01*
X123423069Y-128972324D01*
X123418183Y-128973943D01*
X123404012Y-128978719D01*
X123380886Y-128986541D01*
X123349139Y-128997296D01*
X123309105Y-129010870D01*
X123261117Y-129027150D01*
X123205505Y-129046024D01*
X123142603Y-129067378D01*
X123072745Y-129091098D01*
X122996261Y-129117073D01*
X122913487Y-129145190D01*
X122824753Y-129175334D01*
X122730394Y-129207394D01*
X122630741Y-129241255D01*
X122526126Y-129276806D01*
X122416885Y-129313933D01*
X122303349Y-129352523D01*
X122185849Y-129392463D01*
X122064720Y-129433639D01*
X121940294Y-129475939D01*
X121812903Y-129519251D01*
X121682882Y-129563460D01*
X121615376Y-129586414D01*
X121484125Y-129631036D01*
X121355329Y-129674806D01*
X121229319Y-129717611D01*
X121106429Y-129759341D01*
X120986992Y-129799881D01*
X120871340Y-129839120D01*
X120759808Y-129876943D01*
X120652728Y-129913239D01*
X120550432Y-129947896D01*
X120453254Y-129980800D01*
X120361528Y-130011840D01*
X120275586Y-130040901D01*
X120195761Y-130067872D01*
X120122386Y-130092641D01*
X120055794Y-130115092D01*
X119996319Y-130135117D01*
X119944294Y-130152600D01*
X119900050Y-130167429D01*
X119863922Y-130179493D01*
X119836242Y-130188678D01*
X119817345Y-130194871D01*
X119807561Y-130197960D01*
X119806188Y-130198304D01*
X119807558Y-130193388D01*
X119807558Y-130193388D01*
G37*
X119807558Y-130193388D02*
X119812075Y-130179182D01*
X119819629Y-130156019D01*
X119830106Y-130124232D01*
X119843395Y-130084155D01*
X119859384Y-130036119D01*
X119877961Y-129980457D01*
X119899015Y-129917504D01*
X119922433Y-129847593D01*
X119948104Y-129771054D01*
X119975916Y-129688222D01*
X120005756Y-129599431D01*
X120037514Y-129505012D01*
X120071076Y-129405299D01*
X120106331Y-129300625D01*
X120143168Y-129191323D01*
X120181475Y-129077725D01*
X120221139Y-128960165D01*
X120262048Y-128838976D01*
X120304091Y-128714490D01*
X120347157Y-128587041D01*
X120391132Y-128456961D01*
X120413900Y-128389640D01*
X120458312Y-128258295D01*
X120501878Y-128129386D01*
X120544485Y-128003248D01*
X120586021Y-127880214D01*
X120626372Y-127760619D01*
X120665428Y-127644798D01*
X120703076Y-127533083D01*
X120739203Y-127425811D01*
X120773698Y-127323314D01*
X120806448Y-127225927D01*
X120837341Y-127133984D01*
X120866265Y-127047819D01*
X120893109Y-126967767D01*
X120917758Y-126894162D01*
X120940101Y-126827338D01*
X120960028Y-126767628D01*
X120977423Y-126715368D01*
X120992176Y-126670892D01*
X121004174Y-126634532D01*
X121013306Y-126606625D01*
X121019459Y-126587504D01*
X121022520Y-126577503D01*
X121022856Y-126576025D01*
X121019696Y-126571478D01*
X121010659Y-126559082D01*
X120995961Y-126539124D01*
X120975812Y-126511889D01*
X120950425Y-126477661D01*
X120920014Y-126436725D01*
X120884792Y-126389367D01*
X120844969Y-126335874D01*
X120800762Y-126276528D01*
X120752380Y-126211617D01*
X120700039Y-126141426D01*
X120643949Y-126066238D01*
X120584324Y-125986341D01*
X120521378Y-125902019D01*
X120455323Y-125813558D01*
X120386370Y-125721242D01*
X120314733Y-125625358D01*
X120240625Y-125526190D01*
X120164260Y-125424023D01*
X120085849Y-125319145D01*
X120005605Y-125211837D01*
X119923743Y-125102387D01*
X119898638Y-125068827D01*
X119798587Y-124935085D01*
X119704444Y-124809239D01*
X119616027Y-124691049D01*
X119533160Y-124580275D01*
X119455664Y-124476677D01*
X119383359Y-124380014D01*
X119316068Y-124290047D01*
X119253612Y-124206535D01*
X119195813Y-124129239D01*
X119142490Y-124057918D01*
X119093467Y-123992333D01*
X119048563Y-123932242D01*
X119007602Y-123877406D01*
X118970404Y-123827585D01*
X118936790Y-123782539D01*
X118906583Y-123742027D01*
X118879602Y-123705810D01*
X118855670Y-123673648D01*
X118834608Y-123645300D01*
X118816238Y-123620526D01*
X118800381Y-123599085D01*
X118786857Y-123580739D01*
X118775490Y-123565248D01*
X118766100Y-123552370D01*
X118758507Y-123541866D01*
X118752535Y-123533496D01*
X118748003Y-123527018D01*
X118744734Y-123522195D01*
X118742550Y-123518784D01*
X118741271Y-123516548D01*
X118740718Y-123515244D01*
X118740713Y-123514632D01*
X118741079Y-123514474D01*
X118741634Y-123514530D01*
X118742202Y-123514557D01*
X118742378Y-123514513D01*
X118747666Y-123514466D01*
X118762754Y-123514541D01*
X118787280Y-123514734D01*
X118820886Y-123515040D01*
X118863210Y-123515456D01*
X118913892Y-123515977D01*
X118972573Y-123516600D01*
X119038891Y-123517320D01*
X119112486Y-123518133D01*
X119193001Y-123519035D01*
X119280072Y-123520022D01*
X119373341Y-123521090D01*
X119472447Y-123522235D01*
X119577031Y-123523453D01*
X119686730Y-123524738D01*
X119801187Y-123526089D01*
X119920040Y-123527499D01*
X120042929Y-123528966D01*
X120169494Y-123530485D01*
X120299376Y-123532052D01*
X120432214Y-123533662D01*
X120566469Y-123535299D01*
X120702811Y-123536963D01*
X120836981Y-123538597D01*
X120968598Y-123540196D01*
X121097281Y-123541757D01*
X121222645Y-123543273D01*
X121344308Y-123544741D01*
X121461888Y-123546156D01*
X121575002Y-123547514D01*
X121683267Y-123548811D01*
X121786301Y-123550040D01*
X121883721Y-123551199D01*
X121975145Y-123552282D01*
X122060188Y-123553285D01*
X122138470Y-123554203D01*
X122209608Y-123555033D01*
X122273218Y-123555769D01*
X122328917Y-123556406D01*
X122376325Y-123556941D01*
X122415058Y-123557368D01*
X122444732Y-123557684D01*
X122464965Y-123557883D01*
X122474646Y-123557958D01*
X122562318Y-123558373D01*
X123657900Y-122006692D01*
X123737748Y-121893600D01*
X123816121Y-121782589D01*
X123892815Y-121673949D01*
X123967626Y-121567969D01*
X124040348Y-121464941D01*
X124110778Y-121365153D01*
X124178711Y-121268896D01*
X124243942Y-121176458D01*
X124306268Y-121088132D01*
X124365484Y-121004204D01*
X124421383Y-120924967D01*
X124473765Y-120850711D01*
X124522422Y-120781723D01*
X124567151Y-120718296D01*
X124607746Y-120660717D01*
X124644005Y-120609277D01*
X124675723Y-120564266D01*
X124702694Y-120525976D01*
X124724714Y-120494693D01*
X124741578Y-120470709D01*
X124753084Y-120454314D01*
X124759025Y-120445798D01*
X124759829Y-120444612D01*
X124765708Y-120438003D01*
X124769950Y-120440364D01*
X124771720Y-120445609D01*
X124776406Y-120460219D01*
X124783902Y-120483854D01*
X124794104Y-120516180D01*
X124806906Y-120556858D01*
X124822202Y-120605554D01*
X124839887Y-120661929D01*
X124859857Y-120725646D01*
X124882004Y-120796370D01*
X124906225Y-120873761D01*
X124932414Y-120957486D01*
X124960467Y-121047207D01*
X124990275Y-121142586D01*
X125021736Y-121243286D01*
X125054745Y-121348971D01*
X125089194Y-121459306D01*
X125124979Y-121573951D01*
X125161995Y-121692571D01*
X125200136Y-121814828D01*
X125239299Y-121940386D01*
X125279375Y-122068909D01*
X125320260Y-122200059D01*
X125340683Y-122265578D01*
X125907640Y-124084640D01*
X125936213Y-124094052D01*
X125943122Y-124096234D01*
X125959389Y-124101317D01*
X125984673Y-124109193D01*
X126018625Y-124119756D01*
X126060902Y-124132898D01*
X126111159Y-124148512D01*
X126169049Y-124166493D01*
X126234230Y-124186730D01*
X126306355Y-124209120D01*
X126385080Y-124233553D01*
X126470060Y-124259924D01*
X126560950Y-124288124D01*
X126657403Y-124318047D01*
X126759077Y-124349587D01*
X126865625Y-124382636D01*
X126976703Y-124417086D01*
X127091965Y-124452831D01*
X127211067Y-124489764D01*
X127333663Y-124527778D01*
X127459409Y-124566766D01*
X127587960Y-124606618D01*
X127718970Y-124647233D01*
X127759428Y-124659774D01*
X127890835Y-124700511D01*
X128019756Y-124740485D01*
X128145853Y-124779590D01*
X128268787Y-124817720D01*
X128388223Y-124854771D01*
X128503819Y-124890639D01*
X128615239Y-124925216D01*
X128722144Y-124958399D01*
X128824195Y-124990083D01*
X128921055Y-125020162D01*
X129012384Y-125048532D01*
X129097845Y-125075086D01*
X129177101Y-125099722D01*
X129249810Y-125122331D01*
X129315638Y-125142811D01*
X129374244Y-125161055D01*
X129425292Y-125176959D01*
X129468441Y-125190419D01*
X129503353Y-125201327D01*
X129529692Y-125209580D01*
X129547118Y-125215071D01*
X129555293Y-125217698D01*
X129555906Y-125217919D01*
X129554593Y-125222480D01*
X129552253Y-125225243D01*
X129547753Y-125228548D01*
X129535249Y-125237520D01*
X129515030Y-125251955D01*
X129487385Y-125271647D01*
X129452600Y-125296394D01*
X129410966Y-125325991D01*
X129362769Y-125360232D01*
X129308297Y-125398914D01*
X129247840Y-125441832D01*
X129181686Y-125488782D01*
X129110122Y-125539557D01*
X129033436Y-125593957D01*
X128951918Y-125651774D01*
X128865856Y-125712805D01*
X128775536Y-125776846D01*
X128681248Y-125843690D01*
X128583281Y-125913136D01*
X128481921Y-125984977D01*
X128377458Y-126059011D01*
X128270178Y-126135030D01*
X128160372Y-126212833D01*
X128048326Y-126292213D01*
X127994663Y-126330228D01*
X127881713Y-126410243D01*
X127770886Y-126488754D01*
X127662470Y-126565559D01*
X127556753Y-126640453D01*
X127454020Y-126713235D01*
X127354561Y-126783699D01*
X127258661Y-126851643D01*
X127166608Y-126916863D01*
X127078689Y-126979156D01*
X126995190Y-127038318D01*
X126916400Y-127094147D01*
X126842604Y-127146439D01*
X126774089Y-127194989D01*
X126711144Y-127239596D01*
X126654056Y-127280054D01*
X126603110Y-127316162D01*
X126558595Y-127347714D01*
X126520797Y-127374510D01*
X126490004Y-127396344D01*
X126466502Y-127413014D01*
X126450578Y-127424315D01*
X126442521Y-127430044D01*
X126441531Y-127430756D01*
X126441524Y-127435853D01*
X126441653Y-127450758D01*
X126441912Y-127475119D01*
X126442297Y-127508588D01*
X126442802Y-127550811D01*
X126443424Y-127601439D01*
X126444158Y-127660121D01*
X126445000Y-127726506D01*
X126445945Y-127800243D01*
X126446987Y-127880980D01*
X126448123Y-127968368D01*
X126449349Y-128062055D01*
X126450659Y-128161690D01*
X126452049Y-128266923D01*
X126453514Y-128377401D01*
X126455050Y-128492777D01*
X126456652Y-128612696D01*
X126458315Y-128736809D01*
X126460036Y-128864765D01*
X126461809Y-128996214D01*
X126463631Y-129130803D01*
X126465495Y-129268182D01*
X126466504Y-129342411D01*
X126468820Y-129513201D01*
X126470986Y-129674096D01*
X126473002Y-129825356D01*
X126474871Y-129967245D01*
X126476596Y-130100026D01*
X126478179Y-130223960D01*
X126479623Y-130339309D01*
X126480929Y-130446337D01*
X126482100Y-130545306D01*
X126483138Y-130636478D01*
X126484047Y-130720117D01*
X126484826Y-130796483D01*
X126485481Y-130865840D01*
X126486012Y-130928451D01*
X126486422Y-130984577D01*
X126486713Y-131034481D01*
X126486888Y-131078427D01*
X126486948Y-131116675D01*
X126486897Y-131149489D01*
X126486736Y-131177130D01*
X126486468Y-131199863D01*
X126486096Y-131217948D01*
X126485621Y-131231649D01*
X126485046Y-131241228D01*
X126484373Y-131246947D01*
X126483604Y-131249069D01*
X126483411Y-131249074D01*
X126478718Y-131245782D01*
X126466164Y-131236627D01*
X126446034Y-131221820D01*
X126418611Y-131201574D01*
X126384180Y-131176097D01*
X126343023Y-131145604D01*
X126295426Y-131110304D01*
X126241673Y-131070407D01*
X126182047Y-131026127D01*
X126116832Y-130977673D01*
X126046314Y-130925257D01*
X125970774Y-130869090D01*
X125890498Y-130809383D01*
X125805769Y-130746347D01*
X125716872Y-130680194D01*
X125624091Y-130611135D01*
X125527708Y-130539379D01*
X125428010Y-130465141D01*
X125325279Y-130388629D01*
X125219799Y-130310056D01*
X125111855Y-130229632D01*
X125001731Y-130147569D01*
X124949591Y-130108710D01*
X124838617Y-130026003D01*
X124729726Y-129944855D01*
X124623202Y-129865477D01*
X124519324Y-129788079D01*
X124418376Y-129712871D01*
X124320641Y-129640063D01*
X124226401Y-129569866D01*
X124135936Y-129502489D01*
X124049531Y-129438143D01*
X123967467Y-129377036D01*
X123890027Y-129319381D01*
X123817493Y-129265387D01*
X123750146Y-129215263D01*
X123688270Y-129169221D01*
X123632146Y-129127470D01*
X123582057Y-129090220D01*
X123538285Y-129057681D01*
X123501112Y-129030064D01*
X123470820Y-129007579D01*
X123447693Y-128990435D01*
X123432012Y-128978844D01*
X123424058Y-128973014D01*
X123423069Y-128972324D01*
X123418183Y-128973943D01*
X123404012Y-128978719D01*
X123380886Y-128986541D01*
X123349139Y-128997296D01*
X123309105Y-129010870D01*
X123261117Y-129027150D01*
X123205505Y-129046024D01*
X123142603Y-129067378D01*
X123072745Y-129091098D01*
X122996261Y-129117073D01*
X122913487Y-129145190D01*
X122824753Y-129175334D01*
X122730394Y-129207394D01*
X122630741Y-129241255D01*
X122526126Y-129276806D01*
X122416885Y-129313933D01*
X122303349Y-129352523D01*
X122185849Y-129392463D01*
X122064720Y-129433639D01*
X121940294Y-129475939D01*
X121812903Y-129519251D01*
X121682882Y-129563460D01*
X121615376Y-129586414D01*
X121484125Y-129631036D01*
X121355329Y-129674806D01*
X121229319Y-129717611D01*
X121106429Y-129759341D01*
X120986992Y-129799881D01*
X120871340Y-129839120D01*
X120759808Y-129876943D01*
X120652728Y-129913239D01*
X120550432Y-129947896D01*
X120453254Y-129980800D01*
X120361528Y-130011840D01*
X120275586Y-130040901D01*
X120195761Y-130067872D01*
X120122386Y-130092641D01*
X120055794Y-130115092D01*
X119996319Y-130135117D01*
X119944294Y-130152600D01*
X119900050Y-130167429D01*
X119863922Y-130179493D01*
X119836242Y-130188678D01*
X119817345Y-130194871D01*
X119807561Y-130197960D01*
X119806188Y-130198304D01*
X119807558Y-130193388D01*
G36*
X107300770Y-100000669D02*
X107314009Y-99993818D01*
X107335729Y-99982780D01*
X107365614Y-99967712D01*
X107403350Y-99948770D01*
X107448622Y-99926109D01*
X107501117Y-99899887D01*
X107560519Y-99870260D01*
X107626513Y-99837384D01*
X107698786Y-99801415D01*
X107777023Y-99762510D01*
X107860908Y-99720825D01*
X107950128Y-99676517D01*
X108044368Y-99629741D01*
X108143313Y-99580655D01*
X108246649Y-99529414D01*
X108354062Y-99476175D01*
X108465236Y-99421094D01*
X108579857Y-99364328D01*
X108697611Y-99306032D01*
X108818183Y-99246364D01*
X108941258Y-99185479D01*
X109004960Y-99153975D01*
X109129240Y-99092504D01*
X109251198Y-99032158D01*
X109370519Y-98973092D01*
X109486887Y-98915464D01*
X109599986Y-98859430D01*
X109709501Y-98805149D01*
X109815116Y-98752776D01*
X109916515Y-98702469D01*
X110013383Y-98654384D01*
X110105404Y-98608679D01*
X110192262Y-98565510D01*
X110273642Y-98525035D01*
X110349229Y-98487411D01*
X110418705Y-98452794D01*
X110481756Y-98421341D01*
X110538067Y-98393210D01*
X110587321Y-98368557D01*
X110629202Y-98347539D01*
X110663396Y-98330313D01*
X110689587Y-98317037D01*
X110707458Y-98307867D01*
X110716694Y-98302960D01*
X110717977Y-98302152D01*
X110718958Y-98296703D01*
X110721333Y-98281548D01*
X110725052Y-98257042D01*
X110730063Y-98223536D01*
X110736315Y-98181382D01*
X110743757Y-98130932D01*
X110752338Y-98072539D01*
X110762005Y-98006555D01*
X110772709Y-97933332D01*
X110784397Y-97853222D01*
X110797019Y-97766578D01*
X110810523Y-97673751D01*
X110824858Y-97575094D01*
X110839973Y-97470960D01*
X110855816Y-97361700D01*
X110872336Y-97247666D01*
X110889482Y-97129211D01*
X110907202Y-97006686D01*
X110925446Y-96880445D01*
X110944162Y-96750840D01*
X110963299Y-96618221D01*
X110982806Y-96482943D01*
X110988785Y-96441460D01*
X111012608Y-96276144D01*
X111035025Y-96120588D01*
X111056078Y-95974495D01*
X111075811Y-95837570D01*
X111094268Y-95709517D01*
X111111492Y-95590039D01*
X111127526Y-95478841D01*
X111142415Y-95375626D01*
X111156201Y-95280099D01*
X111168928Y-95191963D01*
X111180639Y-95110922D01*
X111191378Y-95036680D01*
X111201189Y-94968941D01*
X111210115Y-94907409D01*
X111218199Y-94851788D01*
X111225485Y-94801782D01*
X111232016Y-94757095D01*
X111237836Y-94717430D01*
X111242988Y-94682492D01*
X111247516Y-94651984D01*
X111251464Y-94625611D01*
X111254874Y-94603076D01*
X111257790Y-94584084D01*
X111260256Y-94568338D01*
X111262315Y-94555542D01*
X111264011Y-94545400D01*
X111265387Y-94537615D01*
X111266486Y-94531893D01*
X111267353Y-94527937D01*
X111268030Y-94525451D01*
X111268561Y-94524138D01*
X111268990Y-94523702D01*
X111269360Y-94523849D01*
X111269714Y-94524281D01*
X111270096Y-94524702D01*
X111270251Y-94524795D01*
X111274024Y-94528501D01*
X111284640Y-94539223D01*
X111301846Y-94556702D01*
X111325392Y-94580681D01*
X111355026Y-94610903D01*
X111390495Y-94647109D01*
X111431548Y-94689043D01*
X111477933Y-94736446D01*
X111529398Y-94789061D01*
X111585693Y-94846631D01*
X111646563Y-94908898D01*
X111711759Y-94975604D01*
X111781028Y-95046492D01*
X111854119Y-95121305D01*
X111930779Y-95199783D01*
X112010757Y-95281671D01*
X112093802Y-95366710D01*
X112179660Y-95454643D01*
X112268081Y-95545213D01*
X112358813Y-95638161D01*
X112451605Y-95733230D01*
X112545381Y-95829320D01*
X112640612Y-95926905D01*
X112734329Y-96022933D01*
X112826266Y-96117131D01*
X112916155Y-96209227D01*
X113003729Y-96298945D01*
X113088720Y-96386012D01*
X113170860Y-96470154D01*
X113249884Y-96551098D01*
X113325522Y-96628570D01*
X113397509Y-96702295D01*
X113465576Y-96772001D01*
X113529456Y-96837413D01*
X113588882Y-96898257D01*
X113643586Y-96954260D01*
X113693301Y-97005149D01*
X113737760Y-97050648D01*
X113776695Y-97090484D01*
X113809839Y-97124385D01*
X113836925Y-97152075D01*
X113857685Y-97173281D01*
X113871851Y-97187729D01*
X113878643Y-97194627D01*
X113940343Y-97256914D01*
X115812241Y-96934404D01*
X115948670Y-96910897D01*
X116082585Y-96887818D01*
X116213636Y-96865229D01*
X116341474Y-96843189D01*
X116465748Y-96821759D01*
X116586111Y-96801000D01*
X116702211Y-96780972D01*
X116813699Y-96761734D01*
X116920227Y-96743349D01*
X117021444Y-96725875D01*
X117117000Y-96709373D01*
X117206547Y-96693905D01*
X117289734Y-96679529D01*
X117366212Y-96666307D01*
X117435632Y-96654298D01*
X117497644Y-96643564D01*
X117551899Y-96634164D01*
X117598046Y-96626160D01*
X117635737Y-96619610D01*
X117664621Y-96614576D01*
X117684350Y-96611119D01*
X117694573Y-96609298D01*
X117695980Y-96609028D01*
X117704810Y-96608511D01*
X117706140Y-96613181D01*
X117703683Y-96618141D01*
X117696666Y-96631785D01*
X117685254Y-96653798D01*
X117669610Y-96683870D01*
X117649898Y-96721686D01*
X117626281Y-96766935D01*
X117598923Y-96819303D01*
X117567989Y-96878479D01*
X117533640Y-96944149D01*
X117496043Y-97016000D01*
X117455359Y-97093721D01*
X117411753Y-97176999D01*
X117365388Y-97265520D01*
X117316428Y-97358972D01*
X117265038Y-97457043D01*
X117211379Y-97559421D01*
X117155617Y-97665791D01*
X117097914Y-97775842D01*
X117038435Y-97889261D01*
X116977344Y-98005736D01*
X116914803Y-98124954D01*
X116850976Y-98246601D01*
X116819088Y-98307371D01*
X115933716Y-99994541D01*
X115947265Y-100021401D01*
X115950607Y-100027829D01*
X115958516Y-100042926D01*
X115970825Y-100066373D01*
X115987364Y-100097850D01*
X116007965Y-100137037D01*
X116032461Y-100183615D01*
X116060682Y-100237264D01*
X116092462Y-100297664D01*
X116127630Y-100364496D01*
X116166020Y-100437440D01*
X116207463Y-100516177D01*
X116251791Y-100600386D01*
X116298835Y-100689748D01*
X116348427Y-100783944D01*
X116400399Y-100882654D01*
X116454583Y-100985558D01*
X116510810Y-101092336D01*
X116568912Y-101202669D01*
X116628721Y-101316238D01*
X116690068Y-101432722D01*
X116752787Y-101551801D01*
X116816707Y-101673158D01*
X116836447Y-101710634D01*
X116900560Y-101832358D01*
X116963455Y-101951785D01*
X117024968Y-102068600D01*
X117084934Y-102182490D01*
X117143188Y-102293143D01*
X117199565Y-102400244D01*
X117253901Y-102503480D01*
X117306030Y-102602537D01*
X117355787Y-102697102D01*
X117403008Y-102786861D01*
X117447527Y-102871501D01*
X117489181Y-102950708D01*
X117527803Y-103024170D01*
X117563229Y-103091571D01*
X117595295Y-103152600D01*
X117623835Y-103206941D01*
X117648685Y-103254283D01*
X117669679Y-103294311D01*
X117686652Y-103326711D01*
X117699441Y-103351171D01*
X117707880Y-103367376D01*
X117711803Y-103375014D01*
X117712080Y-103375604D01*
X117707927Y-103377901D01*
X117704319Y-103378200D01*
X117698800Y-103377355D01*
X117683614Y-103374857D01*
X117659110Y-103370767D01*
X117625637Y-103365144D01*
X117583542Y-103358046D01*
X117533174Y-103349534D01*
X117474881Y-103339666D01*
X117409012Y-103328501D01*
X117335915Y-103316099D01*
X117255938Y-103302519D01*
X117169431Y-103287820D01*
X117076740Y-103272061D01*
X116978215Y-103255302D01*
X116874204Y-103237602D01*
X116765055Y-103219020D01*
X116651117Y-103199615D01*
X116532738Y-103179447D01*
X116410266Y-103158574D01*
X116284050Y-103137057D01*
X116154438Y-103114953D01*
X116021778Y-103092323D01*
X115886420Y-103069225D01*
X115821594Y-103058160D01*
X115685147Y-103034871D01*
X115551265Y-103012020D01*
X115420294Y-102989668D01*
X115292582Y-102967873D01*
X115168475Y-102946694D01*
X115048321Y-102926192D01*
X114932466Y-102906424D01*
X114821257Y-102887450D01*
X114715041Y-102869330D01*
X114614164Y-102852121D01*
X114518974Y-102835885D01*
X114429817Y-102820679D01*
X114347039Y-102806562D01*
X114270989Y-102793595D01*
X114202013Y-102781836D01*
X114140457Y-102771344D01*
X114086669Y-102762178D01*
X114040994Y-102754398D01*
X114003781Y-102748063D01*
X113975376Y-102743232D01*
X113956125Y-102739963D01*
X113946376Y-102738317D01*
X113945173Y-102738120D01*
X113941564Y-102741720D01*
X113931116Y-102752350D01*
X113914073Y-102769759D01*
X113890679Y-102793697D01*
X113861180Y-102823911D01*
X113825820Y-102860150D01*
X113784845Y-102902164D01*
X113738499Y-102949700D01*
X113687027Y-103002508D01*
X113630674Y-103060335D01*
X113569685Y-103122931D01*
X113504305Y-103190044D01*
X113434779Y-103261423D01*
X113361351Y-103336817D01*
X113284267Y-103415973D01*
X113203770Y-103498642D01*
X113120107Y-103584570D01*
X113033522Y-103673508D01*
X112944260Y-103765203D01*
X112852566Y-103859405D01*
X112758685Y-103955862D01*
X112662861Y-104054322D01*
X112611087Y-104107523D01*
X112491958Y-104229928D01*
X112379720Y-104345229D01*
X112274188Y-104453612D01*
X112175179Y-104555264D01*
X112082509Y-104650374D01*
X111995994Y-104739128D01*
X111915451Y-104821713D01*
X111840694Y-104898317D01*
X111771540Y-104969127D01*
X111707806Y-105034329D01*
X111649307Y-105094113D01*
X111595859Y-105148663D01*
X111547279Y-105198169D01*
X111503382Y-105242817D01*
X111463984Y-105282794D01*
X111428903Y-105318287D01*
X111397952Y-105349485D01*
X111370949Y-105376573D01*
X111347710Y-105399740D01*
X111328051Y-105419172D01*
X111311787Y-105435057D01*
X111298736Y-105447582D01*
X111288712Y-105456934D01*
X111281532Y-105463301D01*
X111277012Y-105466869D01*
X111274968Y-105467826D01*
X111274828Y-105467693D01*
X111273837Y-105462046D01*
X111271434Y-105446696D01*
X111267670Y-105421992D01*
X111262595Y-105388284D01*
X111256263Y-105345923D01*
X111248723Y-105295259D01*
X111240028Y-105236642D01*
X111230230Y-105170422D01*
X111219379Y-105096949D01*
X111207527Y-105016573D01*
X111194727Y-104929645D01*
X111181028Y-104836514D01*
X111166484Y-104737531D01*
X111151144Y-104633046D01*
X111135062Y-104523409D01*
X111118288Y-104408970D01*
X111100874Y-104290079D01*
X111082871Y-104167087D01*
X111064331Y-104040343D01*
X111045305Y-103910198D01*
X111025846Y-103777002D01*
X111006004Y-103641105D01*
X110996613Y-103576759D01*
X110976625Y-103439806D01*
X110957008Y-103305428D01*
X110937812Y-103173975D01*
X110919088Y-103045794D01*
X110900887Y-102921233D01*
X110883261Y-102800641D01*
X110866260Y-102684366D01*
X110849935Y-102572755D01*
X110834337Y-102466158D01*
X110819518Y-102364921D01*
X110805528Y-102269394D01*
X110792418Y-102179925D01*
X110780239Y-102096861D01*
X110769043Y-102020551D01*
X110758880Y-101951343D01*
X110749801Y-101889585D01*
X110741858Y-101835625D01*
X110735101Y-101789812D01*
X110729581Y-101752493D01*
X110725350Y-101724017D01*
X110722458Y-101704732D01*
X110720956Y-101694986D01*
X110720745Y-101693799D01*
X110716145Y-101691488D01*
X110702747Y-101684845D01*
X110680864Y-101674024D01*
X110650811Y-101659180D01*
X110612904Y-101640470D01*
X110567459Y-101618049D01*
X110514790Y-101592071D01*
X110455212Y-101562692D01*
X110389042Y-101530068D01*
X110316593Y-101494353D01*
X110238181Y-101455704D01*
X110154122Y-101414275D01*
X110064730Y-101370223D01*
X109970321Y-101323701D01*
X109871209Y-101274866D01*
X109767711Y-101223873D01*
X109660142Y-101170878D01*
X109548815Y-101116035D01*
X109434048Y-101059500D01*
X109316155Y-101001428D01*
X109195450Y-100941975D01*
X109072250Y-100881297D01*
X109008285Y-100849794D01*
X108883925Y-100788538D01*
X108761902Y-100728415D01*
X108642532Y-100669581D01*
X108526128Y-100612192D01*
X108413007Y-100556403D01*
X108303483Y-100502371D01*
X108197873Y-100450251D01*
X108096490Y-100400199D01*
X107999650Y-100352371D01*
X107907668Y-100306923D01*
X107820860Y-100264011D01*
X107739540Y-100223790D01*
X107664024Y-100186417D01*
X107594626Y-100152047D01*
X107531663Y-100120835D01*
X107475448Y-100092939D01*
X107426298Y-100068514D01*
X107384527Y-100047715D01*
X107350450Y-100030699D01*
X107324383Y-100017621D01*
X107306641Y-100008638D01*
X107297539Y-100003904D01*
X107296325Y-100003176D01*
X107300770Y-100000669D01*
X107300770Y-100000669D01*
G37*
X107300770Y-100000669D02*
X107314009Y-99993818D01*
X107335729Y-99982780D01*
X107365614Y-99967712D01*
X107403350Y-99948770D01*
X107448622Y-99926109D01*
X107501117Y-99899887D01*
X107560519Y-99870260D01*
X107626513Y-99837384D01*
X107698786Y-99801415D01*
X107777023Y-99762510D01*
X107860908Y-99720825D01*
X107950128Y-99676517D01*
X108044368Y-99629741D01*
X108143313Y-99580655D01*
X108246649Y-99529414D01*
X108354062Y-99476175D01*
X108465236Y-99421094D01*
X108579857Y-99364328D01*
X108697611Y-99306032D01*
X108818183Y-99246364D01*
X108941258Y-99185479D01*
X109004960Y-99153975D01*
X109129240Y-99092504D01*
X109251198Y-99032158D01*
X109370519Y-98973092D01*
X109486887Y-98915464D01*
X109599986Y-98859430D01*
X109709501Y-98805149D01*
X109815116Y-98752776D01*
X109916515Y-98702469D01*
X110013383Y-98654384D01*
X110105404Y-98608679D01*
X110192262Y-98565510D01*
X110273642Y-98525035D01*
X110349229Y-98487411D01*
X110418705Y-98452794D01*
X110481756Y-98421341D01*
X110538067Y-98393210D01*
X110587321Y-98368557D01*
X110629202Y-98347539D01*
X110663396Y-98330313D01*
X110689587Y-98317037D01*
X110707458Y-98307867D01*
X110716694Y-98302960D01*
X110717977Y-98302152D01*
X110718958Y-98296703D01*
X110721333Y-98281548D01*
X110725052Y-98257042D01*
X110730063Y-98223536D01*
X110736315Y-98181382D01*
X110743757Y-98130932D01*
X110752338Y-98072539D01*
X110762005Y-98006555D01*
X110772709Y-97933332D01*
X110784397Y-97853222D01*
X110797019Y-97766578D01*
X110810523Y-97673751D01*
X110824858Y-97575094D01*
X110839973Y-97470960D01*
X110855816Y-97361700D01*
X110872336Y-97247666D01*
X110889482Y-97129211D01*
X110907202Y-97006686D01*
X110925446Y-96880445D01*
X110944162Y-96750840D01*
X110963299Y-96618221D01*
X110982806Y-96482943D01*
X110988785Y-96441460D01*
X111012608Y-96276144D01*
X111035025Y-96120588D01*
X111056078Y-95974495D01*
X111075811Y-95837570D01*
X111094268Y-95709517D01*
X111111492Y-95590039D01*
X111127526Y-95478841D01*
X111142415Y-95375626D01*
X111156201Y-95280099D01*
X111168928Y-95191963D01*
X111180639Y-95110922D01*
X111191378Y-95036680D01*
X111201189Y-94968941D01*
X111210115Y-94907409D01*
X111218199Y-94851788D01*
X111225485Y-94801782D01*
X111232016Y-94757095D01*
X111237836Y-94717430D01*
X111242988Y-94682492D01*
X111247516Y-94651984D01*
X111251464Y-94625611D01*
X111254874Y-94603076D01*
X111257790Y-94584084D01*
X111260256Y-94568338D01*
X111262315Y-94555542D01*
X111264011Y-94545400D01*
X111265387Y-94537615D01*
X111266486Y-94531893D01*
X111267353Y-94527937D01*
X111268030Y-94525451D01*
X111268561Y-94524138D01*
X111268990Y-94523702D01*
X111269360Y-94523849D01*
X111269714Y-94524281D01*
X111270096Y-94524702D01*
X111270251Y-94524795D01*
X111274024Y-94528501D01*
X111284640Y-94539223D01*
X111301846Y-94556702D01*
X111325392Y-94580681D01*
X111355026Y-94610903D01*
X111390495Y-94647109D01*
X111431548Y-94689043D01*
X111477933Y-94736446D01*
X111529398Y-94789061D01*
X111585693Y-94846631D01*
X111646563Y-94908898D01*
X111711759Y-94975604D01*
X111781028Y-95046492D01*
X111854119Y-95121305D01*
X111930779Y-95199783D01*
X112010757Y-95281671D01*
X112093802Y-95366710D01*
X112179660Y-95454643D01*
X112268081Y-95545213D01*
X112358813Y-95638161D01*
X112451605Y-95733230D01*
X112545381Y-95829320D01*
X112640612Y-95926905D01*
X112734329Y-96022933D01*
X112826266Y-96117131D01*
X112916155Y-96209227D01*
X113003729Y-96298945D01*
X113088720Y-96386012D01*
X113170860Y-96470154D01*
X113249884Y-96551098D01*
X113325522Y-96628570D01*
X113397509Y-96702295D01*
X113465576Y-96772001D01*
X113529456Y-96837413D01*
X113588882Y-96898257D01*
X113643586Y-96954260D01*
X113693301Y-97005149D01*
X113737760Y-97050648D01*
X113776695Y-97090484D01*
X113809839Y-97124385D01*
X113836925Y-97152075D01*
X113857685Y-97173281D01*
X113871851Y-97187729D01*
X113878643Y-97194627D01*
X113940343Y-97256914D01*
X115812241Y-96934404D01*
X115948670Y-96910897D01*
X116082585Y-96887818D01*
X116213636Y-96865229D01*
X116341474Y-96843189D01*
X116465748Y-96821759D01*
X116586111Y-96801000D01*
X116702211Y-96780972D01*
X116813699Y-96761734D01*
X116920227Y-96743349D01*
X117021444Y-96725875D01*
X117117000Y-96709373D01*
X117206547Y-96693905D01*
X117289734Y-96679529D01*
X117366212Y-96666307D01*
X117435632Y-96654298D01*
X117497644Y-96643564D01*
X117551899Y-96634164D01*
X117598046Y-96626160D01*
X117635737Y-96619610D01*
X117664621Y-96614576D01*
X117684350Y-96611119D01*
X117694573Y-96609298D01*
X117695980Y-96609028D01*
X117704810Y-96608511D01*
X117706140Y-96613181D01*
X117703683Y-96618141D01*
X117696666Y-96631785D01*
X117685254Y-96653798D01*
X117669610Y-96683870D01*
X117649898Y-96721686D01*
X117626281Y-96766935D01*
X117598923Y-96819303D01*
X117567989Y-96878479D01*
X117533640Y-96944149D01*
X117496043Y-97016000D01*
X117455359Y-97093721D01*
X117411753Y-97176999D01*
X117365388Y-97265520D01*
X117316428Y-97358972D01*
X117265038Y-97457043D01*
X117211379Y-97559421D01*
X117155617Y-97665791D01*
X117097914Y-97775842D01*
X117038435Y-97889261D01*
X116977344Y-98005736D01*
X116914803Y-98124954D01*
X116850976Y-98246601D01*
X116819088Y-98307371D01*
X115933716Y-99994541D01*
X115947265Y-100021401D01*
X115950607Y-100027829D01*
X115958516Y-100042926D01*
X115970825Y-100066373D01*
X115987364Y-100097850D01*
X116007965Y-100137037D01*
X116032461Y-100183615D01*
X116060682Y-100237264D01*
X116092462Y-100297664D01*
X116127630Y-100364496D01*
X116166020Y-100437440D01*
X116207463Y-100516177D01*
X116251791Y-100600386D01*
X116298835Y-100689748D01*
X116348427Y-100783944D01*
X116400399Y-100882654D01*
X116454583Y-100985558D01*
X116510810Y-101092336D01*
X116568912Y-101202669D01*
X116628721Y-101316238D01*
X116690068Y-101432722D01*
X116752787Y-101551801D01*
X116816707Y-101673158D01*
X116836447Y-101710634D01*
X116900560Y-101832358D01*
X116963455Y-101951785D01*
X117024968Y-102068600D01*
X117084934Y-102182490D01*
X117143188Y-102293143D01*
X117199565Y-102400244D01*
X117253901Y-102503480D01*
X117306030Y-102602537D01*
X117355787Y-102697102D01*
X117403008Y-102786861D01*
X117447527Y-102871501D01*
X117489181Y-102950708D01*
X117527803Y-103024170D01*
X117563229Y-103091571D01*
X117595295Y-103152600D01*
X117623835Y-103206941D01*
X117648685Y-103254283D01*
X117669679Y-103294311D01*
X117686652Y-103326711D01*
X117699441Y-103351171D01*
X117707880Y-103367376D01*
X117711803Y-103375014D01*
X117712080Y-103375604D01*
X117707927Y-103377901D01*
X117704319Y-103378200D01*
X117698800Y-103377355D01*
X117683614Y-103374857D01*
X117659110Y-103370767D01*
X117625637Y-103365144D01*
X117583542Y-103358046D01*
X117533174Y-103349534D01*
X117474881Y-103339666D01*
X117409012Y-103328501D01*
X117335915Y-103316099D01*
X117255938Y-103302519D01*
X117169431Y-103287820D01*
X117076740Y-103272061D01*
X116978215Y-103255302D01*
X116874204Y-103237602D01*
X116765055Y-103219020D01*
X116651117Y-103199615D01*
X116532738Y-103179447D01*
X116410266Y-103158574D01*
X116284050Y-103137057D01*
X116154438Y-103114953D01*
X116021778Y-103092323D01*
X115886420Y-103069225D01*
X115821594Y-103058160D01*
X115685147Y-103034871D01*
X115551265Y-103012020D01*
X115420294Y-102989668D01*
X115292582Y-102967873D01*
X115168475Y-102946694D01*
X115048321Y-102926192D01*
X114932466Y-102906424D01*
X114821257Y-102887450D01*
X114715041Y-102869330D01*
X114614164Y-102852121D01*
X114518974Y-102835885D01*
X114429817Y-102820679D01*
X114347039Y-102806562D01*
X114270989Y-102793595D01*
X114202013Y-102781836D01*
X114140457Y-102771344D01*
X114086669Y-102762178D01*
X114040994Y-102754398D01*
X114003781Y-102748063D01*
X113975376Y-102743232D01*
X113956125Y-102739963D01*
X113946376Y-102738317D01*
X113945173Y-102738120D01*
X113941564Y-102741720D01*
X113931116Y-102752350D01*
X113914073Y-102769759D01*
X113890679Y-102793697D01*
X113861180Y-102823911D01*
X113825820Y-102860150D01*
X113784845Y-102902164D01*
X113738499Y-102949700D01*
X113687027Y-103002508D01*
X113630674Y-103060335D01*
X113569685Y-103122931D01*
X113504305Y-103190044D01*
X113434779Y-103261423D01*
X113361351Y-103336817D01*
X113284267Y-103415973D01*
X113203770Y-103498642D01*
X113120107Y-103584570D01*
X113033522Y-103673508D01*
X112944260Y-103765203D01*
X112852566Y-103859405D01*
X112758685Y-103955862D01*
X112662861Y-104054322D01*
X112611087Y-104107523D01*
X112491958Y-104229928D01*
X112379720Y-104345229D01*
X112274188Y-104453612D01*
X112175179Y-104555264D01*
X112082509Y-104650374D01*
X111995994Y-104739128D01*
X111915451Y-104821713D01*
X111840694Y-104898317D01*
X111771540Y-104969127D01*
X111707806Y-105034329D01*
X111649307Y-105094113D01*
X111595859Y-105148663D01*
X111547279Y-105198169D01*
X111503382Y-105242817D01*
X111463984Y-105282794D01*
X111428903Y-105318287D01*
X111397952Y-105349485D01*
X111370949Y-105376573D01*
X111347710Y-105399740D01*
X111328051Y-105419172D01*
X111311787Y-105435057D01*
X111298736Y-105447582D01*
X111288712Y-105456934D01*
X111281532Y-105463301D01*
X111277012Y-105466869D01*
X111274968Y-105467826D01*
X111274828Y-105467693D01*
X111273837Y-105462046D01*
X111271434Y-105446696D01*
X111267670Y-105421992D01*
X111262595Y-105388284D01*
X111256263Y-105345923D01*
X111248723Y-105295259D01*
X111240028Y-105236642D01*
X111230230Y-105170422D01*
X111219379Y-105096949D01*
X111207527Y-105016573D01*
X111194727Y-104929645D01*
X111181028Y-104836514D01*
X111166484Y-104737531D01*
X111151144Y-104633046D01*
X111135062Y-104523409D01*
X111118288Y-104408970D01*
X111100874Y-104290079D01*
X111082871Y-104167087D01*
X111064331Y-104040343D01*
X111045305Y-103910198D01*
X111025846Y-103777002D01*
X111006004Y-103641105D01*
X110996613Y-103576759D01*
X110976625Y-103439806D01*
X110957008Y-103305428D01*
X110937812Y-103173975D01*
X110919088Y-103045794D01*
X110900887Y-102921233D01*
X110883261Y-102800641D01*
X110866260Y-102684366D01*
X110849935Y-102572755D01*
X110834337Y-102466158D01*
X110819518Y-102364921D01*
X110805528Y-102269394D01*
X110792418Y-102179925D01*
X110780239Y-102096861D01*
X110769043Y-102020551D01*
X110758880Y-101951343D01*
X110749801Y-101889585D01*
X110741858Y-101835625D01*
X110735101Y-101789812D01*
X110729581Y-101752493D01*
X110725350Y-101724017D01*
X110722458Y-101704732D01*
X110720956Y-101694986D01*
X110720745Y-101693799D01*
X110716145Y-101691488D01*
X110702747Y-101684845D01*
X110680864Y-101674024D01*
X110650811Y-101659180D01*
X110612904Y-101640470D01*
X110567459Y-101618049D01*
X110514790Y-101592071D01*
X110455212Y-101562692D01*
X110389042Y-101530068D01*
X110316593Y-101494353D01*
X110238181Y-101455704D01*
X110154122Y-101414275D01*
X110064730Y-101370223D01*
X109970321Y-101323701D01*
X109871209Y-101274866D01*
X109767711Y-101223873D01*
X109660142Y-101170878D01*
X109548815Y-101116035D01*
X109434048Y-101059500D01*
X109316155Y-101001428D01*
X109195450Y-100941975D01*
X109072250Y-100881297D01*
X109008285Y-100849794D01*
X108883925Y-100788538D01*
X108761902Y-100728415D01*
X108642532Y-100669581D01*
X108526128Y-100612192D01*
X108413007Y-100556403D01*
X108303483Y-100502371D01*
X108197873Y-100450251D01*
X108096490Y-100400199D01*
X107999650Y-100352371D01*
X107907668Y-100306923D01*
X107820860Y-100264011D01*
X107739540Y-100223790D01*
X107664024Y-100186417D01*
X107594626Y-100152047D01*
X107531663Y-100120835D01*
X107475448Y-100092939D01*
X107426298Y-100068514D01*
X107384527Y-100047715D01*
X107350450Y-100030699D01*
X107324383Y-100017621D01*
X107306641Y-100008638D01*
X107297539Y-100003904D01*
X107296325Y-100003176D01*
X107300770Y-100000669D01*
G36*
X119806612Y-69807558D02*
X119820818Y-69812075D01*
X119843981Y-69819629D01*
X119875768Y-69830106D01*
X119915845Y-69843395D01*
X119963881Y-69859384D01*
X120019543Y-69877961D01*
X120082496Y-69899015D01*
X120152407Y-69922433D01*
X120228946Y-69948104D01*
X120311778Y-69975916D01*
X120400569Y-70005756D01*
X120494988Y-70037514D01*
X120594701Y-70071076D01*
X120699375Y-70106331D01*
X120808677Y-70143168D01*
X120922275Y-70181475D01*
X121039835Y-70221139D01*
X121161024Y-70262048D01*
X121285510Y-70304091D01*
X121412959Y-70347157D01*
X121543039Y-70391132D01*
X121610360Y-70413900D01*
X121741705Y-70458312D01*
X121870614Y-70501878D01*
X121996752Y-70544485D01*
X122119786Y-70586021D01*
X122239381Y-70626372D01*
X122355202Y-70665428D01*
X122466917Y-70703076D01*
X122574189Y-70739203D01*
X122676686Y-70773698D01*
X122774073Y-70806448D01*
X122866016Y-70837341D01*
X122952181Y-70866265D01*
X123032233Y-70893109D01*
X123105838Y-70917758D01*
X123172662Y-70940101D01*
X123232372Y-70960028D01*
X123284632Y-70977423D01*
X123329108Y-70992176D01*
X123365468Y-71004174D01*
X123393375Y-71013306D01*
X123412496Y-71019459D01*
X123422497Y-71022520D01*
X123423975Y-71022856D01*
X123428522Y-71019696D01*
X123440918Y-71010659D01*
X123460876Y-70995961D01*
X123488111Y-70975812D01*
X123522339Y-70950425D01*
X123563275Y-70920014D01*
X123610633Y-70884792D01*
X123664126Y-70844969D01*
X123723472Y-70800762D01*
X123788383Y-70752380D01*
X123858574Y-70700039D01*
X123933762Y-70643949D01*
X124013659Y-70584324D01*
X124097981Y-70521378D01*
X124186442Y-70455323D01*
X124278758Y-70386370D01*
X124374642Y-70314733D01*
X124473810Y-70240625D01*
X124575977Y-70164260D01*
X124680855Y-70085849D01*
X124788163Y-70005605D01*
X124897613Y-69923743D01*
X124931173Y-69898638D01*
X125064915Y-69798587D01*
X125190761Y-69704444D01*
X125308951Y-69616027D01*
X125419725Y-69533160D01*
X125523323Y-69455664D01*
X125619986Y-69383359D01*
X125709953Y-69316068D01*
X125793465Y-69253612D01*
X125870761Y-69195813D01*
X125942082Y-69142490D01*
X126007667Y-69093467D01*
X126067758Y-69048563D01*
X126122594Y-69007602D01*
X126172415Y-68970404D01*
X126217461Y-68936790D01*
X126257973Y-68906583D01*
X126294190Y-68879602D01*
X126326352Y-68855670D01*
X126354700Y-68834608D01*
X126379474Y-68816238D01*
X126400915Y-68800381D01*
X126419261Y-68786857D01*
X126434752Y-68775490D01*
X126447630Y-68766100D01*
X126458134Y-68758507D01*
X126466504Y-68752535D01*
X126472982Y-68748003D01*
X126477805Y-68744734D01*
X126481216Y-68742550D01*
X126483452Y-68741271D01*
X126484756Y-68740718D01*
X126485368Y-68740713D01*
X126485526Y-68741079D01*
X126485470Y-68741634D01*
X126485443Y-68742202D01*
X126485487Y-68742378D01*
X126485534Y-68747666D01*
X126485459Y-68762754D01*
X126485266Y-68787280D01*
X126484960Y-68820886D01*
X126484544Y-68863210D01*
X126484023Y-68913892D01*
X126483400Y-68972573D01*
X126482680Y-69038891D01*
X126481867Y-69112486D01*
X126480965Y-69193001D01*
X126479978Y-69280072D01*
X126478910Y-69373341D01*
X126477765Y-69472447D01*
X126476547Y-69577031D01*
X126475262Y-69686730D01*
X126473911Y-69801187D01*
X126472501Y-69920040D01*
X126471034Y-70042929D01*
X126469515Y-70169494D01*
X126467948Y-70299376D01*
X126466338Y-70432214D01*
X126464701Y-70566469D01*
X126463037Y-70702811D01*
X126461403Y-70836981D01*
X126459804Y-70968598D01*
X126458243Y-71097281D01*
X126456727Y-71222645D01*
X126455259Y-71344308D01*
X126453844Y-71461888D01*
X126452486Y-71575002D01*
X126451189Y-71683267D01*
X126449960Y-71786301D01*
X126448801Y-71883721D01*
X126447718Y-71975145D01*
X126446715Y-72060188D01*
X126445797Y-72138470D01*
X126444967Y-72209608D01*
X126444231Y-72273218D01*
X126443594Y-72328917D01*
X126443059Y-72376325D01*
X126442632Y-72415058D01*
X126442316Y-72444732D01*
X126442117Y-72464965D01*
X126442042Y-72474646D01*
X126441627Y-72562318D01*
X127993308Y-73657900D01*
X128106400Y-73737748D01*
X128217411Y-73816121D01*
X128326051Y-73892815D01*
X128432031Y-73967626D01*
X128535059Y-74040348D01*
X128634847Y-74110778D01*
X128731104Y-74178711D01*
X128823542Y-74243942D01*
X128911868Y-74306268D01*
X128995796Y-74365484D01*
X129075033Y-74421383D01*
X129149289Y-74473765D01*
X129218277Y-74522422D01*
X129281704Y-74567151D01*
X129339283Y-74607746D01*
X129390723Y-74644005D01*
X129435734Y-74675723D01*
X129474024Y-74702694D01*
X129505307Y-74724714D01*
X129529291Y-74741578D01*
X129545686Y-74753084D01*
X129554202Y-74759025D01*
X129555388Y-74759829D01*
X129561997Y-74765708D01*
X129559636Y-74769950D01*
X129554391Y-74771720D01*
X129539781Y-74776406D01*
X129516146Y-74783902D01*
X129483820Y-74794104D01*
X129443142Y-74806906D01*
X129394446Y-74822202D01*
X129338071Y-74839887D01*
X129274354Y-74859857D01*
X129203630Y-74882004D01*
X129126239Y-74906225D01*
X129042514Y-74932414D01*
X128952793Y-74960467D01*
X128857414Y-74990275D01*
X128756714Y-75021736D01*
X128651029Y-75054745D01*
X128540694Y-75089194D01*
X128426049Y-75124979D01*
X128307429Y-75161995D01*
X128185172Y-75200136D01*
X128059614Y-75239299D01*
X127931091Y-75279375D01*
X127799941Y-75320260D01*
X127734422Y-75340683D01*
X125915360Y-75907640D01*
X125905948Y-75936213D01*
X125903766Y-75943122D01*
X125898683Y-75959389D01*
X125890807Y-75984673D01*
X125880244Y-76018625D01*
X125867102Y-76060902D01*
X125851488Y-76111159D01*
X125833507Y-76169049D01*
X125813270Y-76234230D01*
X125790880Y-76306355D01*
X125766447Y-76385080D01*
X125740076Y-76470060D01*
X125711876Y-76560950D01*
X125681953Y-76657403D01*
X125650413Y-76759077D01*
X125617364Y-76865625D01*
X125582914Y-76976703D01*
X125547169Y-77091965D01*
X125510236Y-77211067D01*
X125472222Y-77333663D01*
X125433234Y-77459409D01*
X125393382Y-77587960D01*
X125352767Y-77718970D01*
X125340226Y-77759428D01*
X125299489Y-77890835D01*
X125259515Y-78019756D01*
X125220410Y-78145853D01*
X125182280Y-78268787D01*
X125145229Y-78388223D01*
X125109361Y-78503819D01*
X125074784Y-78615239D01*
X125041601Y-78722144D01*
X125009917Y-78824195D01*
X124979838Y-78921055D01*
X124951468Y-79012384D01*
X124924914Y-79097845D01*
X124900278Y-79177101D01*
X124877669Y-79249810D01*
X124857189Y-79315638D01*
X124838945Y-79374244D01*
X124823041Y-79425292D01*
X124809581Y-79468441D01*
X124798673Y-79503353D01*
X124790420Y-79529692D01*
X124784929Y-79547118D01*
X124782302Y-79555293D01*
X124782081Y-79555906D01*
X124777520Y-79554593D01*
X124774757Y-79552253D01*
X124771452Y-79547753D01*
X124762480Y-79535249D01*
X124748045Y-79515030D01*
X124728353Y-79487385D01*
X124703606Y-79452600D01*
X124674009Y-79410966D01*
X124639768Y-79362769D01*
X124601086Y-79308297D01*
X124558168Y-79247840D01*
X124511218Y-79181686D01*
X124460443Y-79110122D01*
X124406043Y-79033436D01*
X124348226Y-78951918D01*
X124287195Y-78865856D01*
X124223154Y-78775536D01*
X124156310Y-78681248D01*
X124086864Y-78583281D01*
X124015023Y-78481921D01*
X123940989Y-78377458D01*
X123864970Y-78270178D01*
X123787167Y-78160372D01*
X123707787Y-78048326D01*
X123669772Y-77994663D01*
X123589757Y-77881713D01*
X123511246Y-77770886D01*
X123434441Y-77662470D01*
X123359547Y-77556753D01*
X123286765Y-77454020D01*
X123216301Y-77354561D01*
X123148357Y-77258661D01*
X123083137Y-77166608D01*
X123020844Y-77078689D01*
X122961682Y-76995190D01*
X122905853Y-76916400D01*
X122853561Y-76842604D01*
X122805011Y-76774089D01*
X122760404Y-76711144D01*
X122719946Y-76654056D01*
X122683838Y-76603110D01*
X122652286Y-76558595D01*
X122625490Y-76520797D01*
X122603656Y-76490004D01*
X122586986Y-76466502D01*
X122575685Y-76450578D01*
X122569956Y-76442521D01*
X122569244Y-76441531D01*
X122564147Y-76441524D01*
X122549242Y-76441653D01*
X122524881Y-76441912D01*
X122491412Y-76442297D01*
X122449189Y-76442802D01*
X122398561Y-76443424D01*
X122339879Y-76444158D01*
X122273494Y-76445000D01*
X122199757Y-76445945D01*
X122119020Y-76446987D01*
X122031632Y-76448123D01*
X121937945Y-76449349D01*
X121838310Y-76450659D01*
X121733077Y-76452049D01*
X121622599Y-76453514D01*
X121507223Y-76455050D01*
X121387304Y-76456652D01*
X121263191Y-76458315D01*
X121135235Y-76460036D01*
X121003786Y-76461809D01*
X120869197Y-76463631D01*
X120731818Y-76465495D01*
X120657589Y-76466504D01*
X120486799Y-76468820D01*
X120325904Y-76470986D01*
X120174644Y-76473002D01*
X120032755Y-76474871D01*
X119899974Y-76476596D01*
X119776040Y-76478179D01*
X119660691Y-76479623D01*
X119553663Y-76480929D01*
X119454694Y-76482100D01*
X119363522Y-76483138D01*
X119279883Y-76484047D01*
X119203517Y-76484826D01*
X119134160Y-76485481D01*
X119071549Y-76486012D01*
X119015423Y-76486422D01*
X118965519Y-76486713D01*
X118921573Y-76486888D01*
X118883325Y-76486948D01*
X118850511Y-76486897D01*
X118822870Y-76486736D01*
X118800137Y-76486468D01*
X118782052Y-76486096D01*
X118768351Y-76485621D01*
X118758772Y-76485046D01*
X118753053Y-76484373D01*
X118750931Y-76483604D01*
X118750926Y-76483411D01*
X118754218Y-76478718D01*
X118763373Y-76466164D01*
X118778180Y-76446034D01*
X118798426Y-76418611D01*
X118823903Y-76384180D01*
X118854396Y-76343023D01*
X118889696Y-76295426D01*
X118929593Y-76241673D01*
X118973873Y-76182047D01*
X119022327Y-76116832D01*
X119074743Y-76046314D01*
X119130910Y-75970774D01*
X119190617Y-75890498D01*
X119253653Y-75805769D01*
X119319806Y-75716872D01*
X119388865Y-75624091D01*
X119460621Y-75527708D01*
X119534859Y-75428010D01*
X119611371Y-75325279D01*
X119689944Y-75219799D01*
X119770368Y-75111855D01*
X119852431Y-75001731D01*
X119891290Y-74949591D01*
X119973997Y-74838617D01*
X120055145Y-74729726D01*
X120134523Y-74623202D01*
X120211921Y-74519324D01*
X120287129Y-74418376D01*
X120359937Y-74320641D01*
X120430134Y-74226401D01*
X120497511Y-74135936D01*
X120561857Y-74049531D01*
X120622964Y-73967467D01*
X120680619Y-73890027D01*
X120734613Y-73817493D01*
X120784737Y-73750146D01*
X120830779Y-73688270D01*
X120872530Y-73632146D01*
X120909780Y-73582057D01*
X120942319Y-73538285D01*
X120969936Y-73501112D01*
X120992421Y-73470820D01*
X121009565Y-73447693D01*
X121021156Y-73432012D01*
X121026986Y-73424058D01*
X121027676Y-73423069D01*
X121026057Y-73418183D01*
X121021281Y-73404012D01*
X121013459Y-73380886D01*
X121002704Y-73349139D01*
X120989130Y-73309105D01*
X120972850Y-73261117D01*
X120953976Y-73205505D01*
X120932622Y-73142603D01*
X120908902Y-73072745D01*
X120882927Y-72996261D01*
X120854810Y-72913487D01*
X120824666Y-72824753D01*
X120792606Y-72730394D01*
X120758745Y-72630741D01*
X120723194Y-72526126D01*
X120686067Y-72416885D01*
X120647477Y-72303349D01*
X120607537Y-72185849D01*
X120566361Y-72064720D01*
X120524061Y-71940294D01*
X120480749Y-71812903D01*
X120436540Y-71682882D01*
X120413586Y-71615376D01*
X120368964Y-71484125D01*
X120325194Y-71355329D01*
X120282389Y-71229319D01*
X120240659Y-71106429D01*
X120200119Y-70986992D01*
X120160880Y-70871340D01*
X120123057Y-70759808D01*
X120086761Y-70652728D01*
X120052104Y-70550432D01*
X120019200Y-70453254D01*
X119988160Y-70361528D01*
X119959099Y-70275586D01*
X119932128Y-70195761D01*
X119907359Y-70122386D01*
X119884908Y-70055794D01*
X119864883Y-69996319D01*
X119847400Y-69944294D01*
X119832571Y-69900050D01*
X119820507Y-69863922D01*
X119811322Y-69836242D01*
X119805129Y-69817345D01*
X119802040Y-69807561D01*
X119801696Y-69806188D01*
X119806612Y-69807558D01*
X119806612Y-69807558D01*
G37*
X119806612Y-69807558D02*
X119820818Y-69812075D01*
X119843981Y-69819629D01*
X119875768Y-69830106D01*
X119915845Y-69843395D01*
X119963881Y-69859384D01*
X120019543Y-69877961D01*
X120082496Y-69899015D01*
X120152407Y-69922433D01*
X120228946Y-69948104D01*
X120311778Y-69975916D01*
X120400569Y-70005756D01*
X120494988Y-70037514D01*
X120594701Y-70071076D01*
X120699375Y-70106331D01*
X120808677Y-70143168D01*
X120922275Y-70181475D01*
X121039835Y-70221139D01*
X121161024Y-70262048D01*
X121285510Y-70304091D01*
X121412959Y-70347157D01*
X121543039Y-70391132D01*
X121610360Y-70413900D01*
X121741705Y-70458312D01*
X121870614Y-70501878D01*
X121996752Y-70544485D01*
X122119786Y-70586021D01*
X122239381Y-70626372D01*
X122355202Y-70665428D01*
X122466917Y-70703076D01*
X122574189Y-70739203D01*
X122676686Y-70773698D01*
X122774073Y-70806448D01*
X122866016Y-70837341D01*
X122952181Y-70866265D01*
X123032233Y-70893109D01*
X123105838Y-70917758D01*
X123172662Y-70940101D01*
X123232372Y-70960028D01*
X123284632Y-70977423D01*
X123329108Y-70992176D01*
X123365468Y-71004174D01*
X123393375Y-71013306D01*
X123412496Y-71019459D01*
X123422497Y-71022520D01*
X123423975Y-71022856D01*
X123428522Y-71019696D01*
X123440918Y-71010659D01*
X123460876Y-70995961D01*
X123488111Y-70975812D01*
X123522339Y-70950425D01*
X123563275Y-70920014D01*
X123610633Y-70884792D01*
X123664126Y-70844969D01*
X123723472Y-70800762D01*
X123788383Y-70752380D01*
X123858574Y-70700039D01*
X123933762Y-70643949D01*
X124013659Y-70584324D01*
X124097981Y-70521378D01*
X124186442Y-70455323D01*
X124278758Y-70386370D01*
X124374642Y-70314733D01*
X124473810Y-70240625D01*
X124575977Y-70164260D01*
X124680855Y-70085849D01*
X124788163Y-70005605D01*
X124897613Y-69923743D01*
X124931173Y-69898638D01*
X125064915Y-69798587D01*
X125190761Y-69704444D01*
X125308951Y-69616027D01*
X125419725Y-69533160D01*
X125523323Y-69455664D01*
X125619986Y-69383359D01*
X125709953Y-69316068D01*
X125793465Y-69253612D01*
X125870761Y-69195813D01*
X125942082Y-69142490D01*
X126007667Y-69093467D01*
X126067758Y-69048563D01*
X126122594Y-69007602D01*
X126172415Y-68970404D01*
X126217461Y-68936790D01*
X126257973Y-68906583D01*
X126294190Y-68879602D01*
X126326352Y-68855670D01*
X126354700Y-68834608D01*
X126379474Y-68816238D01*
X126400915Y-68800381D01*
X126419261Y-68786857D01*
X126434752Y-68775490D01*
X126447630Y-68766100D01*
X126458134Y-68758507D01*
X126466504Y-68752535D01*
X126472982Y-68748003D01*
X126477805Y-68744734D01*
X126481216Y-68742550D01*
X126483452Y-68741271D01*
X126484756Y-68740718D01*
X126485368Y-68740713D01*
X126485526Y-68741079D01*
X126485470Y-68741634D01*
X126485443Y-68742202D01*
X126485487Y-68742378D01*
X126485534Y-68747666D01*
X126485459Y-68762754D01*
X126485266Y-68787280D01*
X126484960Y-68820886D01*
X126484544Y-68863210D01*
X126484023Y-68913892D01*
X126483400Y-68972573D01*
X126482680Y-69038891D01*
X126481867Y-69112486D01*
X126480965Y-69193001D01*
X126479978Y-69280072D01*
X126478910Y-69373341D01*
X126477765Y-69472447D01*
X126476547Y-69577031D01*
X126475262Y-69686730D01*
X126473911Y-69801187D01*
X126472501Y-69920040D01*
X126471034Y-70042929D01*
X126469515Y-70169494D01*
X126467948Y-70299376D01*
X126466338Y-70432214D01*
X126464701Y-70566469D01*
X126463037Y-70702811D01*
X126461403Y-70836981D01*
X126459804Y-70968598D01*
X126458243Y-71097281D01*
X126456727Y-71222645D01*
X126455259Y-71344308D01*
X126453844Y-71461888D01*
X126452486Y-71575002D01*
X126451189Y-71683267D01*
X126449960Y-71786301D01*
X126448801Y-71883721D01*
X126447718Y-71975145D01*
X126446715Y-72060188D01*
X126445797Y-72138470D01*
X126444967Y-72209608D01*
X126444231Y-72273218D01*
X126443594Y-72328917D01*
X126443059Y-72376325D01*
X126442632Y-72415058D01*
X126442316Y-72444732D01*
X126442117Y-72464965D01*
X126442042Y-72474646D01*
X126441627Y-72562318D01*
X127993308Y-73657900D01*
X128106400Y-73737748D01*
X128217411Y-73816121D01*
X128326051Y-73892815D01*
X128432031Y-73967626D01*
X128535059Y-74040348D01*
X128634847Y-74110778D01*
X128731104Y-74178711D01*
X128823542Y-74243942D01*
X128911868Y-74306268D01*
X128995796Y-74365484D01*
X129075033Y-74421383D01*
X129149289Y-74473765D01*
X129218277Y-74522422D01*
X129281704Y-74567151D01*
X129339283Y-74607746D01*
X129390723Y-74644005D01*
X129435734Y-74675723D01*
X129474024Y-74702694D01*
X129505307Y-74724714D01*
X129529291Y-74741578D01*
X129545686Y-74753084D01*
X129554202Y-74759025D01*
X129555388Y-74759829D01*
X129561997Y-74765708D01*
X129559636Y-74769950D01*
X129554391Y-74771720D01*
X129539781Y-74776406D01*
X129516146Y-74783902D01*
X129483820Y-74794104D01*
X129443142Y-74806906D01*
X129394446Y-74822202D01*
X129338071Y-74839887D01*
X129274354Y-74859857D01*
X129203630Y-74882004D01*
X129126239Y-74906225D01*
X129042514Y-74932414D01*
X128952793Y-74960467D01*
X128857414Y-74990275D01*
X128756714Y-75021736D01*
X128651029Y-75054745D01*
X128540694Y-75089194D01*
X128426049Y-75124979D01*
X128307429Y-75161995D01*
X128185172Y-75200136D01*
X128059614Y-75239299D01*
X127931091Y-75279375D01*
X127799941Y-75320260D01*
X127734422Y-75340683D01*
X125915360Y-75907640D01*
X125905948Y-75936213D01*
X125903766Y-75943122D01*
X125898683Y-75959389D01*
X125890807Y-75984673D01*
X125880244Y-76018625D01*
X125867102Y-76060902D01*
X125851488Y-76111159D01*
X125833507Y-76169049D01*
X125813270Y-76234230D01*
X125790880Y-76306355D01*
X125766447Y-76385080D01*
X125740076Y-76470060D01*
X125711876Y-76560950D01*
X125681953Y-76657403D01*
X125650413Y-76759077D01*
X125617364Y-76865625D01*
X125582914Y-76976703D01*
X125547169Y-77091965D01*
X125510236Y-77211067D01*
X125472222Y-77333663D01*
X125433234Y-77459409D01*
X125393382Y-77587960D01*
X125352767Y-77718970D01*
X125340226Y-77759428D01*
X125299489Y-77890835D01*
X125259515Y-78019756D01*
X125220410Y-78145853D01*
X125182280Y-78268787D01*
X125145229Y-78388223D01*
X125109361Y-78503819D01*
X125074784Y-78615239D01*
X125041601Y-78722144D01*
X125009917Y-78824195D01*
X124979838Y-78921055D01*
X124951468Y-79012384D01*
X124924914Y-79097845D01*
X124900278Y-79177101D01*
X124877669Y-79249810D01*
X124857189Y-79315638D01*
X124838945Y-79374244D01*
X124823041Y-79425292D01*
X124809581Y-79468441D01*
X124798673Y-79503353D01*
X124790420Y-79529692D01*
X124784929Y-79547118D01*
X124782302Y-79555293D01*
X124782081Y-79555906D01*
X124777520Y-79554593D01*
X124774757Y-79552253D01*
X124771452Y-79547753D01*
X124762480Y-79535249D01*
X124748045Y-79515030D01*
X124728353Y-79487385D01*
X124703606Y-79452600D01*
X124674009Y-79410966D01*
X124639768Y-79362769D01*
X124601086Y-79308297D01*
X124558168Y-79247840D01*
X124511218Y-79181686D01*
X124460443Y-79110122D01*
X124406043Y-79033436D01*
X124348226Y-78951918D01*
X124287195Y-78865856D01*
X124223154Y-78775536D01*
X124156310Y-78681248D01*
X124086864Y-78583281D01*
X124015023Y-78481921D01*
X123940989Y-78377458D01*
X123864970Y-78270178D01*
X123787167Y-78160372D01*
X123707787Y-78048326D01*
X123669772Y-77994663D01*
X123589757Y-77881713D01*
X123511246Y-77770886D01*
X123434441Y-77662470D01*
X123359547Y-77556753D01*
X123286765Y-77454020D01*
X123216301Y-77354561D01*
X123148357Y-77258661D01*
X123083137Y-77166608D01*
X123020844Y-77078689D01*
X122961682Y-76995190D01*
X122905853Y-76916400D01*
X122853561Y-76842604D01*
X122805011Y-76774089D01*
X122760404Y-76711144D01*
X122719946Y-76654056D01*
X122683838Y-76603110D01*
X122652286Y-76558595D01*
X122625490Y-76520797D01*
X122603656Y-76490004D01*
X122586986Y-76466502D01*
X122575685Y-76450578D01*
X122569956Y-76442521D01*
X122569244Y-76441531D01*
X122564147Y-76441524D01*
X122549242Y-76441653D01*
X122524881Y-76441912D01*
X122491412Y-76442297D01*
X122449189Y-76442802D01*
X122398561Y-76443424D01*
X122339879Y-76444158D01*
X122273494Y-76445000D01*
X122199757Y-76445945D01*
X122119020Y-76446987D01*
X122031632Y-76448123D01*
X121937945Y-76449349D01*
X121838310Y-76450659D01*
X121733077Y-76452049D01*
X121622599Y-76453514D01*
X121507223Y-76455050D01*
X121387304Y-76456652D01*
X121263191Y-76458315D01*
X121135235Y-76460036D01*
X121003786Y-76461809D01*
X120869197Y-76463631D01*
X120731818Y-76465495D01*
X120657589Y-76466504D01*
X120486799Y-76468820D01*
X120325904Y-76470986D01*
X120174644Y-76473002D01*
X120032755Y-76474871D01*
X119899974Y-76476596D01*
X119776040Y-76478179D01*
X119660691Y-76479623D01*
X119553663Y-76480929D01*
X119454694Y-76482100D01*
X119363522Y-76483138D01*
X119279883Y-76484047D01*
X119203517Y-76484826D01*
X119134160Y-76485481D01*
X119071549Y-76486012D01*
X119015423Y-76486422D01*
X118965519Y-76486713D01*
X118921573Y-76486888D01*
X118883325Y-76486948D01*
X118850511Y-76486897D01*
X118822870Y-76486736D01*
X118800137Y-76486468D01*
X118782052Y-76486096D01*
X118768351Y-76485621D01*
X118758772Y-76485046D01*
X118753053Y-76484373D01*
X118750931Y-76483604D01*
X118750926Y-76483411D01*
X118754218Y-76478718D01*
X118763373Y-76466164D01*
X118778180Y-76446034D01*
X118798426Y-76418611D01*
X118823903Y-76384180D01*
X118854396Y-76343023D01*
X118889696Y-76295426D01*
X118929593Y-76241673D01*
X118973873Y-76182047D01*
X119022327Y-76116832D01*
X119074743Y-76046314D01*
X119130910Y-75970774D01*
X119190617Y-75890498D01*
X119253653Y-75805769D01*
X119319806Y-75716872D01*
X119388865Y-75624091D01*
X119460621Y-75527708D01*
X119534859Y-75428010D01*
X119611371Y-75325279D01*
X119689944Y-75219799D01*
X119770368Y-75111855D01*
X119852431Y-75001731D01*
X119891290Y-74949591D01*
X119973997Y-74838617D01*
X120055145Y-74729726D01*
X120134523Y-74623202D01*
X120211921Y-74519324D01*
X120287129Y-74418376D01*
X120359937Y-74320641D01*
X120430134Y-74226401D01*
X120497511Y-74135936D01*
X120561857Y-74049531D01*
X120622964Y-73967467D01*
X120680619Y-73890027D01*
X120734613Y-73817493D01*
X120784737Y-73750146D01*
X120830779Y-73688270D01*
X120872530Y-73632146D01*
X120909780Y-73582057D01*
X120942319Y-73538285D01*
X120969936Y-73501112D01*
X120992421Y-73470820D01*
X121009565Y-73447693D01*
X121021156Y-73432012D01*
X121026986Y-73424058D01*
X121027676Y-73423069D01*
X121026057Y-73418183D01*
X121021281Y-73404012D01*
X121013459Y-73380886D01*
X121002704Y-73349139D01*
X120989130Y-73309105D01*
X120972850Y-73261117D01*
X120953976Y-73205505D01*
X120932622Y-73142603D01*
X120908902Y-73072745D01*
X120882927Y-72996261D01*
X120854810Y-72913487D01*
X120824666Y-72824753D01*
X120792606Y-72730394D01*
X120758745Y-72630741D01*
X120723194Y-72526126D01*
X120686067Y-72416885D01*
X120647477Y-72303349D01*
X120607537Y-72185849D01*
X120566361Y-72064720D01*
X120524061Y-71940294D01*
X120480749Y-71812903D01*
X120436540Y-71682882D01*
X120413586Y-71615376D01*
X120368964Y-71484125D01*
X120325194Y-71355329D01*
X120282389Y-71229319D01*
X120240659Y-71106429D01*
X120200119Y-70986992D01*
X120160880Y-70871340D01*
X120123057Y-70759808D01*
X120086761Y-70652728D01*
X120052104Y-70550432D01*
X120019200Y-70453254D01*
X119988160Y-70361528D01*
X119959099Y-70275586D01*
X119932128Y-70195761D01*
X119907359Y-70122386D01*
X119884908Y-70055794D01*
X119864883Y-69996319D01*
X119847400Y-69944294D01*
X119832571Y-69900050D01*
X119820507Y-69863922D01*
X119811322Y-69836242D01*
X119805129Y-69817345D01*
X119802040Y-69807561D01*
X119801696Y-69806188D01*
X119806612Y-69807558D01*
D16*
X213000000Y-75950000D03*
D17*
X213000000Y-86000000D03*
D16*
X213000000Y-96050000D03*
D18*
X185000000Y-113000000D03*
D19*
X182800000Y-113000000D03*
X187200000Y-113000000D03*
D18*
X115000000Y-86000000D03*
D19*
X112800000Y-86000000D03*
X117200000Y-86000000D03*
D18*
X185000000Y-86000000D03*
D19*
X182800000Y-86000000D03*
X187200000Y-86000000D03*
D18*
X115000000Y-113000000D03*
D19*
X112800000Y-113000000D03*
X117200000Y-113000000D03*
D10*
G36*
X126234174Y-65808330D02*
X125492287Y-64621063D01*
X128375650Y-62819338D01*
X129117537Y-64006605D01*
X126234174Y-65808330D01*
X126234174Y-65808330D01*
G37*
G36*
X130932360Y-62872577D02*
X130190473Y-61685310D01*
X133073836Y-59883585D01*
X133815723Y-61070852D01*
X130932360Y-62872577D01*
X130932360Y-62872577D01*
G37*
G36*
X127580169Y-67962372D02*
X126838282Y-66775105D01*
X129721645Y-64973380D01*
X130463532Y-66160647D01*
X127580169Y-67962372D01*
X127580169Y-67962372D01*
G37*
G36*
X132278355Y-65026620D02*
X131536468Y-63839353D01*
X134419831Y-62037628D01*
X135161718Y-63224895D01*
X132278355Y-65026620D01*
X132278355Y-65026620D01*
G37*
G36*
X128926164Y-70116415D02*
X128184277Y-68929148D01*
X131067640Y-67127423D01*
X131809527Y-68314690D01*
X128926164Y-70116415D01*
X128926164Y-70116415D01*
G37*
G36*
X133624350Y-67180662D02*
X132882463Y-65993395D01*
X135765826Y-64191670D01*
X136507713Y-65378937D01*
X133624350Y-67180662D01*
X133624350Y-67180662D01*
G37*
D20*
X85000000Y-97000000D03*
X91000000Y-97000000D03*
D21*
X86400000Y-93725000D03*
D22*
X93400000Y-93575000D03*
X93400000Y-100425000D03*
D21*
X83700000Y-100275000D03*
D23*
X80500000Y-82000000D03*
X90500000Y-82000000D03*
D24*
X184100000Y-109000000D03*
X186000000Y-109000000D03*
X114100000Y-90000000D03*
X116000000Y-90000000D03*
D25*
X142000000Y-58000000D03*
X142000000Y-59900000D03*
X140000000Y-58000000D03*
X140000000Y-59900000D03*
X138000000Y-58000000D03*
X138000000Y-59900000D03*
D24*
X184100000Y-83000000D03*
X186000000Y-83000000D03*
X114100000Y-116000000D03*
X116000000Y-116000000D03*
D26*
X102027500Y-79950000D03*
X109972500Y-76050000D03*
X109972500Y-79950000D03*
X102027500Y-76050000D03*
X99027500Y-88950000D03*
X106972500Y-85050000D03*
X106972500Y-88950000D03*
X99027500Y-85050000D03*
X98027500Y-97950000D03*
X105972500Y-94050000D03*
X105972500Y-97950000D03*
X98027500Y-94050000D03*
X98027500Y-106950000D03*
X105972500Y-103050000D03*
X105972500Y-106950000D03*
X98027500Y-103050000D03*
D10*
G36*
X159670639Y-59867500D02*
X160165614Y-59372525D01*
X160964645Y-60171556D01*
X160469670Y-60666531D01*
X159670639Y-59867500D01*
X159670639Y-59867500D01*
G37*
G36*
X159317086Y-60221054D02*
X159812061Y-59726079D01*
X160611092Y-60525110D01*
X160116117Y-61020085D01*
X159317086Y-60221054D01*
X159317086Y-60221054D01*
G37*
G36*
X158963532Y-60574607D02*
X159458507Y-60079632D01*
X160257538Y-60878663D01*
X159762563Y-61373638D01*
X158963532Y-60574607D01*
X158963532Y-60574607D01*
G37*
G36*
X158609979Y-60928161D02*
X159104954Y-60433186D01*
X159903985Y-61232217D01*
X159409010Y-61727192D01*
X158609979Y-60928161D01*
X158609979Y-60928161D01*
G37*
G36*
X158256425Y-61281714D02*
X158751400Y-60786739D01*
X159550431Y-61585770D01*
X159055456Y-62080745D01*
X158256425Y-61281714D01*
X158256425Y-61281714D01*
G37*
G36*
X158751400Y-63445461D02*
X158256425Y-62950486D01*
X159055456Y-62151455D01*
X159550431Y-62646430D01*
X158751400Y-63445461D01*
X158751400Y-63445461D01*
G37*
G36*
X159104954Y-63799014D02*
X158609979Y-63304039D01*
X159409010Y-62505008D01*
X159903985Y-62999983D01*
X159104954Y-63799014D01*
X159104954Y-63799014D01*
G37*
G36*
X159458507Y-64152568D02*
X158963532Y-63657593D01*
X159762563Y-62858562D01*
X160257538Y-63353537D01*
X159458507Y-64152568D01*
X159458507Y-64152568D01*
G37*
G36*
X159812061Y-64506121D02*
X159317086Y-64011146D01*
X160116117Y-63212115D01*
X160611092Y-63707090D01*
X159812061Y-64506121D01*
X159812061Y-64506121D01*
G37*
G36*
X160165614Y-64859675D02*
X159670639Y-64364700D01*
X160469670Y-63565669D01*
X160964645Y-64060644D01*
X160165614Y-64859675D01*
X160165614Y-64859675D01*
G37*
G36*
X161035355Y-64060644D02*
X161530330Y-63565669D01*
X162329361Y-64364700D01*
X161834386Y-64859675D01*
X161035355Y-64060644D01*
X161035355Y-64060644D01*
G37*
G36*
X161388908Y-63707090D02*
X161883883Y-63212115D01*
X162682914Y-64011146D01*
X162187939Y-64506121D01*
X161388908Y-63707090D01*
X161388908Y-63707090D01*
G37*
G36*
X161742462Y-63353537D02*
X162237437Y-62858562D01*
X163036468Y-63657593D01*
X162541493Y-64152568D01*
X161742462Y-63353537D01*
X161742462Y-63353537D01*
G37*
G36*
X162096015Y-62999983D02*
X162590990Y-62505008D01*
X163390021Y-63304039D01*
X162895046Y-63799014D01*
X162096015Y-62999983D01*
X162096015Y-62999983D01*
G37*
G36*
X162449569Y-62646430D02*
X162944544Y-62151455D01*
X163743575Y-62950486D01*
X163248600Y-63445461D01*
X162449569Y-62646430D01*
X162449569Y-62646430D01*
G37*
G36*
X162944544Y-62080745D02*
X162449569Y-61585770D01*
X163248600Y-60786739D01*
X163743575Y-61281714D01*
X162944544Y-62080745D01*
X162944544Y-62080745D01*
G37*
G36*
X162590990Y-61727192D02*
X162096015Y-61232217D01*
X162895046Y-60433186D01*
X163390021Y-60928161D01*
X162590990Y-61727192D01*
X162590990Y-61727192D01*
G37*
G36*
X162237437Y-61373638D02*
X161742462Y-60878663D01*
X162541493Y-60079632D01*
X163036468Y-60574607D01*
X162237437Y-61373638D01*
X162237437Y-61373638D01*
G37*
G36*
X161883883Y-61020085D02*
X161388908Y-60525110D01*
X162187939Y-59726079D01*
X162682914Y-60221054D01*
X161883883Y-61020085D01*
X161883883Y-61020085D01*
G37*
G36*
X161530330Y-60666531D02*
X161035355Y-60171556D01*
X161834386Y-59372525D01*
X162329361Y-59867500D01*
X161530330Y-60666531D01*
X161530330Y-60666531D01*
G37*
G36*
X159833274Y-62999983D02*
X161000000Y-61833257D01*
X162166726Y-62999983D01*
X161000000Y-64166709D01*
X159833274Y-62999983D01*
X159833274Y-62999983D01*
G37*
G36*
X160717157Y-62116100D02*
X161883883Y-60949374D01*
X163050609Y-62116100D01*
X161883883Y-63282826D01*
X160717157Y-62116100D01*
X160717157Y-62116100D01*
G37*
G36*
X158949391Y-62116100D02*
X160116117Y-60949374D01*
X161282843Y-62116100D01*
X160116117Y-63282826D01*
X158949391Y-62116100D01*
X158949391Y-62116100D01*
G37*
G36*
X159833274Y-61232217D02*
X161000000Y-60065491D01*
X162166726Y-61232217D01*
X161000000Y-62398943D01*
X159833274Y-61232217D01*
X159833274Y-61232217D01*
G37*
G36*
X165042897Y-67905133D02*
X164335790Y-67198026D01*
X165714649Y-65819167D01*
X166421756Y-66526274D01*
X165042897Y-67905133D01*
X165042897Y-67905133D01*
G37*
G36*
X165940923Y-68803159D02*
X165233816Y-68096052D01*
X166612675Y-66717193D01*
X167319782Y-67424300D01*
X165940923Y-68803159D01*
X165940923Y-68803159D01*
G37*
G36*
X166838948Y-69701184D02*
X166131841Y-68994077D01*
X167510700Y-67615218D01*
X168217807Y-68322325D01*
X166838948Y-69701184D01*
X166838948Y-69701184D01*
G37*
G36*
X167736974Y-70599210D02*
X167029867Y-69892103D01*
X168408726Y-68513244D01*
X169115833Y-69220351D01*
X167736974Y-70599210D01*
X167736974Y-70599210D01*
G37*
G36*
X171555351Y-66780833D02*
X170848244Y-66073726D01*
X172227103Y-64694867D01*
X172934210Y-65401974D01*
X171555351Y-66780833D01*
X171555351Y-66780833D01*
G37*
G36*
X170657325Y-65882807D02*
X169950218Y-65175700D01*
X171329077Y-63796841D01*
X172036184Y-64503948D01*
X170657325Y-65882807D01*
X170657325Y-65882807D01*
G37*
G36*
X169759300Y-64984782D02*
X169052193Y-64277675D01*
X170431052Y-62898816D01*
X171138159Y-63605923D01*
X169759300Y-64984782D01*
X169759300Y-64984782D01*
G37*
G36*
X168861274Y-64086756D02*
X168154167Y-63379649D01*
X169533026Y-62000790D01*
X170240133Y-62707897D01*
X168861274Y-64086756D01*
X168861274Y-64086756D01*
G37*
D27*
X184100000Y-78700000D03*
X184100000Y-80000000D03*
X186000000Y-79350000D03*
X184100000Y-79350000D03*
X186000000Y-80000000D03*
X186000000Y-78700000D03*
X114100000Y-118700000D03*
X114100000Y-120000000D03*
X116000000Y-119350000D03*
X114100000Y-119350000D03*
X116000000Y-120000000D03*
X116000000Y-118700000D03*
D28*
X96000000Y-83000000D03*
X96000000Y-80000000D03*
D29*
X184000000Y-90000000D03*
X187000000Y-90000000D03*
X184000000Y-93000000D03*
X187000000Y-93000000D03*
D26*
X190027500Y-79950000D03*
X197972500Y-76050000D03*
X197972500Y-79950000D03*
X190027500Y-76050000D03*
X193027500Y-88950000D03*
X200972500Y-85050000D03*
X200972500Y-88950000D03*
X193027500Y-85050000D03*
X194055500Y-98000000D03*
X202000500Y-94100000D03*
X202000500Y-98000000D03*
X194055500Y-94100000D03*
X194027500Y-106950000D03*
X201972500Y-103050000D03*
X201972500Y-106950000D03*
X194027500Y-103050000D03*
D14*
G36*
X153196021Y-71756533D02*
X157159020Y-72473458D01*
X159157987Y-73119889D01*
X162056929Y-74215710D01*
X164064474Y-75308927D01*
X167362995Y-77491332D01*
X169863042Y-79662688D01*
X171412925Y-81232441D01*
X173194268Y-83680543D01*
X175515981Y-87486957D01*
X177208569Y-91738340D01*
X178114071Y-95559359D01*
X178442647Y-100089731D01*
X178134013Y-104111930D01*
X177397516Y-107595360D01*
X176242803Y-110830548D01*
X174998635Y-113368651D01*
X172707027Y-117095005D01*
X170060676Y-120189046D01*
X167053836Y-122668196D01*
X164156153Y-124629858D01*
X161169989Y-126093078D01*
X157546365Y-127427050D01*
X154561530Y-127974269D01*
X150427331Y-128432518D01*
X145350115Y-128084082D01*
X141149421Y-127018977D01*
X137277867Y-125466374D01*
X132995227Y-122777275D01*
X129651146Y-119940777D01*
X128190603Y-118142422D01*
X125638071Y-114652632D01*
X124803674Y-113063305D01*
X123936836Y-111229992D01*
X122990974Y-108770752D01*
X122134737Y-105554885D01*
X121606973Y-101731081D01*
X121597023Y-98517357D01*
X121935684Y-95678581D01*
X122343800Y-93369241D01*
X123219761Y-90422826D01*
X124294278Y-87865874D01*
X126387074Y-84138704D01*
X127718639Y-82310287D01*
X130059752Y-79730082D01*
X131760662Y-78198267D01*
X134120869Y-76435582D01*
X136938451Y-74743041D01*
X140593438Y-73139627D01*
X143021540Y-72433089D01*
X145349624Y-71915737D01*
X148298876Y-71646718D01*
X149310513Y-71597128D01*
X153196021Y-71756533D01*
X153196021Y-71756533D01*
G37*
X153196021Y-71756533D02*
X157159020Y-72473458D01*
X159157987Y-73119889D01*
X162056929Y-74215710D01*
X164064474Y-75308927D01*
X167362995Y-77491332D01*
X169863042Y-79662688D01*
X171412925Y-81232441D01*
X173194268Y-83680543D01*
X175515981Y-87486957D01*
X177208569Y-91738340D01*
X178114071Y-95559359D01*
X178442647Y-100089731D01*
X178134013Y-104111930D01*
X177397516Y-107595360D01*
X176242803Y-110830548D01*
X174998635Y-113368651D01*
X172707027Y-117095005D01*
X170060676Y-120189046D01*
X167053836Y-122668196D01*
X164156153Y-124629858D01*
X161169989Y-126093078D01*
X157546365Y-127427050D01*
X154561530Y-127974269D01*
X150427331Y-128432518D01*
X145350115Y-128084082D01*
X141149421Y-127018977D01*
X137277867Y-125466374D01*
X132995227Y-122777275D01*
X129651146Y-119940777D01*
X128190603Y-118142422D01*
X125638071Y-114652632D01*
X124803674Y-113063305D01*
X123936836Y-111229992D01*
X122990974Y-108770752D01*
X122134737Y-105554885D01*
X121606973Y-101731081D01*
X121597023Y-98517357D01*
X121935684Y-95678581D01*
X122343800Y-93369241D01*
X123219761Y-90422826D01*
X124294278Y-87865874D01*
X126387074Y-84138704D01*
X127718639Y-82310287D01*
X130059752Y-79730082D01*
X131760662Y-78198267D01*
X134120869Y-76435582D01*
X136938451Y-74743041D01*
X140593438Y-73139627D01*
X143021540Y-72433089D01*
X145349624Y-71915737D01*
X148298876Y-71646718D01*
X149310513Y-71597128D01*
X153196021Y-71756533D01*
M02*
